<mxfile host="app.diagrams.net" agent="Mozilla/5.0 (Windows NT 10.0; Win64; x64) AppleWebKit/537.36 (KHTML, like Gecko) Chrome/133.0.0.0 Safari/537.36" version="26.1.0">
  <diagram name="primera-versiÃ³n" id="IGiFL9-YblV0Ci10YGNB">
    <mxGraphModel dx="2603" dy="1708" grid="1" gridSize="10" guides="1" tooltips="1" connect="1" arrows="1" fold="1" page="1" pageScale="1" pageWidth="1169" pageHeight="827" math="0" shadow="0">
      <root>
        <mxCell id="0" />
        <mxCell id="1" parent="0" />
        <mxCell id="SxAMXVoo2cSi_DEeGkWg-2" style="rounded=0;orthogonalLoop=1;jettySize=auto;html=1;endArrow=none;endFill=0;fontColor=#61af4b;strokeColor=#2D7600;fillColor=#60a917;entryX=0.984;entryY=0.4;entryDx=0;entryDy=0;exitX=0.5;exitY=0;exitDx=0;exitDy=0;entryPerimeter=0;" edge="1" parent="1" source="SxAMXVoo2cSi_DEeGkWg-24" target="SxAMXVoo2cSi_DEeGkWg-11">
          <mxGeometry relative="1" as="geometry">
            <mxPoint x="630" y="90" as="targetPoint" />
            <Array as="points">
              <mxPoint x="560" y="120" />
              <mxPoint x="510" y="120" />
            </Array>
          </mxGeometry>
        </mxCell>
        <mxCell id="SxAMXVoo2cSi_DEeGkWg-3" value="orquestador/api-gateway" style="shape=module;align=left;spacingLeft=20;align=center;verticalAlign=top;whiteSpace=wrap;html=1;" vertex="1" parent="1">
          <mxGeometry x="490" y="330" width="140" height="50" as="geometry" />
        </mxCell>
        <mxCell id="SxAMXVoo2cSi_DEeGkWg-4" value="ms-customer" style="shape=module;align=left;spacingLeft=20;align=center;verticalAlign=top;whiteSpace=wrap;html=1;" vertex="1" parent="1">
          <mxGeometry x="230" y="174" width="140" height="50" as="geometry" />
        </mxCell>
        <mxCell id="SxAMXVoo2cSi_DEeGkWg-5" value="ms-credtits" style="shape=module;align=left;spacingLeft=20;align=center;verticalAlign=top;whiteSpace=wrap;html=1;" vertex="1" parent="1">
          <mxGeometry x="230" y="368" width="140" height="50" as="geometry" />
        </mxCell>
        <mxCell id="SxAMXVoo2cSi_DEeGkWg-6" value="ms-transactions" style="shape=module;align=left;spacingLeft=20;align=center;verticalAlign=top;whiteSpace=wrap;html=1;" vertex="1" parent="1">
          <mxGeometry x="230" y="240" width="140" height="50" as="geometry" />
        </mxCell>
        <mxCell id="SxAMXVoo2cSi_DEeGkWg-8" value="BACKEND" style="text;strokeColor=none;align=center;fillColor=none;html=1;verticalAlign=middle;whiteSpace=wrap;rounded=0;fontStyle=5" vertex="1" parent="1">
          <mxGeometry x="280" y="20" width="130" height="30" as="geometry" />
        </mxCell>
        <mxCell id="SxAMXVoo2cSi_DEeGkWg-9" style="edgeStyle=orthogonalEdgeStyle;rounded=0;orthogonalLoop=1;jettySize=auto;html=1;" edge="1" parent="1">
          <mxGeometry relative="1" as="geometry">
            <mxPoint x="220" y="340" as="targetPoint" />
            <Array as="points">
              <mxPoint x="180" y="130" />
              <mxPoint x="174" y="130" />
              <mxPoint x="174" y="340" />
            </Array>
            <mxPoint x="180" y="131" as="sourcePoint" />
          </mxGeometry>
        </mxCell>
        <mxCell id="SxAMXVoo2cSi_DEeGkWg-10" value="" style="edgeStyle=orthogonalEdgeStyle;rounded=0;orthogonalLoop=1;jettySize=auto;html=1;entryX=1;entryY=0.5;entryDx=0;entryDy=0;" edge="1" parent="1" source="SxAMXVoo2cSi_DEeGkWg-11" target="SxAMXVoo2cSi_DEeGkWg-38">
          <mxGeometry relative="1" as="geometry" />
        </mxCell>
        <mxCell id="SxAMXVoo2cSi_DEeGkWg-11" value="config-server" style="shape=module;align=left;spacingLeft=20;align=center;verticalAlign=top;whiteSpace=wrap;html=1;" vertex="1" parent="1">
          <mxGeometry x="102.26" y="100" width="140" height="50" as="geometry" />
        </mxCell>
        <mxCell id="SxAMXVoo2cSi_DEeGkWg-12" value="" style="image;html=1;image=img/lib/clip_art/general/Full_Folder_128x128.png" vertex="1" parent="1">
          <mxGeometry x="120" y="130" width="50" height="40" as="geometry" />
        </mxCell>
        <mxCell id="SxAMXVoo2cSi_DEeGkWg-13" value="" style="shape=image;verticalLabelPosition=bottom;labelBackgroundColor=default;verticalAlign=top;aspect=fixed;imageAspect=0;image=data:image/png,iVBORw0KGgoAAAANSUhEUgAAAPsAAAEACAYAAAB1UADIAAAABGdBTUEAALGPC/xhBQAAACBjSFJNAAB6JgAAgIQAAPoAAACA6AAAdTAAAOpgAAA6mAAAF3CculE8AAAAB3RJTUUH5QQXCCwDHDiC2wAAAAZiS0dEAAAAAAAA+UO7fwAAOmlJREFUeNrtnQd8U+X6x2UjKDgABw6Q1SQObLPKDG1SaKFJUUBGiqj3qle9evXvvbZw3Sju1VYKomW0TVtGQZZecQCKA8pGKKsgUCjQXbrH//cmpxjSk+SckLYn8fl9Pr9P2+Sck9OT93ve513PueIK0l9KM1aaBszIjOpAV4JE8nfYVxlfhmV0JUgkf4f9S2OKOTNiFl0JEsmfQc+M6jpjlemnB5aFrTYkqQbRFSGR/LZWjwye8aUpZ9JSw+awhZoP6YqQSH7bXjfNAexlgP1nwP47avdAuiokkj9BvjaKdczpAPpOuH7KsjFbAXs5/FFYkroNXSESyT/a6W1mrI7qA8hXwA3M5pVjfwfoDfBhwD5elzSYgCeRfB70laYbEL6/AcgL7WA/wsFeY1ioXqBPUvagq0Ui+S7obAJNL4A+G4AXNILOPH1lZAUHO/NBAG9E7d6WrhqJ5Iuwr4zqBtDfsq/RL8K+KrLBDvbasIXqJfBtdNVIJN+r1TtzoBc7gm6D3Vg/epG20g74QtTujyCc70xXj0TyLdDf5KvRG/3gKmNdRPKwHDvYmXcYFqrupM46EknqkLPhtbVRvQH6YgBd6gx0DvbasSnDsx1gr0Movwq+iq4miSRd0NvOWB01ACCnwTWuQHcBu9WGJM0CQ5KqK11VEkmSoJsCADGr0avdge4OdrjCkKT+D4C/jq4uiSQd0NmEmYEAeJFQ0AXAzpyPcD4WwPekq0wiSQH2NVG3Ad5UMaALhJ35pGGh+kkK6Umk1q/Vb5qxymQRC7oI2OsA+37YDOC70BUnkVoPdFajV4oF3Qr7l8aa8WmjdriBvRH4w/AkAN+JrjyJ1IKanDnm+ikrw98DsEWegM655r60kG0CYGeuB+yn4SgA356+ARKpBfTAitFdJq0IexU/S6aujNgpZJjNC7DbhuQWqsvgSJpDTyI1syZlhnUC5JPhw3ADavg81O7lLQU7B/xe/UJVMIBvR98IidQ8oXtb1OgqQP4DA73R0asiD7Uk7Fwb/hf9QvUw+lZIpOao1VeE9YKXAPAae9inrgzf28KwM1fBawwLNffQN0MiebOdvnx0R5i108vsQedC+RIPO+ouB3bmC/CisCR1f/qGSCQvaeJygxFgFziCzrk2etW43a0AO3Mp/CaAv56+JRLpMhSVqbtiYqZBhvD9gBPQmeumrYzIYUkkWwF21mFXAD9uSFJdqUsaTF8aieRRjb7C0Bugr2G1twvYWShfhVD+TGvAzgF/wrBQFa5fqKQhORLJg9D9GrTT32Lj6a5At8K+YnR59Mpxh1oLds67EM4r6JsjkcSAnmm4EjX6gwA5xx3oje32qZkRLCuNmDH3mgkZ+iwvws68HOH8NfQNkkjC2untAHoIAP6VtccFwt4wJXNM4YOrjH+IgL0WkcNeL8POMtb+G233jvRNkkhuNGm5oe8DK8LSAHC1UNBtofyYUoTyeWJgn7x8dLaXYa+3paXWjKNvkkRyVasv1V05fumov01Yrj8tBvSLvfK2UL6kFWG3PnSCTbhB+70ffaMkEo8i03VXmDJ0/eGs8UtDz0xaMfqMWOCnZIbnIpQ/1cqwM5cbFqo/GJ2kpfY7ieQoY7quA/y6KWNUQ1TGqLyJywyiYZ+8YvQFhPIsT3xdK8POfBrh/AxDkqoDfbskkj3sGboBpnRdPoMdrrl/mb5YbLudGaF87oNfGoslADus/haw30V56EmkxrZ6Jmr1DN1cDnSrEcofm7Q8LF98KD/mFEL5ImnArqlGOP8KgO9G3zKJZKvVRwDwc/awI5Q/P3G5ocyDjrpKhPL5ApJatATszMcBe4g+iWbXkahW72TK0KWw0N0edrgWofwpBq8HofxBwHxBIrAzfwPTM+RIf/mOuSkA+6QD6LZQPiPkAEL5UtGh/IoxpxHKV0oI9uqwJPVj9G2T/rIypel6Auo1cD0f7KjxyyYuD6vyIJSvRyh/3E2vfEvCzhbLHBqdpKFHQpP+guH7UutQ22OAOpcfdJsRyu91zE4jxFMzI3a7abe3KOzW7DZJ6g/HJGkpOy3pL1arZ+juBMzfuALd1lEXcnLSCvG1++QV1rnypRKCnfkwrKFvn/RXqtU7A/Z/AuZCd7AzT1xuOO5BKN+AUH6fxGCvNCzUfK5PUnanUkD6a9Tq6bq7AfFPQkC3hfKh2z2BfWpm+EGJwc58CO13E5UCkt8rMkPX1ZihewEQVwmFHaF8EUL5Cg9C+XKE8mclBnt12EL1YkOS6hYqDSS/1ri04b0j00d+KxT0xjH3ScvD9nlQu7NklDudwF43dXnEqVaAnfkY1e4kv1ZEypC2EalDHxhrGXbOmD4yRwzs9y0LZbDXi132ilD+jLMhuGmZEfWtBDt7dlycnp79TvJXhVuGdoa/jbAMKx6XNuI4IK4THMovDalBKF/oQShf4SyDDWBvaCXYbdNoF2oMNI2W5J81u2XowIjUYeWAvWFs2vBCY7quQHi7fdSFicsN+z0I5cvNK8fmSBB2NtHmU/g6Khkkf4T9ZQY65zy03c+ICOWrEcqf8WCCTd2UzHCWvaZYarDDuYBdY0hS0RJYkv9ojEXbHYDvsIO9EqE8G2evFgr8+KUhpQjlxSe1yByTP31VZI4EYW8IS1K/DVOCC5IftddTh4YB8BI72Fkof8KYISqUL0Aon+NhKF8oSdgXas6EJgX1oBJC8p8QPnVoIgCvtocdPmNMH1ksslf+ggcZbOqnrow4++CXxnMShL1Bn6R5kEoIyT9ATxnSH2DvdQCduR6h/DkxE2wQyp9GKJ/rQSh/GqH8aSnCDmfpk5S0QIbkFyH80wD7PA/szNkI5UtFhPL5E5Ybznow5l6NUL7UfiWchGAvMSSpDFRSSD4OenD3iNRhywB1nRPYC4zpVtjrRcyVZ+Pt5aLnyq+MOIZQvkCCsNeEJWmWjEnSdqISQ/LdEN4yRO8khL9ohPJHWHtcRCjvUTJKhPJ5COVLJQg7c7YhSXM3lRiST0qXObh9hGXoiwC6zBXs8AGeHHSuXIpQvkTMs+Aa58qbV41j7fYqCcKeb1io/heVGpJvhvBpwbcD9mVuQGcuj/wzZ7zAUF5/zLNQPnw/QvkyCcJeC6cjlL+KSg7J5zQGIXy4Zeg+AbA3jE0bsV0M7AjlD05aEeZJqumiB1cZayQIO/POsCT1cCo5JJ/SKIu2qz5F+/Lo1OA8x8k0vE4dliNmYQzr0Ju43FDkQa98A0L5vWw9uwRhL4NnGZJUtDiG5DsypGj7wsvDUrQnwlOHFgio3esi00f+ITKU3+lJMsopmeH7JQh7tRX2JPUiwxfK3lSCSD4jfYpmCHwUwFePSR1SBJhr3ME+Nm34PjGwR2WMOoFQvtKDUL6CDcFNyxxbN3qhtqoVoC6AzwLsc4YkdYHhC3W9/nNVsX6B6oj+M+WG0PlBIVSCSD5Sq6vaG1I0kxnocMPolOBswFzqBvb6CMvwIlO6rkQM8Ajlj3mSnw6h/HbzynGV4YuH5DZf6mhNPnwSQB8H0HmGz9VlALoCPgnnAOxj+vnKU6HzlPVwA+eKkHlBz+rmD6Yxd5IP1OrJmm6A/S0GOue8cMvQSmG98iMOigvlPUtGOSVzzB+AvTAieViOF8AuNCRpjgHqbMMXqiOGz1XnAXO1/jNVIXwmdL4yFz4PkMvtoHblxQCectSRfKK9fgu82Q72WoTyOYC51g3slWPTRpwSF8qHFHuSjJI9Q25qZsROsbAD6KPwHkC9F0CfAMzlcGXofFUxgC6AC0VA7cy/w2oqSSRfgF0GV9rBzkL5XTyr3pqE8mMtw0sQyp8XmYxyryePiMJ+heFLhuQ4yRHH2tKAWv0r2tO7APQfALkGBthWmJmr4LrLBJvPNajZzbq5g2mdO0nCIfwSbTt9svYRe9CZ9SmaUoTyVQJC+YJx6SOOilz2ut+TITj20MhxKcN2oqbORXt6O6D+Be3oPQCtmIOunoO53qFd3ezGOXwRMi+Q1rmTJN1e72BI1n7sCDszQvkdAmCv4jLY1IhMRlngCewRi4bubUmIRfhIyDxlPypRJOmG8MnaTgD7az7Yw1K02YJm01mGnzOm6842dzJKicPeEJqoHKGfq6T8dCTJttevhE/ywQ5XIJTPEwD8+cj0kWdFJqM8K3aCjeRhn6ecCeApqQVJqrCr+zsBvbFXfqcA2KsRyrOFMZUi5sqXiE1GKXXYEcavg2m8nSTZmv1+F7DXI5TPExbKDztmFLESjiWjnCBygo0P1OzFoxZQJx1JsrBrXncBO/OF8NShRwUAn49QvkxEKF+HUL5cTDJKH4C9QZ+opFVwJMnW7GvdwF6OUF5QRx1C+ZOAuEJEKJ+LUP6UP8GOMP5lKlUkqcK+1w3sdWGpwWyevJDps4eMGboykckozwkdc/cF2EMTg1ZQqSJJEHRVN8B8zg3sbAiuAKF8jgDYS43pI4tEJqNk4+0X/KZmTww6QCWLJDnpkzV3AuYCd7DDZQjl84SF8sP3i5lgg1A+R2gySp+o2ecpz+vnKm+i0kWSFuwp2vsAcokA2FkozxJaFLmDPdwy7KiYzLNcMspSIckofQT2EoTyEVS6SFLriX+G9bYLgJ2F8qcRyp8SMn0WoXyuyAw2OUKSUfoI7GUh85QPU+kiSa1zLg6uEgI765UfnRpcKCCDTcPYtGFbPUhGecFPYK8C7B9T6SJJrWZPA8Q1AmFvAOw5Lh4LZe88kXnlGxDKF7rrlfcR2KsB+xdUukhSq9l/Ewr6xQw2qUMLbSmp3CSjTBt5SGQGG7fJKH0EdubfqHSRJCOdRdsZ8G4TCTtb9nqWtcvdwF471tYrLyYZ5Ul3ySh9CPYs3fzB9PAIkjQUmqztI2BCDV8ony3g8VCeJqPM8RPY94UkBg6gUkaShPRLtArAu18s7HBxuGVomYBQ3uvJKH0I9v36uUoFlTKSNGBP1oQC3BwPYG8YY7HOlXfXK181Nm1ErshQvhShfLkfwH44ZG7gUCplJGnAnqKd4CJphbsx970CYPc0GeUeP4D9ZMg85f1UykhSgZ09FOKUJ7AzI5QvaKZklAecDcH5GOwTqZSRJCFDsvZfgDbfU9jHpA7JaqZklNUI5fMJdhLJW7CnaF8ROC/eWSj/h6DZdOKTUZZNXG444OOw5wL2KVTKSH4BO1scg1D+mMBklOdEJqM8xzfBxodgzwfs/6JSRvIX2Fkyyl0CYK/hklFWiExGedqHYS8B7K9QKSP5C+z1YSnBpUIeAOmtZJQEO4nkGewvXybsrN1eDtiF5KcrQCh/wYNklFUEO4l0mdKnaCd6Os5u/xCJ0anBRwXMpmPJKE9cbjJKH4K9CLDPpFJG8ifYG8JSg9lTY4oEJqO8IDKUP28/5k5DbyRSa8LOklFaBOWVL/MgGWW+fTJKwF42bsnwAwQ7iSQO9gjAevxyYbeF8kPy2bJWAckof7/MZJTlppSROQQ7iSQG9mRtIEDN9gLsbNlrvpAMNuGWYTkik1GWOSSjJNhJJNGwe77ElS+UPxOeOjRXyAMgjWkjT4lMRnnELhklwU4iiZUhReVR8gpns+kQyl8QmIxym6hlr0tDDtklo/QV2A+FzgvSUikjSQh40TnovJGMks2TrxaZjLKA65X3FdgpeQVJcrBvZjPhvAT8WYTyRQKTUR70MBmlr8C+V5+ovINKGElKPfIWMamkBSx7zROYjPKAyAw2p7hklL4C+zZd0uCOVMJIUqrZZ8OV3oI9THgyymJTuq5YZDLKoz4EO6WSJkmuZn9C6OOfBLpUYDLKC2KTUd63TL+bTbAxpow8JHHQa0PmKdOpdJGkBXuydgQALfIi7CwZ5X6ByShPiwvlQ0onLNNnRSwZmi31xz+FJgZ9QKWLJCmNStX2BqDnvQl7WIp2n8AMNiXGdJ2YpBbMJeFLhh2VOOwXULM/RqWLJMFQXvO7N2HnklGeF5iMMkck7OWAXept9qLQeUGURpokyU66xd6GXWQySuFj7umjLoQvHnpY6impdPMH96aSRZJizf4Pb8OOUP4EmxorIJQ/KyYZJbYtHZ0ULPUlrtlUqkiSVGiKOtDbsHPJKHMEJqM871+wB2VQqSJJE/Ylqm6GZM0pL8PeLMkofQH2kHnK2VSqSBJts2s6wcu9DDtLRlmG2r1CAPA5QpNRShj2/JDEoMMhiYEHR80LHEWliiTNmj1V3Q7t9meaod1+QWAyykKE8mUShL0ermOTZDjXWWvuxKAjoz4N2jbq08BfR8UH7dXFB52H6+BaOF/3aeDVVKpIkpQuaXAbfbI6yMsz6RqTUeYITEb5h5BQvhlhr4HLQxOVZTD7WRMyN6hk1NzAfbqEoF/gXQD5OFwJN7iwBaY58SRJ98jfBDjXeb12tyWjLBRQux8WkozSC7AD6qBSwFwQkshCb2VxyFxlHcAuQE2dPSohcA/APqiLDywCtPVuwG7qhMAn4XZUokgShl3bFXDOaoZQvkBgrzxLRlnoLhmlSNhRSwflIew+BaDPwMWj5gZVAuo8QH0UQB8GoKdEA+3c5QBdq5s7uA2VKJJ0Q3mLti2Aj/T2PHm2om506pACIckox9qSUdZ6BHti0DlAfQw19NGQT4NOoU1dDpcC6jOoqU8AxNNwkRfB5nHgb/BtVJpI0q/dkzVywPmdt2t3tNvZ1NlzApJRHhMMe6KyEGCzjrILcMOohKBSQJ3PdZYxqKubF2xef6KLC7qWShJJ8gpJ1XZD7f5mM4TypwUmo6wxpo086Q72sKTgHwE3wvCgC1wPeIMEzDru7gPs1F4n+UQo3wawRwPQQm/PpuOSUVZfbjJKBrvhC+1ObqirQUJmvfVBVIpIvhTKD2qOXnmRySjLncKepivTz9cckBjozPN1CYE3Ugki+U7tnjS4A/coZ2+PuQtNRlkbmT5ihzPYIy0jy0MT1TkSA70S4fuTug8HUwhP8i0ZkrU6wLm7GZa9ngHM7p7lXjc2bXiOj8G+RxcfGEolh+R7ofwSbXe03dO8mXVWRDJKeHiZs2WvEoSddRB+Dth7Uskh+Wrb/WEAmufl2r1MYDLKsnHpI/b7COxn4McQwrelUkPySYUsVt7QLKG8ZcjvAvLT1Yy1ZbDhg70iZK7qhIRg36hLuHcAlRiSL3fUtUHb/UW2mMWrvfIp2lOCZtNZhhUa00f+4Qj7uNQRDRIadivTxQW+rUugWp3k68BbtD0A6GGvJ6NMHZovZNkrQvkTTmCXig/oEgKVVFJIfiHU7s97fczdMmSfANhrEcqXOC57lRDsNfBiKiEk/2m7p2pv8nbtHpYazGr2CwKAP41QPleisJ9DCD+CSgjJn2r2DvDr3s5PF5465IAA2Isi00cWSRT2dboPB3egEkLyG+mXaFlHnRKAHvNqMsqUIULSVbEJNmfYfHgO9rqxySNOSgL2hMBwKh0k/6vdU9RXGVI0L3t3JVwwwnjr9Fl3wB+1S0ZZG5E8PFsCsH8H2CnPHMkfYVexcP4eQPojyxrrrQk2Y1KtY+5ua/dx6SNKuXXuUoC9BqCP0X16Lw23kfxTuqTB7fXJ6oe8+BDIKm6uvJAx9/2mDF2ZRGBfDd9EJYLk3+33ZE0fg23OfK2XQvlShPJ5Amr3XITyDPaa8CXD9rUi6Pmo1cfr5g5uT6WB5P/Ap2jvB6hHvJTBphC1+x8CYG/gJthUjV44ZFsrwp4KU4450l8E9iXa7gD1M5ZI0gvAVwP2QgHLXlkov8uUrqscnaRtLdiP6OIDJ1CtTvprAZ+qVelTNHu80VmHUD4vPHXoGQG1e8nYtOGHDZ9rtrXSMtYFuk8Ce9C3T/prddZZtO3Rfn8SsJZ7IZTPB+xC0lU1RKQOuxAyT7W/VZJTJASG6j6kfPCkv2ZnXTvAmuGF2r1+jC2vfLkA2GtDElUt3RtfpIsLnAnYaaiN9NfVqFRtH4Tz2V6o3XMErYQD7KPmqo62IOhsKe03aKdTLnjSX1sAldXu5ssdewfsxYC9mE2gcQW7MXVkGWrYihaE/SRqdcotRyJZw/kU9XWo3T++3Hx1o1ODjwNol89yn5467uCYhODiFgK9CqC/St8widTYWWd93LPmLgD7v8vslT/qrt3+lOWBrEmJ+sMtBPsaXcK9NFOORLqkdl+i7aBP1o4FtLsu5wGQ4RZru91pMsoX0/62Zcq8sJbooMvRxQeOgKlTjkRqAnyyphPC+WcuJyPt6JTgXa6SUb6a9vhPLQA7e+DDY7pP7u1E3yqJ5ESjFgV2MSRr3ga4JR6G8n+4eh7c3LTY3f/4/P4dzftwxsDXdAmDu+s+HExfKInkSoYU1U2o4Vd4ulgGofwxZ7DPS5u194Wk6dua8Smsi3UJgX3oWySRBAOvDYR/8zCU3+kM9i/SXsl9ddHju5ppOuxmOJi+PRJJbBs+RWsAvAc9COXPO3tE1JKM12vfT372sNcnzsQF7oJN9K2RSJ7U7snadvAUAHzUG8koJ1nCziRnzK6NS/lPiXdhDzwB0MeijU6r2UgkTxWarO6qT9Y8BYDPiUxGedAR9hmWyOzUjDdq51v+Wz3206HnvQR7uS7+3ofoUcsk0mVKlzT4itDFyu6GZM2/AXG+iFC+PMIytNAe9n+lTdtuyXizJintlQuT540+7B3QA/+hS7i3C31TJJKXgDekqHroUzQfiBiSa5KMclbaI9ssGXNqktNnl/7z80mXm5rqAvxfXVxQN10CDbGRSN5tw9uA/wggF4lIRnlxgs3raU/sTAPslvQ5FS8u/PuxywC9AJ6jSwjsRd8KidR8wPcE8B+ymltIMspwu2SUH6c/fyI946065neWPFOmT1BXeJQwMj7obYB+M30bJFLL1PAM+CqhySiNlpHliekzKwB6A3Ni6szCCYmhJ0QnoYgPegug96ZvgURqOeBv4EL6KiHJKCdbRp/8PP2lykbYF6W/lvfIgqgDImfHvQnQaRUbidTCsLcxpKhvcVfDI5Q/w5JRPpn2wP4lGa+XcbBXL13xfu7s1KfOGxI05QJhZzU6JYskkVoL+NBUDavhX3I2LMclo8x/Je2xI5aMOeUM9oyl75StWZ1wIH3V+6dnfG487X54Leg9gH4dXXESqRWls2iv0C28t5MhWfM04D4O1/HMlT/6QdpzJ7nOuYZly96tWLtmbvm6tYlV/01+tECfoKlykjsuVxcfOEOXMLgzYKeLTSJJAvqkwQBeOwlw73YEfnzKqNz49BeKuRC+duXKj3cD9AZmy6p3j5oXjM0dFa+sc2if/wLQ79fNHUxr0kkkSYb2ydrxAHyjPeyPWybkLMp4Ld8awme8Xbt29adHGmH/ev1nuQmZLx6ZMF9fMCo+qJ6bLJMBD6O57iSS5NvyWiW8kvXGh6UE186yPFKYljGn0hbCv3eKhe8M9PXr5hV/9+3i0xt/sJR9tnr2melJpv2ozd+EB9JVJJF8QPolWpbAUq5P0SwwpehOvJv2r4LGIbdVq+K2N9bq//v687Mbf0g9t2mjpeHnLctPpH8b/zLLMENXkETyqdpd1VafrL71/1KnP/9F+itHbb3wb5evXTO3lIO9asM3SYUAvQYu3vrb6q07stb1pStHIvmgWIrqJRlvqNIy3tpsDeGXv78XkNdaQ/j18/O//25JDqvVf9ycfmzrb18+vmP7+g501UgkH5XFMucqgJ7IeuERwmdzsNd//dWCEoB+nsG+aWPaDvgOulokko8rLf2tJ5cufTd7zZpPq7kQvhIhfK4NdEsd/NHmTRaaNEMi+boylr478stV8V8xyG298PMvfP998iFbCJ+Rv+XHZVN+2bSMQngSyde1enViT0D+DVerI4T/rAigszC+9pefM89nbVsXRleJRPIDff99UjtAngHXsTb7hg0L97NaffOm9PNbf/3y+PasdeF0lUgkP9G6tXPfA+gX1q+bV/fD96l/MNi3/LQ0L2vb2t8A+wi6QiSS38Ce+Ch87qv1nx3nOuUqEMIXAvRseChdIRLJT7R27dyRgD3nu2+XZHFj6/lbt64+uj1r/fdZWevupCtEIvmJ1q+e2+fr9Qt+RgjPxtbrf/pxaXHWtnWo2devz8paH0BXiETyI238IXUDA33TxjQWwp8A6A1wOmDvQ1eHRPIjAfRNDPbNm9LLt21dc8QK+/avPtm583/X09UhkfwK9tQUtvDlp80ZBQC9fOeO/+Xv3fP9qwcObKbcciSSn8G+ALBX/vrLqj2sVt+ze0PRweyfZh869DPBTiL5WRg/e/OmtIrtWWtP79j+Vdm+vT+cPXTw508IdhLJz7Rxo+XxLT8t28dqdRbCZx/4KQewxxHsJJKfafPmpY9mbVubDdhr9+zaUHjo4JYygp1E8kNt3bru7wC9goXw+/dtygboDYcP/fJJTs5v1BtPIvmTsrLWP85g37nj68qD2VtOA/SyY8ey5uTl/U6wk0h+CPuFPbu+PY5avfbokW2nT+fujzuXd4hyz5FI/gf7V6UHft+8k8H+x7GdBWfPHFoO2Gm6LInkT9q+fX2fXTs3fAvQy48c/jU/99Tvx87lHV5PsJNIfqijR7ddd+jgln/mHN2++uyZw7sA+6azeYfpQW4kkr+qsDCnU/7ZI0MA+z8Bez+6IiQSiUQikUgkEolEIpFIJBJJkBJmTr0iIXZau4QYc0ced4h/YXq7T2OjL3F87LT2TrZvsj+3Txsvnm+bBIfPZ+dzyfnFmNn7HYScn+3/M7edGzO5DZUGkn/DHjutU0KsORoFP4HHH8fHRD+REBs9w97xseb/4L14J/vY+zVuHx2OExAfG30z4LrqMs/3Fpzvv+w/B+cTc8n5xUTHAPiPBZzfR7b/zzwJv6vx++1xMebuMIFP8kPYY6LvQiHPB4gNzexC+Gt81kvwMAB284evzGgr8lw7Yd9HcZzSZji/Mhw7Cz/fwc3DgAjiaiodJD+r2c0TUMC3wYfgYhFwnINPOrhSwH51gOoYfi6Ii42OinvBfL1w2M3XoOZ+Dvv+Ch+GC6zH8z74pwH8S/g8mg1J8qs2+40IW4ejcEeikP8Nfh/eBdc4AYHVqh9gn+mAdZK98fqT8P/BifD38AkXQNVagY2JZmG4CufR3t25ol3dDmF8b3x2MD7PiP0ewjE+tMHp9HPe5c7J3m/Cy+ADLvZjN640fBbNiCT5p+Ji0WaNNY9Em/cgPwTm/8XNjL4VIbjzY8SYe8FoHpgjsP0c/NzPwc0HVRXA3YzPHAOLbivjc66LY5/Bc2y8dxI3kWt4bnBX4f07cKMZifN7Bb8fcXJu5fA89v9QySD5pVhbGgBm8IXIKPjJsKBsPKiJ28bHTMPNI/pu7PM29i9xGtrHRh9Hm3yMJ+eLfeW8sMdGb4Xbuji/Ngkx064G8JOxfbaTczuKm9X9VCpI/lvDx5if4QvlxcBud/Nog306w6MAzgkX7exjCTOnKcQOg2G/W5zA/qsr2P/c39wetbyZfb6TG9GniAauo1JB8lfYn/QW7Pb6eNb0W7H/dyx85wGrHnD+khAzdVBLws7V8qjhoxc5aW6w872HSgWJYBdZy38yM1qBGn6Dkxr+AhsjRzv86paE3dZfEf00N8rgeKyDqPn1VCpIBLtIoRZF2Gzt/XfSCRi9H3BFtDjsMeaJrO+Ar3mB44yhUkEi2D0QjnUt/LqTsf1qwD43ISa6ZwvDbsJ+OTzH2o7jDKVSQSLYPf2M2OhAHHOz09o91qyXCOyZaFb0p1IhMUWpFJ2ilPLbowb36URXQ+Kwx5g7wnOs7fSmgOGzzc8i5O/UUrAjmngc++U1HWs3zwLsHXl3Gh8c0DZKK+8UpZF3jdIoukepFQb8TMDf/7ikYGqxnUZ2dZQ6QIn35sBfYbv9UVrFRuz/BfbD6yi8g/s0GYrAvrCsPXwjjhGFfb7A/pvw8yy8Fr/HjdfIg/GzMwDwysT+KGVAG5Na1smkGtTTqJaPM6oUs00axRqTRn4APwvhk/CPcJxJrQjH69cZNbKOfOfv8nPwv5k0snZGtaKTSS3vit9vx3Gm4bjpRo18od12bfAZnXAN+uJ8nsG2m7BNEVzC/fwV2z8L944KGtDW4/97cJ8rTOqAdiatvAu+k0E43gz8Hm/SKtbj83+CN+L3Vfj5jkkrC8F7PYwaxZW47u14/rd2+H+6mYL6CxrKMWoV7XHsrvgf8bmyZ3HsRfj7J/gMXAj/gs9dhveewTYD8XcXVq58AXYOVL2LmWwW+LaWgB3bs+E3NnuwwmHYbS3+334OX6KsG8C8DaDJAGoEPBugATrFebzWANfB87jCA8gVPbFNGLyBe5/PpdhuTpRqUF97YKLu7dsOr9+BfR/FNjtd7F+Ec4iPUssHskLmcWFnNxaNrAtgUsIM8INwg3vLTwKMF02qAAVuFJ3cANXWqJJfj/364UZxN/a9H7C/jd+/x2uljcfEaxusEOAmgm3k8Kt4PdfNufxuUslC8Bmir0GkWtbGqA64AYBGAqSlcBncAFfDFdzvDpafBexL8LlR+PsueIDVGoUC7+GmJd9m1Mofc/O5HXDtbsF+U+E1cDn/Z11idm7p+Iww3JSvEXuTbQ3YUXNfg+Oynvl6ntl6W+G7mhv2hJlT22H7MfBuh+m8Wfhfw3mAkL8OuL6BTzoBrwSAvgRwUDvIRuD3BXit3AWojS4HsItR+/exfo5adj3gHY/XvxWwL3MV9k+GB6Gm8eiOH6lS3ArIn0VhPcDBUw0fhbfAX3O1+W44nwe0GhTu37D/JBynm9MaTB1wO0B+B9tvA+AlzsDFNt+alIO64ZiT8Pcm7lzc33jUivMAfqTY/x3gKAHdfEBUBNfBx+Gv8PrnAPpj2++KbLjKCYDF8B7OZ7ljXADs05xGEaqAq3HssfiM1XaQF8BZMIsivoe3wafgGp7PxM1P/gqA78sXXUgJdhus5gVOxt3P4b1hzQW7dbLPzOhu+IwQbLfS7v9l02TX4/+McFL7KVbCp1xAVwYn4abwNH7u5mp6Vuv/zHkbfJp73XHfAmsNr5GHw+/aRQuV8DH4AHyU+9sJ8Iq3cZPoKvaLAFwaOAnAVHDgnEJBWgAAJqBQyqI0AT1MStlAgDwS7z0Pf2dfE9v5EI4zAzUW73pmHE/D3Tiq3ICbhRvHC/h5zO61cq52P+div3oAvxnneZsI0IMBzo8cQHXsswHhg5FaxbUcmG2MqoHXAlwjtl0lsPZlPorrwNvhg+YGu5G9gG32cdsymDchnP8PPleDyuIOfI+3obmAm5DiIbw3n4O+3uEzCtn3hOZHb3YDkTLsAO0FF1Np9Z7Cbh1GizFPRHs7PCHGrG00wvVQNgUWkD+Ibdg03h12/+tBvP4+/sc+LkJd2R0AcQrAiodZu7vWATgG8TnOu+D3AeB0wK/hPAz7T8PradYooCmwuRzUFVb4tfJU+J/4PQr7jcFPI36yG8kqJ8DjRiQfJBL0oSjg39hqZyswZwDlrEiN7AYn4X5HvH8PCuEXToDfDeDGobbpyNOx1hWfNwLb/AdGO1hR6QRaVusXwGX4nB9QoOfAj2PfifBU3Ahew3u/Oanx0Y6X/1vQ/66RawHMBri2EVC8NpX9j7xNELXsHg74agfo2P4ldiH/HhznISe1eiec38tcLW4D3dYnMgSf28HJNUfTR2bmIg7Hm8oF7PsR3u8gadhjzNE49nknC28mu1sR5wL2Bm7lHesT+MXOLFz/A87niQb2sck1LmG/2OGmlfUExOGA6xfeNrhWsRDQDcd217IOJsdCg/f6WsNuVhvzQ4s2vtyENvRt2L69w/7t8d4A22fw7AtQRbRVb0VBs9jVtJWAaTFA7yHgJtGHiwYca+laeB18u4tr2Bn73gNon2Q3F94aWiP/He8/hu3uNKoGdWPX7WIIrBzY1cRuUmpFCg/wrHb+KkoZcJOb7/EqgPKFXWiO2lWejmvSzWWfg7WGVxx0AK6chfz4GQ5HooZWm4L68/ZfsJsWtjlvt+8+nG8kboTt3fR3tDeqEWlp5QU8wJfivCZLHPbhOHauE9j/xebVXwbsYs3+51PwD4gA3oiPnSZzN/wD6BSvO9TQtbgJZESpAm5x11sapRqEKEFxmAfYnwCsFkC3c15QFcwDbTeFJrBvEdj73AEw/Zvr0W4E5XSkWi54FpFJGdAXhXcfD6wVOHY0gOvgqvfbqJL3Asyf8+yPkF0WjP07u7j+7aJU8ruw7Xqe/XfhhjXUTQ94pAO0+aiN/+n2BqlVdMG2ax1gY230dwV0grJOvB0O4fhihOuCJpZEqQfhs+Uv8TYbNGgiDu7TRcKw3+N87bv5CdTsnTyFHbX0Nm7125+OMe+zTtxxDX29NXuNNVGGeSLa9x1cfHmKGLjwkp5xrSJWSPuJtQWtYX5T2DMB+u1u9w/s1w5g38/T/q+MCrzjGvc1s1yJArLZAZJ9qNkEd/aw/wHtYzNXm17ayaaRb4S7uxnmQw0tj+XpoNvqGBE5GybEts9xQ4L2x8jFZz/i6rwBzX+tIfCfwJxG7ThJYPg/k+vMswduCW5APVzcnNriMxOxXaXdPmdx03lCyP/aOGKC7ftxTQ9H4Etwg5vim7BHh7GkmB520DG4r4K7XOIYcxe8f3X8zGlD8PeT8G8c2HVOoC9iY/4JsVOv4l3HzwM7+/0FwbCoZToe2FcAdkEdTIgMVNj+iMP+NSgUGjdRSTvUyA87tLnrAM580T3ZGnknJ7U7A76/ANhjeGDfILzPQT4K++xxOEYBjvGs88/t3xXgzXfsUDNpA4KEjYvLJ3Nj4Pb7p+O63+z0OqkVbHx8i8M+u3EsUaMHrF2Pc3+Yp9+gBjeCxT4Ku8cddEKH3ubGTL4yPsZ8nzV0v3Sc/ZJUVXEzoyfHzYru6H3YtQE9Lwt2rSIA/l4s7ACsh3VSjENb2yiwY8sBtvY43kv8Q2jyJ5oddpVMxnX22R+jEjegN1xcdza2neE4lIWacfxlwL4gytWwo0Y+HducdNhnI85F9HPjjBrFMOy7n6d2347jdZMo7COctNlZD/3I5ob94ni7LQNumotcejsSYqf1bQbY0e5sCvt6+A5h+8vvwLZfioUdBY8B8oPjWDngnCF6Mo5K0Qa11kgn4+ULmxt2HKMf9tnI8/mfiIQ9HzXjUx7CzkLz11wP8Sle55mg8xXraRc/L0DWF7V7Bg/sh40aWbBEx9kf57LPOsL1M2C9s6Vg54AfxOXP42/Lx5gfbynYcXdWyJsVdrUiCLWDY+hdbVTJQzz5InG8frax+SbQfue6VpZ3w43ijVaAvYetY+wSUFhYvIh1XAposz/Fbg52+55kY/OuRh+4sXJHOJd5cr1xvCu5m4fj8U7gRjReirADyNe4NrMjXIvwWb1bEnYr8LHTxvLP6LN2GH7XUrCz8fu7mhN2hLhsbP00D+zhHsGukd9qtI17O06l3e2mCdCDG75radjb4/337MbXG70lElGP+34KRaLDbLrNJo2sv4vPu9E2xdU7sHORwvM8xzsJ2CdKDfYPX5nRia0qc5IhJvaTWdFXtjTsaMOzFFrHnWXXbQbY5WzMPa8VYB8Bn+cJ4x/3rGaX9wLwGTzQbnazH1tsk9LSsHNDbw9xs9LsYSlAeByD2r2ji6E3Ng/+Z4chu2ddrUvAe7diu+U8cH6NZlAvz26wike4RTKShz0u1sySRWbxQJULUMezKa0tDTv3/6c6C+Wbo2Zvy02hbVHYAZMKPtikg06teMdD2FFDy5eIhbY1YY/Syq4HHF9yY+T2wPwBT0e7uIv9kJh19Z1yYHfcDN6xWyhTAegWmgL7dXMTdvfmFtg4wr4Z7w306JprFZN5blYHcLw7pQQ7Axlh8d94OufqrTnbY823CzlOM8H+bgvC3jo1O2AKNDYdrqo3qeVfNc5UE6NIjew61G6f8UD7qVRh5zraDABkF8+c82JA/RE8BL8H4Ccb21YhGnrPrjYtxjVcJGQiC4sUsH0Cz+dk4xzGeQj7FOtimEuPty9KM6i/lGBHiH49jpnOA9RZ3AQeFd7B1yywP9KCYXzrtNkB5h3wSh5AcozKgNtFFzy1/EYAuqYJtCqFWcqwc9BMAiR7nSxjLeAWq2zmanxuaqxiO67fa6ag/tcIPU+cz4t2EcHFZgOO85wnN1jceB7l5uPbz+L7RkxCj+aGneWh43K+HWqSkio2enlCTHTfVob9QyfHXOs3sEeqAtiqq9k8gOQDtL97UPD6Yt8jjhNbTGqFQuqwcze/cVzv/HEnK9jYqrRj1qWuGpbMw7popaPITswJtok7TW4oaZFq55NxnAx3dsK+rzocqwI3rldEFvbmzUEXM20Aau/lDh1z9dyqM1ERTdzM6f28DTvOIdPJ0Ns//AZ2VpMAxAe51WUO69IVGdi/qzjYFYO4Jaj2wKbCV/kC7Nb2uFZ+A4B5mpv4Um2bwy6fC7PQ/e8I2SMBrBygXelJwTJqZAO47DNNx8a18rEiO+du4hbx2B+nyKSVaUUOh73L10PuDdhxnO7wLJ5kkyyN9EzWGy7yXEP5wYw+AHvSG38N34o4NssvIdbcdOVolEb+ssNCGJ+A3Va7K4J45sYzH4cfENxeVynaAs5HmsxgU8nvQ5OgnSewm9TCFvN4GfY7AUwqFxp/C6BGA55eeO9ab7Rd2TRX1LxvsBVqTae5yudGamQ3iogSgqypquyOY7SuqQjoJBKgRbxzxWOiv4Vv8vR/ZY9dTrA9dvkUD0yzhWaUdYhCJjhpX7Opr+08ON7DvA96jDG/gBq/Cx+snzksRPEl2DtaM5041MjcEtXVeF9QLzHLIQf/6jAnfoFRLbvR3YIgp7CjOdGiYbxW/iQXwnOLVFiNLvP6g/5wTA3XHHBcsXYW38VEZ+vZHW4aHbm58ZV2+5eZ1MJ74d3BjtfPw/0vA/bpTtauv4/3rvHkmC5gb0iYOXWgyGOxKbO/8xwrIyHGfEeTR1OxcVWAtdgBtGJ4ltC8YNaMJE1hz4bvFgh7P2y7hgf24YJqZbUsgEtcUdd0iariE/jWSBdprtgyX4D+uG39+cW15JvxmpLldRPQsdeLJZjkAbVM8DVUBgzgUlc5HiPB3Qo+/H+sp30DT7qpvSa17H4A2Avvd8fN4Cq4S2RwQEdjcEB7oavU+CII1MCzeLPdaORHAKwuSiXv6OKmxCIQBctqY5+TDsd8PlIjby+ywLPki985m0WG9y1xseYeQh6zjG3astowIXaaHDVjhkP6qVq8djo+dtoMvN8FsHt0A8G5POF8qao5Ie4F1+vhbUOA0Z1xDvfE2RbD1Do8ujkV59YfbmP/hbUdjy8foI0AWFt4YF0dpZb1H69x/qWxO/h4reI6NAMe49kf0YF8Avbv4Sx5IiC7Ikqt6IZtI7j0V5dmy9HIE9gyWRyjm7ueXoA5nsstV8fTdl7BMsvAvZq0+TXyG022fYvs2vtZ2Ha0kNoJ2/XE9qHwYd717KoAJba5ji/jDdfJiBuN7Hru/H/nOcZPiDDC8f7NJpXiar7su9y01/MuUkvtB1xrANln8HvwE/ibZYzR4fhq/GTJJe/A6zfhxtJVSK86G6pDEyGDN5+dRs7ScD2IY97GOuEcrhlLthEIr3RYIvvvSK3rvhF7fRob3RGQ94YnuXnmOWp489dsnTfguAfb9wGwN6I9ew2O0Q3ujlrwNrwuwzYskeM7Dser49rEX8XNjA4FbKJDbXzGlfEvmHvhZhGAc9ni4lxLcHOKwbncCeOczNdx59gt/oXp1+M8ce7RSvi/Divv6q1ppWPMiYB8gGPYPQgQTcLPFznQa/hhteaqewrQjQOUN/zZxpd1x2vD8d7fbGvZ5cedZKphoXwctn0QVl1yDmprlhwj/BqX+oo/gSVLNa3FNiw8VMv7u8qEwgHzm5MUUSzpJBtDnwiHwOFoU5tRMBfh9+LGSAAFeB1qaqO7ueXY9k7476zmhfc6zyUnZ/MAPoCfBJQj0Ka9motG2uBzBrJj4PUP8XMH1/TgOw67kSTDL7FjNLlhWGG1JnisF5hXzj70ZrXz7ywyYEtLcT1i4BCjOuBad1FJlHW5qzydZyiucY7+lzj+UzAbJQiB78P2s+xy1rFt9uFzn8X/IChdNQp1V7a6DH6KS9+cLzCrS50VkJjo9YA6Cb+/lRAb/Rr8ZrwtgeMeniQR52zZZM3PAtLeHtTivbB/BPwcPnceYNzufB77JU+YOQSvwu8fcOf4Gv7+CPuv4+k/YAknf8BN4mlEJj34wuaXneSOc+bzDHi7/YO5xJO1AvdnN5N0h05BE0A/LeIcWMbbh5zVkHYh9UguRVWeE3CqueG1M3b56ho4YOcARkGLd7iltZXC0lRf7ANYi/MbxJ1nB/hVMfvbjqH40knP9t/ZAhLRsPMPz+0D8K+bVINudtVfYUtiGXALPnuO7YbRZI5+Y167c/ARuyQb9bYpsYokXIOxLKefwJ7nNqiR1S5yt3vDDB6WHYb15P+DrSzzqL0/c2oH3CSm8TzIwVs+A3+Lz3gJ53iXqzbyE1ybutFZ3JLU1U6tCVDagTqSW39uf4xvePbbyNXuB7DPvEvPQWbA61u5fffC37n8fJvdrhe2LlVVKW5BaD4dTubyxlfxp41WHAeA61Cw/4uoIETMUJ1tnJo3USWfa3EuZ1HLx5lUsltt7Wy2fl7xtEjYzwCOD5w0KboY1dbQ/HsXqaLFuAS18Aew255x3CC74TrqAe9soy19dIXzYyq2YZsFOK4J7fNbxOTHRxjbEQX7aW9Cg9D+RJytVv+Sdbyx2XCAPASh/k3uss64GfvugePFee9czWfjbMknV+D3t1DTT8W1uBvu4KatyYZiFEo732NL/sg6ypxYOaCzHezdWefbJcdgud6b7KeQw0Hc+/0cCufVeP1ebv9AWwILF59vs+A2HcsbZ1LJbwHIKpMtk+tz8POcAZn8PryuRUEdYFQN7CI2hTFuDizJJWvzhgmwHp81DOfTF+fV8eJNCU0jgftbzTLo4nydzgw0BfVnIxM6a5Ry+bBbp9KirKgFD19qFd3ZGL4tZGdJLnCtG217Mk0oQL8H23k0HIaC3RZmk1LCRDocgLCJN8/D0+3fA9jB1ue4xZj74WZyHZst540RCxybrZC7y815meHJwv4H8zCc57043764EXXHeba7gsRb23eIUsquBGg2qwI6X85TZyT7fwb17wmoLFzNylJpx5vUMj1eC7j4pBer5cPx3t+MWvmb1iW9TRfR/DnurZHP9+hctAEd2Hr1i1YP7HA5T325HKGGbgNA2FLQK+EOUvm+2Lmw0QQilCQOLEQp1qfZ2NrcP6D2ZE+HaWdUDmzjGLVYh840sjaAvS1gb29iz2bTKpbwdrRpFMfoCpNIEhAbrkJNzUYhsrkaehteC/LgON0A/Ms87e18usokUuuD3h2Asl74HLtFJA97ejzsGwj/6rh8la40idTKoTtAZCvQDl3SoeYi57t72OU3Oy5MAfyf0dUmkVqzVtfIbkL4vsBxxdhl3kB64JgJDrPh7qerTSK1olALD+Sehe4wVCY+pbPdMW+xz1ZrZI931ihuoKtNIrVuzd4PcGY2Tfwgn+7pMVGLD2fr0u164h81qRU0NEQitWqb/d6+HQDn/3FDbZckkQCgQZFq4Y8+ZvP0I1ka7T/b61W4acyHe7LFSiQSqbVDeY18JMsj1+RJrBprbrlJJgaru6fwsnXlGvnd1gk43HPSAX06PICuMIkkldpdpbiarYSz5YlvMvvtlLWzTSOfjBpayZ6aGhkccIPVWtnNeG0QtmE3iyfg37h9zmM71OiKO+nqkkjSa7v3Mdp60EudTHkt4J66ugLwf2GztRNuDbfUtIqbjMNSUT8XqVX0pqtKIkk1nNfK2QMSY+BcDxa75CCE/wS1+XD2LDe6miSS1EN6bcDVgD0YfpF7rFOJC8CLjCzfnVb+HCDXRqplPekKkki+BTxLBtkFAN/AHtAYpZGFGTWyh1HzvwW/H6WVTYbHmtSyAYC9F7bp7GkeOpJv6P8Be4IG54ZeBpEAAAAldEVYdGRhdGU6Y3JlYXRlADIwMjEtMDQtMjNUMDg6NDQ6MDMrMDA6MDDd8THtAAAAJXRFWHRkYXRlOm1vZGlmeQAyMDIxLTA0LTIzVDA4OjQ0OjAzKzAwOjAwrKyJUQAAAABJRU5ErkJggg==;" vertex="1" parent="1">
          <mxGeometry x="17.939999999999998" y="160" width="68.63" height="70" as="geometry" />
        </mxCell>
        <mxCell id="SxAMXVoo2cSi_DEeGkWg-14" value="" style="shape=image;verticalLabelPosition=bottom;labelBackgroundColor=default;verticalAlign=top;aspect=fixed;imageAspect=0;image=data:image/png,iVBORw0KGgoAAAANSUhEUgAAAPsAAAEACAYAAAB1UADIAAAABGdBTUEAALGPC/xhBQAAACBjSFJNAAB6JgAAgIQAAPoAAACA6AAAdTAAAOpgAAA6mAAAF3CculE8AAAAB3RJTUUH5QQXCCwDHDiC2wAAAAZiS0dEAAAAAAAA+UO7fwAAOmlJREFUeNrtnQd8U+X6x2UjKDgABw6Q1SQObLPKDG1SaKFJUUBGiqj3qle9evXvvbZw3Sju1VYKomW0TVtGQZZecQCKA8pGKKsgUCjQXbrH//cmpxjSk+SckLYn8fl9Pr9P2+Sck9OT93ve513PueIK0l9KM1aaBszIjOpAV4JE8nfYVxlfhmV0JUgkf4f9S2OKOTNiFl0JEsmfQc+M6jpjlemnB5aFrTYkqQbRFSGR/LZWjwye8aUpZ9JSw+awhZoP6YqQSH7bXjfNAexlgP1nwP47avdAuiokkj9BvjaKdczpAPpOuH7KsjFbAXs5/FFYkroNXSESyT/a6W1mrI7qA8hXwA3M5pVjfwfoDfBhwD5elzSYgCeRfB70laYbEL6/AcgL7WA/wsFeY1ioXqBPUvagq0Ui+S7obAJNL4A+G4AXNILOPH1lZAUHO/NBAG9E7d6WrhqJ5Iuwr4zqBtDfsq/RL8K+KrLBDvbasIXqJfBtdNVIJN+r1TtzoBc7gm6D3Vg/epG20g74QtTujyCc70xXj0TyLdDf5KvRG/3gKmNdRPKwHDvYmXcYFqrupM46EknqkLPhtbVRvQH6YgBd6gx0DvbasSnDsx1gr0Movwq+iq4miSRd0NvOWB01ACCnwTWuQHcBu9WGJM0CQ5KqK11VEkmSoJsCADGr0avdge4OdrjCkKT+D4C/jq4uiSQd0NmEmYEAeJFQ0AXAzpyPcD4WwPekq0wiSQH2NVG3Ad5UMaALhJ35pGGh+kkK6Umk1q/Vb5qxymQRC7oI2OsA+37YDOC70BUnkVoPdFajV4oF3Qr7l8aa8WmjdriBvRH4w/AkAN+JrjyJ1IKanDnm+ikrw98DsEWegM655r60kG0CYGeuB+yn4SgA356+ARKpBfTAitFdJq0IexU/S6aujNgpZJjNC7DbhuQWqsvgSJpDTyI1syZlhnUC5JPhw3ADavg81O7lLQU7B/xe/UJVMIBvR98IidQ8oXtb1OgqQP4DA73R0asiD7Uk7Fwb/hf9QvUw+lZIpOao1VeE9YKXAPAae9inrgzf28KwM1fBawwLNffQN0MiebOdvnx0R5i108vsQedC+RIPO+ouB3bmC/CisCR1f/qGSCQvaeJygxFgFziCzrk2etW43a0AO3Mp/CaAv56+JRLpMhSVqbtiYqZBhvD9gBPQmeumrYzIYUkkWwF21mFXAD9uSFJdqUsaTF8aieRRjb7C0Bugr2G1twvYWShfhVD+TGvAzgF/wrBQFa5fqKQhORLJg9D9GrTT32Lj6a5At8K+YnR59Mpxh1oLds67EM4r6JsjkcSAnmm4EjX6gwA5xx3oje32qZkRLCuNmDH3mgkZ+iwvws68HOH8NfQNkkjC2untAHoIAP6VtccFwt4wJXNM4YOrjH+IgL0WkcNeL8POMtb+G233jvRNkkhuNGm5oe8DK8LSAHC1UNBtofyYUoTyeWJgn7x8dLaXYa+3paXWjKNvkkRyVasv1V05fumov01Yrj8tBvSLvfK2UL6kFWG3PnSCTbhB+70ffaMkEo8i03VXmDJ0/eGs8UtDz0xaMfqMWOCnZIbnIpQ/1cqwM5cbFqo/GJ2kpfY7ieQoY7quA/y6KWNUQ1TGqLyJywyiYZ+8YvQFhPIsT3xdK8POfBrh/AxDkqoDfbskkj3sGboBpnRdPoMdrrl/mb5YbLudGaF87oNfGoslADus/haw30V56EmkxrZ6Jmr1DN1cDnSrEcofm7Q8LF98KD/mFEL5ImnArqlGOP8KgO9G3zKJZKvVRwDwc/awI5Q/P3G5ocyDjrpKhPL5ApJatATszMcBe4g+iWbXkahW72TK0KWw0N0edrgWofwpBq8HofxBwHxBIrAzfwPTM+RIf/mOuSkA+6QD6LZQPiPkAEL5UtGh/IoxpxHKV0oI9uqwJPVj9G2T/rIypel6Auo1cD0f7KjxyyYuD6vyIJSvRyh/3E2vfEvCzhbLHBqdpKFHQpP+guH7UutQ22OAOpcfdJsRyu91zE4jxFMzI3a7abe3KOzW7DZJ6g/HJGkpOy3pL1arZ+juBMzfuALd1lEXcnLSCvG1++QV1rnypRKCnfkwrKFvn/RXqtU7A/Z/AuZCd7AzT1xuOO5BKN+AUH6fxGCvNCzUfK5PUnanUkD6a9Tq6bq7AfFPQkC3hfKh2z2BfWpm+EGJwc58CO13E5UCkt8rMkPX1ZihewEQVwmFHaF8EUL5Cg9C+XKE8mclBnt12EL1YkOS6hYqDSS/1ri04b0j00d+KxT0xjH3ScvD9nlQu7NklDudwF43dXnEqVaAnfkY1e4kv1ZEypC2EalDHxhrGXbOmD4yRwzs9y0LZbDXi132ilD+jLMhuGmZEfWtBDt7dlycnp79TvJXhVuGdoa/jbAMKx6XNuI4IK4THMovDalBKF/oQShf4SyDDWBvaCXYbdNoF2oMNI2W5J81u2XowIjUYeWAvWFs2vBCY7quQHi7fdSFicsN+z0I5cvNK8fmSBB2NtHmU/g6Khkkf4T9ZQY65zy03c+ICOWrEcqf8WCCTd2UzHCWvaZYarDDuYBdY0hS0RJYkv9ojEXbHYDvsIO9EqE8G2evFgr8+KUhpQjlxSe1yByTP31VZI4EYW8IS1K/DVOCC5IftddTh4YB8BI72Fkof8KYISqUL0Aon+NhKF8oSdgXas6EJgX1oBJC8p8QPnVoIgCvtocdPmNMH1ksslf+ggcZbOqnrow4++CXxnMShL1Bn6R5kEoIyT9ATxnSH2DvdQCduR6h/DkxE2wQyp9GKJ/rQSh/GqH8aSnCDmfpk5S0QIbkFyH80wD7PA/szNkI5UtFhPL5E5Ybznow5l6NUL7UfiWchGAvMSSpDFRSSD4OenD3iNRhywB1nRPYC4zpVtjrRcyVZ+Pt5aLnyq+MOIZQvkCCsNeEJWmWjEnSdqISQ/LdEN4yRO8khL9ohPJHWHtcRCjvUTJKhPJ5COVLJQg7c7YhSXM3lRiST0qXObh9hGXoiwC6zBXs8AGeHHSuXIpQvkTMs+Aa58qbV41j7fYqCcKeb1io/heVGpJvhvBpwbcD9mVuQGcuj/wzZ7zAUF5/zLNQPnw/QvkyCcJeC6cjlL+KSg7J5zQGIXy4Zeg+AbA3jE0bsV0M7AjlD05aEeZJqumiB1cZayQIO/POsCT1cCo5JJ/SKIu2qz5F+/Lo1OA8x8k0vE4dliNmYQzr0Ju43FDkQa98A0L5vWw9uwRhL4NnGZJUtDiG5DsypGj7wsvDUrQnwlOHFgio3esi00f+ITKU3+lJMsopmeH7JQh7tRX2JPUiwxfK3lSCSD4jfYpmCHwUwFePSR1SBJhr3ME+Nm34PjGwR2WMOoFQvtKDUL6CDcFNyxxbN3qhtqoVoC6AzwLsc4YkdYHhC3W9/nNVsX6B6oj+M+WG0PlBIVSCSD5Sq6vaG1I0kxnocMPolOBswFzqBvb6CMvwIlO6rkQM8Ajlj3mSnw6h/HbzynGV4YuH5DZf6mhNPnwSQB8H0HmGz9VlALoCPgnnAOxj+vnKU6HzlPVwA+eKkHlBz+rmD6Yxd5IP1OrJmm6A/S0GOue8cMvQSmG98iMOigvlPUtGOSVzzB+AvTAieViOF8AuNCRpjgHqbMMXqiOGz1XnAXO1/jNVIXwmdL4yFz4PkMvtoHblxQCectSRfKK9fgu82Q72WoTyOYC51g3slWPTRpwSF8qHFHuSjJI9Q25qZsROsbAD6KPwHkC9F0CfAMzlcGXofFUxgC6AC0VA7cy/w2oqSSRfgF0GV9rBzkL5XTyr3pqE8mMtw0sQyp8XmYxyryePiMJ+heFLhuQ4yRHH2tKAWv0r2tO7APQfALkGBthWmJmr4LrLBJvPNajZzbq5g2mdO0nCIfwSbTt9svYRe9CZ9SmaUoTyVQJC+YJx6SOOilz2ut+TITj20MhxKcN2oqbORXt6O6D+Be3oPQCtmIOunoO53qFd3ezGOXwRMi+Q1rmTJN1e72BI1n7sCDszQvkdAmCv4jLY1IhMRlngCewRi4bubUmIRfhIyDxlPypRJOmG8MnaTgD7az7Yw1K02YJm01mGnzOm6842dzJKicPeEJqoHKGfq6T8dCTJttevhE/ywQ5XIJTPEwD8+cj0kWdFJqM8K3aCjeRhn6ecCeApqQVJqrCr+zsBvbFXfqcA2KsRyrOFMZUi5sqXiE1GKXXYEcavg2m8nSTZmv1+F7DXI5TPExbKDztmFLESjiWjnCBygo0P1OzFoxZQJx1JsrBrXncBO/OF8NShRwUAn49QvkxEKF+HUL5cTDJKH4C9QZ+opFVwJMnW7GvdwF6OUF5QRx1C+ZOAuEJEKJ+LUP6UP8GOMP5lKlUkqcK+1w3sdWGpwWyevJDps4eMGboykckozwkdc/cF2EMTg1ZQqSJJEHRVN8B8zg3sbAiuAKF8jgDYS43pI4tEJqNk4+0X/KZmTww6QCWLJDnpkzV3AuYCd7DDZQjl84SF8sP3i5lgg1A+R2gySp+o2ecpz+vnKm+i0kWSFuwp2vsAcokA2FkozxJaFLmDPdwy7KiYzLNcMspSIckofQT2EoTyEVS6SFLriX+G9bYLgJ2F8qcRyp8SMn0WoXyuyAw2OUKSUfoI7GUh85QPU+kiSa1zLg6uEgI765UfnRpcKCCDTcPYtGFbPUhGecFPYK8C7B9T6SJJrWZPA8Q1AmFvAOw5Lh4LZe88kXnlGxDKF7rrlfcR2KsB+xdUukhSq9l/Ewr6xQw2qUMLbSmp3CSjTBt5SGQGG7fJKH0EdubfqHSRJCOdRdsZ8G4TCTtb9nqWtcvdwF471tYrLyYZ5Ul3ySh9CPYs3fzB9PAIkjQUmqztI2BCDV8ony3g8VCeJqPM8RPY94UkBg6gUkaShPRLtArAu18s7HBxuGVomYBQ3uvJKH0I9v36uUoFlTKSNGBP1oQC3BwPYG8YY7HOlXfXK181Nm1ErshQvhShfLkfwH44ZG7gUCplJGnAnqKd4CJphbsx970CYPc0GeUeP4D9ZMg85f1UykhSgZ09FOKUJ7AzI5QvaKZklAecDcH5GOwTqZSRJCFDsvZfgDbfU9jHpA7JaqZklNUI5fMJdhLJW7CnaF8ROC/eWSj/h6DZdOKTUZZNXG444OOw5wL2KVTKSH4BO1scg1D+mMBklOdEJqM8xzfBxodgzwfs/6JSRvIX2Fkyyl0CYK/hklFWiExGedqHYS8B7K9QKSP5C+z1YSnBpUIeAOmtZJQEO4nkGewvXybsrN1eDtiF5KcrQCh/wYNklFUEO4l0mdKnaCd6Os5u/xCJ0anBRwXMpmPJKE9cbjJKH4K9CLDPpFJG8ifYG8JSg9lTY4oEJqO8IDKUP28/5k5DbyRSa8LOklFaBOWVL/MgGWW+fTJKwF42bsnwAwQ7iSQO9gjAevxyYbeF8kPy2bJWAckof7/MZJTlppSROQQ7iSQG9mRtIEDN9gLsbNlrvpAMNuGWYTkik1GWOSSjJNhJJNGwe77ElS+UPxOeOjRXyAMgjWkjT4lMRnnELhklwU4iiZUhReVR8gpns+kQyl8QmIxym6hlr0tDDtklo/QV2A+FzgvSUikjSQh40TnovJGMks2TrxaZjLKA65X3FdgpeQVJcrBvZjPhvAT8WYTyRQKTUR70MBmlr8C+V5+ovINKGElKPfIWMamkBSx7zROYjPKAyAw2p7hklL4C+zZd0uCOVMJIUqrZZ8OV3oI9THgyymJTuq5YZDLKoz4EO6WSJkmuZn9C6OOfBLpUYDLKC2KTUd63TL+bTbAxpow8JHHQa0PmKdOpdJGkBXuydgQALfIi7CwZ5X6ByShPiwvlQ0onLNNnRSwZmi31xz+FJgZ9QKWLJCmNStX2BqDnvQl7WIp2n8AMNiXGdJ2YpBbMJeFLhh2VOOwXULM/RqWLJMFQXvO7N2HnklGeF5iMMkck7OWAXept9qLQeUGURpokyU66xd6GXWQySuFj7umjLoQvHnpY6impdPMH96aSRZJizf4Pb8OOUP4EmxorIJQ/KyYZJbYtHZ0ULPUlrtlUqkiSVGiKOtDbsHPJKHMEJqM871+wB2VQqSJJE/Ylqm6GZM0pL8PeLMkofQH2kHnK2VSqSBJts2s6wcu9DDtLRlmG2r1CAPA5QpNRShj2/JDEoMMhiYEHR80LHEWliiTNmj1V3Q7t9meaod1+QWAyykKE8mUShL0ermOTZDjXWWvuxKAjoz4N2jbq08BfR8UH7dXFB52H6+BaOF/3aeDVVKpIkpQuaXAbfbI6yMsz6RqTUeYITEb5h5BQvhlhr4HLQxOVZTD7WRMyN6hk1NzAfbqEoF/gXQD5OFwJN7iwBaY58SRJ98jfBDjXeb12tyWjLBRQux8WkozSC7AD6qBSwFwQkshCb2VxyFxlHcAuQE2dPSohcA/APqiLDywCtPVuwG7qhMAn4XZUokgShl3bFXDOaoZQvkBgrzxLRlnoLhmlSNhRSwflIew+BaDPwMWj5gZVAuo8QH0UQB8GoKdEA+3c5QBdq5s7uA2VKJJ0Q3mLti2Aj/T2PHm2om506pACIckox9qSUdZ6BHti0DlAfQw19NGQT4NOoU1dDpcC6jOoqU8AxNNwkRfB5nHgb/BtVJpI0q/dkzVywPmdt2t3tNvZ1NlzApJRHhMMe6KyEGCzjrILcMOohKBSQJ3PdZYxqKubF2xef6KLC7qWShJJ8gpJ1XZD7f5mM4TypwUmo6wxpo086Q72sKTgHwE3wvCgC1wPeIMEzDru7gPs1F4n+UQo3wawRwPQQm/PpuOSUVZfbjJKBrvhC+1ObqirQUJmvfVBVIpIvhTKD2qOXnmRySjLncKepivTz9cckBjozPN1CYE3Ugki+U7tnjS4A/coZ2+PuQtNRlkbmT5ihzPYIy0jy0MT1TkSA70S4fuTug8HUwhP8i0ZkrU6wLm7GZa9ngHM7p7lXjc2bXiOj8G+RxcfGEolh+R7ofwSbXe03dO8mXVWRDJKeHiZs2WvEoSddRB+Dth7Uskh+Wrb/WEAmufl2r1MYDLKsnHpI/b7COxn4McQwrelUkPySYUsVt7QLKG8ZcjvAvLT1Yy1ZbDhg70iZK7qhIRg36hLuHcAlRiSL3fUtUHb/UW2mMWrvfIp2lOCZtNZhhUa00f+4Qj7uNQRDRIadivTxQW+rUugWp3k68BbtD0A6GGvJ6NMHZovZNkrQvkTTmCXig/oEgKVVFJIfiHU7s97fczdMmSfANhrEcqXOC57lRDsNfBiKiEk/2m7p2pv8nbtHpYazGr2CwKAP41QPleisJ9DCD+CSgjJn2r2DvDr3s5PF5465IAA2Isi00cWSRT2dboPB3egEkLyG+mXaFlHnRKAHvNqMsqUIULSVbEJNmfYfHgO9rqxySNOSgL2hMBwKh0k/6vdU9RXGVI0L3t3JVwwwnjr9Fl3wB+1S0ZZG5E8PFsCsH8H2CnPHMkfYVexcP4eQPojyxrrrQk2Y1KtY+5ua/dx6SNKuXXuUoC9BqCP0X16Lw23kfxTuqTB7fXJ6oe8+BDIKm6uvJAx9/2mDF2ZRGBfDd9EJYLk3+33ZE0fg23OfK2XQvlShPJ5Amr3XITyDPaa8CXD9rUi6Pmo1cfr5g5uT6WB5P/Ap2jvB6hHvJTBphC1+x8CYG/gJthUjV44ZFsrwp4KU4450l8E9iXa7gD1M5ZI0gvAVwP2QgHLXlkov8uUrqscnaRtLdiP6OIDJ1CtTvprAZ+qVelTNHu80VmHUD4vPHXoGQG1e8nYtOGHDZ9rtrXSMtYFuk8Ce9C3T/prddZZtO3Rfn8SsJZ7IZTPB+xC0lU1RKQOuxAyT7W/VZJTJASG6j6kfPCkv2ZnXTvAmuGF2r1+jC2vfLkA2GtDElUt3RtfpIsLnAnYaaiN9NfVqFRtH4Tz2V6o3XMErYQD7KPmqo62IOhsKe03aKdTLnjSX1sAldXu5ssdewfsxYC9mE2gcQW7MXVkGWrYihaE/SRqdcotRyJZw/kU9XWo3T++3Hx1o1ODjwNol89yn5467uCYhODiFgK9CqC/St8widTYWWd93LPmLgD7v8vslT/qrt3+lOWBrEmJ+sMtBPsaXcK9NFOORLqkdl+i7aBP1o4FtLsu5wGQ4RZru91pMsoX0/62Zcq8sJbooMvRxQeOgKlTjkRqAnyyphPC+WcuJyPt6JTgXa6SUb6a9vhPLQA7e+DDY7pP7u1E3yqJ5ESjFgV2MSRr3ga4JR6G8n+4eh7c3LTY3f/4/P4dzftwxsDXdAmDu+s+HExfKInkSoYU1U2o4Vd4ulgGofwxZ7DPS5u194Wk6dua8Smsi3UJgX3oWySRBAOvDYR/8zCU3+kM9i/SXsl9ddHju5ppOuxmOJi+PRJJbBs+RWsAvAc9COXPO3tE1JKM12vfT372sNcnzsQF7oJN9K2RSJ7U7snadvAUAHzUG8koJ1nCziRnzK6NS/lPiXdhDzwB0MeijU6r2UgkTxWarO6qT9Y8BYDPiUxGedAR9hmWyOzUjDdq51v+Wz3206HnvQR7uS7+3ofoUcsk0mVKlzT4itDFyu6GZM2/AXG+iFC+PMIytNAe9n+lTdtuyXizJintlQuT540+7B3QA/+hS7i3C31TJJKXgDekqHroUzQfiBiSa5KMclbaI9ssGXNqktNnl/7z80mXm5rqAvxfXVxQN10CDbGRSN5tw9uA/wggF4lIRnlxgs3raU/sTAPslvQ5FS8u/PuxywC9AJ6jSwjsRd8KidR8wPcE8B+ymltIMspwu2SUH6c/fyI946065neWPFOmT1BXeJQwMj7obYB+M30bJFLL1PAM+CqhySiNlpHliekzKwB6A3Ni6szCCYmhJ0QnoYgPegug96ZvgURqOeBv4EL6KiHJKCdbRp/8PP2lykbYF6W/lvfIgqgDImfHvQnQaRUbidTCsLcxpKhvcVfDI5Q/w5JRPpn2wP4lGa+XcbBXL13xfu7s1KfOGxI05QJhZzU6JYskkVoL+NBUDavhX3I2LMclo8x/Je2xI5aMOeUM9oyl75StWZ1wIH3V+6dnfG487X54Leg9gH4dXXESqRWls2iv0C28t5MhWfM04D4O1/HMlT/6QdpzJ7nOuYZly96tWLtmbvm6tYlV/01+tECfoKlykjsuVxcfOEOXMLgzYKeLTSJJAvqkwQBeOwlw73YEfnzKqNz49BeKuRC+duXKj3cD9AZmy6p3j5oXjM0dFa+sc2if/wLQ79fNHUxr0kkkSYb2ydrxAHyjPeyPWybkLMp4Ld8awme8Xbt29adHGmH/ev1nuQmZLx6ZMF9fMCo+qJ6bLJMBD6O57iSS5NvyWiW8kvXGh6UE186yPFKYljGn0hbCv3eKhe8M9PXr5hV/9+3i0xt/sJR9tnr2melJpv2ozd+EB9JVJJF8QPolWpbAUq5P0SwwpehOvJv2r4LGIbdVq+K2N9bq//v687Mbf0g9t2mjpeHnLctPpH8b/zLLMENXkETyqdpd1VafrL71/1KnP/9F+itHbb3wb5evXTO3lIO9asM3SYUAvQYu3vrb6q07stb1pStHIvmgWIrqJRlvqNIy3tpsDeGXv78XkNdaQ/j18/O//25JDqvVf9ycfmzrb18+vmP7+g501UgkH5XFMucqgJ7IeuERwmdzsNd//dWCEoB+nsG+aWPaDvgOulokko8rLf2tJ5cufTd7zZpPq7kQvhIhfK4NdEsd/NHmTRaaNEMi+boylr478stV8V8xyG298PMvfP998iFbCJ+Rv+XHZVN+2bSMQngSyde1enViT0D+DVerI4T/rAigszC+9pefM89nbVsXRleJRPIDff99UjtAngHXsTb7hg0L97NaffOm9PNbf/3y+PasdeF0lUgkP9G6tXPfA+gX1q+bV/fD96l/MNi3/LQ0L2vb2t8A+wi6QiSS38Ce+Ch87qv1nx3nOuUqEMIXAvRseChdIRLJT7R27dyRgD3nu2+XZHFj6/lbt64+uj1r/fdZWevupCtEIvmJ1q+e2+fr9Qt+RgjPxtbrf/pxaXHWtnWo2devz8paH0BXiETyI238IXUDA33TxjQWwp8A6A1wOmDvQ1eHRPIjAfRNDPbNm9LLt21dc8QK+/avPtm583/X09UhkfwK9tQUtvDlp80ZBQC9fOeO/+Xv3fP9qwcObKbcciSSn8G+ALBX/vrLqj2sVt+ze0PRweyfZh869DPBTiL5WRg/e/OmtIrtWWtP79j+Vdm+vT+cPXTw508IdhLJz7Rxo+XxLT8t28dqdRbCZx/4KQewxxHsJJKfafPmpY9mbVubDdhr9+zaUHjo4JYygp1E8kNt3bru7wC9goXw+/dtygboDYcP/fJJTs5v1BtPIvmTsrLWP85g37nj68qD2VtOA/SyY8ey5uTl/U6wk0h+CPuFPbu+PY5avfbokW2nT+fujzuXd4hyz5FI/gf7V6UHft+8k8H+x7GdBWfPHFoO2Gm6LInkT9q+fX2fXTs3fAvQy48c/jU/99Tvx87lHV5PsJNIfqijR7ddd+jgln/mHN2++uyZw7sA+6azeYfpQW4kkr+qsDCnU/7ZI0MA+z8Bez+6IiQSiUQikUgkEolEIpFIJBJJkBJmTr0iIXZau4QYc0ced4h/YXq7T2OjL3F87LT2TrZvsj+3Txsvnm+bBIfPZ+dzyfnFmNn7HYScn+3/M7edGzO5DZUGkn/DHjutU0KsORoFP4HHH8fHRD+REBs9w97xseb/4L14J/vY+zVuHx2OExAfG30z4LrqMs/3Fpzvv+w/B+cTc8n5xUTHAPiPBZzfR7b/zzwJv6vx++1xMebuMIFP8kPYY6LvQiHPB4gNzexC+Gt81kvwMAB284evzGgr8lw7Yd9HcZzSZji/Mhw7Cz/fwc3DgAjiaiodJD+r2c0TUMC3wYfgYhFwnINPOrhSwH51gOoYfi6Ii42OinvBfL1w2M3XoOZ+Dvv+Ch+GC6zH8z74pwH8S/g8mg1J8qs2+40IW4ejcEeikP8Nfh/eBdc4AYHVqh9gn+mAdZK98fqT8P/BifD38AkXQNVagY2JZmG4CufR3t25ol3dDmF8b3x2MD7PiP0ewjE+tMHp9HPe5c7J3m/Cy+ADLvZjN640fBbNiCT5p+Ji0WaNNY9Em/cgPwTm/8XNjL4VIbjzY8SYe8FoHpgjsP0c/NzPwc0HVRXA3YzPHAOLbivjc66LY5/Bc2y8dxI3kWt4bnBX4f07cKMZifN7Bb8fcXJu5fA89v9QySD5pVhbGgBm8IXIKPjJsKBsPKiJ28bHTMPNI/pu7PM29i9xGtrHRh9Hm3yMJ+eLfeW8sMdGb4Xbuji/Ngkx064G8JOxfbaTczuKm9X9VCpI/lvDx5if4QvlxcBud/Nog306w6MAzgkX7exjCTOnKcQOg2G/W5zA/qsr2P/c39wetbyZfb6TG9GniAauo1JB8lfYn/QW7Pb6eNb0W7H/dyx85wGrHnD+khAzdVBLws7V8qjhoxc5aW6w872HSgWJYBdZy38yM1qBGn6Dkxr+AhsjRzv86paE3dZfEf00N8rgeKyDqPn1VCpIBLtIoRZF2Gzt/XfSCRi9H3BFtDjsMeaJrO+Ar3mB44yhUkEi2D0QjnUt/LqTsf1qwD43ISa6ZwvDbsJ+OTzH2o7jDKVSQSLYPf2M2OhAHHOz09o91qyXCOyZaFb0p1IhMUWpFJ2ilPLbowb36URXQ+Kwx5g7wnOs7fSmgOGzzc8i5O/UUrAjmngc++U1HWs3zwLsHXl3Gh8c0DZKK+8UpZF3jdIoukepFQb8TMDf/7ikYGqxnUZ2dZQ6QIn35sBfYbv9UVrFRuz/BfbD6yi8g/s0GYrAvrCsPXwjjhGFfb7A/pvw8yy8Fr/HjdfIg/GzMwDwysT+KGVAG5Na1smkGtTTqJaPM6oUs00axRqTRn4APwvhk/CPcJxJrQjH69cZNbKOfOfv8nPwv5k0snZGtaKTSS3vit9vx3Gm4bjpRo18od12bfAZnXAN+uJ8nsG2m7BNEVzC/fwV2z8L944KGtDW4/97cJ8rTOqAdiatvAu+k0E43gz8Hm/SKtbj83+CN+L3Vfj5jkkrC8F7PYwaxZW47u14/rd2+H+6mYL6CxrKMWoV7XHsrvgf8bmyZ3HsRfj7J/gMXAj/gs9dhveewTYD8XcXVq58AXYOVL2LmWwW+LaWgB3bs+E3NnuwwmHYbS3+334OX6KsG8C8DaDJAGoEPBugATrFebzWANfB87jCA8gVPbFNGLyBe5/PpdhuTpRqUF97YKLu7dsOr9+BfR/FNjtd7F+Ec4iPUssHskLmcWFnNxaNrAtgUsIM8INwg3vLTwKMF02qAAVuFJ3cANXWqJJfj/364UZxN/a9H7C/jd+/x2uljcfEaxusEOAmgm3k8Kt4PdfNufxuUslC8Bmir0GkWtbGqA64AYBGAqSlcBncAFfDFdzvDpafBexL8LlR+PsueIDVGoUC7+GmJd9m1Mofc/O5HXDtbsF+U+E1cDn/Z11idm7p+Iww3JSvEXuTbQ3YUXNfg+Oynvl6ntl6W+G7mhv2hJlT22H7MfBuh+m8Wfhfw3mAkL8OuL6BTzoBrwSAvgRwUDvIRuD3BXit3AWojS4HsItR+/exfo5adj3gHY/XvxWwL3MV9k+GB6Gm8eiOH6lS3ArIn0VhPcDBUw0fhbfAX3O1+W44nwe0GhTu37D/JBynm9MaTB1wO0B+B9tvA+AlzsDFNt+alIO64ZiT8Pcm7lzc33jUivMAfqTY/x3gKAHdfEBUBNfBx+Gv8PrnAPpj2++KbLjKCYDF8B7OZ7ljXADs05xGEaqAq3HssfiM1XaQF8BZMIsivoe3wafgGp7PxM1P/gqA78sXXUgJdhus5gVOxt3P4b1hzQW7dbLPzOhu+IwQbLfS7v9l02TX4/+McFL7KVbCp1xAVwYn4abwNH7u5mp6Vuv/zHkbfJp73XHfAmsNr5GHw+/aRQuV8DH4AHyU+9sJ8Iq3cZPoKvaLAFwaOAnAVHDgnEJBWgAAJqBQyqI0AT1MStlAgDwS7z0Pf2dfE9v5EI4zAzUW73pmHE/D3Tiq3ICbhRvHC/h5zO61cq52P+div3oAvxnneZsI0IMBzo8cQHXsswHhg5FaxbUcmG2MqoHXAlwjtl0lsPZlPorrwNvhg+YGu5G9gG32cdsymDchnP8PPleDyuIOfI+3obmAm5DiIbw3n4O+3uEzCtn3hOZHb3YDkTLsAO0FF1Np9Z7Cbh1GizFPRHs7PCHGrG00wvVQNgUWkD+Ibdg03h12/+tBvP4+/sc+LkJd2R0AcQrAiodZu7vWATgG8TnOu+D3AeB0wK/hPAz7T8PradYooCmwuRzUFVb4tfJU+J/4PQr7jcFPI36yG8kqJ8DjRiQfJBL0oSjg39hqZyswZwDlrEiN7AYn4X5HvH8PCuEXToDfDeDGobbpyNOx1hWfNwLb/AdGO1hR6QRaVusXwGX4nB9QoOfAj2PfifBU3Ahew3u/Oanx0Y6X/1vQ/66RawHMBri2EVC8NpX9j7xNELXsHg74agfo2P4ldiH/HhznISe1eiec38tcLW4D3dYnMgSf28HJNUfTR2bmIg7Hm8oF7PsR3u8gadhjzNE49nknC28mu1sR5wL2Bm7lHesT+MXOLFz/A87niQb2sck1LmG/2OGmlfUExOGA6xfeNrhWsRDQDcd217IOJsdCg/f6WsNuVhvzQ4s2vtyENvRt2L69w/7t8d4A22fw7AtQRbRVb0VBs9jVtJWAaTFA7yHgJtGHiwYca+laeB18u4tr2Bn73gNon2Q3F94aWiP/He8/hu3uNKoGdWPX7WIIrBzY1cRuUmpFCg/wrHb+KkoZcJOb7/EqgPKFXWiO2lWejmvSzWWfg7WGVxx0AK6chfz4GQ5HooZWm4L68/ZfsJsWtjlvt+8+nG8kboTt3fR3tDeqEWlp5QU8wJfivCZLHPbhOHauE9j/xebVXwbsYs3+51PwD4gA3oiPnSZzN/wD6BSvO9TQtbgJZESpAm5x11sapRqEKEFxmAfYnwCsFkC3c15QFcwDbTeFJrBvEdj73AEw/Zvr0W4E5XSkWi54FpFJGdAXhXcfD6wVOHY0gOvgqvfbqJL3Asyf8+yPkF0WjP07u7j+7aJU8ruw7Xqe/XfhhjXUTQ94pAO0+aiN/+n2BqlVdMG2ax1gY230dwV0grJOvB0O4fhihOuCJpZEqQfhs+Uv8TYbNGgiDu7TRcKw3+N87bv5CdTsnTyFHbX0Nm7125+OMe+zTtxxDX29NXuNNVGGeSLa9x1cfHmKGLjwkp5xrSJWSPuJtQWtYX5T2DMB+u1u9w/s1w5g38/T/q+MCrzjGvc1s1yJArLZAZJ9qNkEd/aw/wHtYzNXm17ayaaRb4S7uxnmQw0tj+XpoNvqGBE5GybEts9xQ4L2x8jFZz/i6rwBzX+tIfCfwJxG7ThJYPg/k+vMswduCW5APVzcnNriMxOxXaXdPmdx03lCyP/aOGKC7ftxTQ9H4Etwg5vim7BHh7GkmB520DG4r4K7XOIYcxe8f3X8zGlD8PeT8G8c2HVOoC9iY/4JsVOv4l3HzwM7+/0FwbCoZToe2FcAdkEdTIgMVNj+iMP+NSgUGjdRSTvUyA87tLnrAM580T3ZGnknJ7U7A76/ANhjeGDfILzPQT4K++xxOEYBjvGs88/t3xXgzXfsUDNpA4KEjYvLJ3Nj4Pb7p+O63+z0OqkVbHx8i8M+u3EsUaMHrF2Pc3+Yp9+gBjeCxT4Ku8cddEKH3ubGTL4yPsZ8nzV0v3Sc/ZJUVXEzoyfHzYru6H3YtQE9Lwt2rSIA/l4s7ACsh3VSjENb2yiwY8sBtvY43kv8Q2jyJ5oddpVMxnX22R+jEjegN1xcdza2neE4lIWacfxlwL4gytWwo0Y+HducdNhnI85F9HPjjBrFMOy7n6d2347jdZMo7COctNlZD/3I5ob94ni7LQNumotcejsSYqf1bQbY0e5sCvt6+A5h+8vvwLZfioUdBY8B8oPjWDngnCF6Mo5K0Qa11kgn4+ULmxt2HKMf9tnI8/mfiIQ9HzXjUx7CzkLz11wP8Sle55mg8xXraRc/L0DWF7V7Bg/sh40aWbBEx9kf57LPOsL1M2C9s6Vg54AfxOXP42/Lx5gfbynYcXdWyJsVdrUiCLWDY+hdbVTJQzz5InG8frax+SbQfue6VpZ3w43ijVaAvYetY+wSUFhYvIh1XAposz/Fbg52+55kY/OuRh+4sXJHOJd5cr1xvCu5m4fj8U7gRjReirADyNe4NrMjXIvwWb1bEnYr8LHTxvLP6LN2GH7XUrCz8fu7mhN2hLhsbP00D+zhHsGukd9qtI17O06l3e2mCdCDG75radjb4/337MbXG70lElGP+34KRaLDbLrNJo2sv4vPu9E2xdU7sHORwvM8xzsJ2CdKDfYPX5nRia0qc5IhJvaTWdFXtjTsaMOzFFrHnWXXbQbY5WzMPa8VYB8Bn+cJ4x/3rGaX9wLwGTzQbnazH1tsk9LSsHNDbw9xs9LsYSlAeByD2r2ji6E3Ng/+Z4chu2ddrUvAe7diu+U8cH6NZlAvz26wike4RTKShz0u1sySRWbxQJULUMezKa0tDTv3/6c6C+Wbo2Zvy02hbVHYAZMKPtikg06teMdD2FFDy5eIhbY1YY/Syq4HHF9yY+T2wPwBT0e7uIv9kJh19Z1yYHfcDN6xWyhTAegWmgL7dXMTdvfmFtg4wr4Z7w306JprFZN5blYHcLw7pQQ7Axlh8d94OufqrTnbY823CzlOM8H+bgvC3jo1O2AKNDYdrqo3qeVfNc5UE6NIjew61G6f8UD7qVRh5zraDABkF8+c82JA/RE8BL8H4Ccb21YhGnrPrjYtxjVcJGQiC4sUsH0Cz+dk4xzGeQj7FOtimEuPty9KM6i/lGBHiH49jpnOA9RZ3AQeFd7B1yywP9KCYXzrtNkB5h3wSh5AcozKgNtFFzy1/EYAuqYJtCqFWcqwc9BMAiR7nSxjLeAWq2zmanxuaqxiO67fa6ag/tcIPU+cz4t2EcHFZgOO85wnN1jceB7l5uPbz+L7RkxCj+aGneWh43K+HWqSkio2enlCTHTfVob9QyfHXOs3sEeqAtiqq9k8gOQDtL97UPD6Yt8jjhNbTGqFQuqwcze/cVzv/HEnK9jYqrRj1qWuGpbMw7popaPITswJtok7TW4oaZFq55NxnAx3dsK+rzocqwI3rldEFvbmzUEXM20Aau/lDh1z9dyqM1ERTdzM6f28DTvOIdPJ0Ns//AZ2VpMAxAe51WUO69IVGdi/qzjYFYO4Jaj2wKbCV/kC7Nb2uFZ+A4B5mpv4Um2bwy6fC7PQ/e8I2SMBrBygXelJwTJqZAO47DNNx8a18rEiO+du4hbx2B+nyKSVaUUOh73L10PuDdhxnO7wLJ5kkyyN9EzWGy7yXEP5wYw+AHvSG38N34o4NssvIdbcdOVolEb+ssNCGJ+A3Va7K4J45sYzH4cfENxeVynaAs5HmsxgU8nvQ5OgnSewm9TCFvN4GfY7AUwqFxp/C6BGA55eeO9ab7Rd2TRX1LxvsBVqTae5yudGamQ3iogSgqypquyOY7SuqQjoJBKgRbxzxWOiv4Vv8vR/ZY9dTrA9dvkUD0yzhWaUdYhCJjhpX7Opr+08ON7DvA96jDG/gBq/Cx+snzksRPEl2DtaM5041MjcEtXVeF9QLzHLIQf/6jAnfoFRLbvR3YIgp7CjOdGiYbxW/iQXwnOLVFiNLvP6g/5wTA3XHHBcsXYW38VEZ+vZHW4aHbm58ZV2+5eZ1MJ74d3BjtfPw/0vA/bpTtauv4/3rvHkmC5gb0iYOXWgyGOxKbO/8xwrIyHGfEeTR1OxcVWAtdgBtGJ4ltC8YNaMJE1hz4bvFgh7P2y7hgf24YJqZbUsgEtcUdd0iariE/jWSBdprtgyX4D+uG39+cW15JvxmpLldRPQsdeLJZjkAbVM8DVUBgzgUlc5HiPB3Qo+/H+sp30DT7qpvSa17H4A2Avvd8fN4Cq4S2RwQEdjcEB7oavU+CII1MCzeLPdaORHAKwuSiXv6OKmxCIQBctqY5+TDsd8PlIjby+ywLPki985m0WG9y1xseYeQh6zjG3astowIXaaHDVjhkP6qVq8djo+dtoMvN8FsHt0A8G5POF8qao5Ie4F1+vhbUOA0Z1xDvfE2RbD1Do8ujkV59YfbmP/hbUdjy8foI0AWFt4YF0dpZb1H69x/qWxO/h4reI6NAMe49kf0YF8Avbv4Sx5IiC7Ikqt6IZtI7j0V5dmy9HIE9gyWRyjm7ueXoA5nsstV8fTdl7BMsvAvZq0+TXyG022fYvs2vtZ2Ha0kNoJ2/XE9qHwYd717KoAJba5ji/jDdfJiBuN7Hru/H/nOcZPiDDC8f7NJpXiar7su9y01/MuUkvtB1xrANln8HvwE/ibZYzR4fhq/GTJJe/A6zfhxtJVSK86G6pDEyGDN5+dRs7ScD2IY97GOuEcrhlLthEIr3RYIvvvSK3rvhF7fRob3RGQ94YnuXnmOWp489dsnTfguAfb9wGwN6I9ew2O0Q3ujlrwNrwuwzYskeM7Dser49rEX8XNjA4FbKJDbXzGlfEvmHvhZhGAc9ni4lxLcHOKwbncCeOczNdx59gt/oXp1+M8ce7RSvi/Divv6q1ppWPMiYB8gGPYPQgQTcLPFznQa/hhteaqewrQjQOUN/zZxpd1x2vD8d7fbGvZ5cedZKphoXwctn0QVl1yDmprlhwj/BqX+oo/gSVLNa3FNiw8VMv7u8qEwgHzm5MUUSzpJBtDnwiHwOFoU5tRMBfh9+LGSAAFeB1qaqO7ueXY9k7476zmhfc6zyUnZ/MAPoCfBJQj0Ka9motG2uBzBrJj4PUP8XMH1/TgOw67kSTDL7FjNLlhWGG1JnisF5hXzj70ZrXz7ywyYEtLcT1i4BCjOuBad1FJlHW5qzydZyiucY7+lzj+UzAbJQiB78P2s+xy1rFt9uFzn8X/IChdNQp1V7a6DH6KS9+cLzCrS50VkJjo9YA6Cb+/lRAb/Rr8ZrwtgeMeniQR52zZZM3PAtLeHtTivbB/BPwcPnceYNzufB77JU+YOQSvwu8fcOf4Gv7+CPuv4+k/YAknf8BN4mlEJj34wuaXneSOc+bzDHi7/YO5xJO1AvdnN5N0h05BE0A/LeIcWMbbh5zVkHYh9UguRVWeE3CqueG1M3b56ho4YOcARkGLd7iltZXC0lRf7ANYi/MbxJ1nB/hVMfvbjqH40knP9t/ZAhLRsPMPz+0D8K+bVINudtVfYUtiGXALPnuO7YbRZI5+Y167c/ARuyQb9bYpsYokXIOxLKefwJ7nNqiR1S5yt3vDDB6WHYb15P+DrSzzqL0/c2oH3CSm8TzIwVs+A3+Lz3gJ53iXqzbyE1ybutFZ3JLU1U6tCVDagTqSW39uf4xvePbbyNXuB7DPvEvPQWbA61u5fffC37n8fJvdrhe2LlVVKW5BaD4dTubyxlfxp41WHAeA61Cw/4uoIETMUJ1tnJo3USWfa3EuZ1HLx5lUsltt7Wy2fl7xtEjYzwCOD5w0KboY1dbQ/HsXqaLFuAS18Aew255x3CC74TrqAe9soy19dIXzYyq2YZsFOK4J7fNbxOTHRxjbEQX7aW9Cg9D+RJytVv+Sdbyx2XCAPASh/k3uss64GfvugePFee9czWfjbMknV+D3t1DTT8W1uBvu4KatyYZiFEo732NL/sg6ypxYOaCzHezdWefbJcdgud6b7KeQw0Hc+/0cCufVeP1ebv9AWwILF59vs+A2HcsbZ1LJbwHIKpMtk+tz8POcAZn8PryuRUEdYFQN7CI2hTFuDizJJWvzhgmwHp81DOfTF+fV8eJNCU0jgftbzTLo4nydzgw0BfVnIxM6a5Ry+bBbp9KirKgFD19qFd3ZGL4tZGdJLnCtG217Mk0oQL8H23k0HIaC3RZmk1LCRDocgLCJN8/D0+3fA9jB1ue4xZj74WZyHZst540RCxybrZC7y815meHJwv4H8zCc57043764EXXHeba7gsRb23eIUsquBGg2qwI6X85TZyT7fwb17wmoLFzNylJpx5vUMj1eC7j4pBer5cPx3t+MWvmb1iW9TRfR/DnurZHP9+hctAEd2Hr1i1YP7HA5T325HKGGbgNA2FLQK+EOUvm+2Lmw0QQilCQOLEQp1qfZ2NrcP6D2ZE+HaWdUDmzjGLVYh840sjaAvS1gb29iz2bTKpbwdrRpFMfoCpNIEhAbrkJNzUYhsrkaehteC/LgON0A/Ms87e18usokUuuD3h2Asl74HLtFJA97ejzsGwj/6rh8la40idTKoTtAZCvQDl3SoeYi57t72OU3Oy5MAfyf0dUmkVqzVtfIbkL4vsBxxdhl3kB64JgJDrPh7qerTSK1olALD+Sehe4wVCY+pbPdMW+xz1ZrZI931ihuoKtNIrVuzd4PcGY2Tfwgn+7pMVGLD2fr0u164h81qRU0NEQitWqb/d6+HQDn/3FDbZckkQCgQZFq4Y8+ZvP0I1ka7T/b61W4acyHe7LFSiQSqbVDeY18JMsj1+RJrBprbrlJJgaru6fwsnXlGvnd1gk43HPSAX06PICuMIkkldpdpbiarYSz5YlvMvvtlLWzTSOfjBpayZ6aGhkccIPVWtnNeG0QtmE3iyfg37h9zmM71OiKO+nqkkjSa7v3Mdp60EudTHkt4J66ugLwf2GztRNuDbfUtIqbjMNSUT8XqVX0pqtKIkk1nNfK2QMSY+BcDxa75CCE/wS1+XD2LDe6miSS1EN6bcDVgD0YfpF7rFOJC8CLjCzfnVb+HCDXRqplPekKkki+BTxLBtkFAN/AHtAYpZGFGTWyh1HzvwW/H6WVTYbHmtSyAYC9F7bp7GkeOpJv6P8Be4IG54ZeBpEAAAAldEVYdGRhdGU6Y3JlYXRlADIwMjEtMDQtMjNUMDg6NDQ6MDMrMDA6MDDd8THtAAAAJXRFWHRkYXRlOm1vZGlmeQAyMDIxLTA0LTIzVDA4OjQ0OjAzKzAwOjAwrKyJUQAAAABJRU5ErkJggg==;" vertex="1" parent="1">
          <mxGeometry x="17.94" y="270" width="72.06" height="73.5" as="geometry" />
        </mxCell>
        <mxCell id="SxAMXVoo2cSi_DEeGkWg-15" value="Customersdb" style="text;html=1;align=center;verticalAlign=middle;resizable=0;points=[];autosize=1;strokeColor=none;fillColor=none;" vertex="1" parent="1">
          <mxGeometry x="7.259999999999998" y="224" width="90" height="30" as="geometry" />
        </mxCell>
        <mxCell id="SxAMXVoo2cSi_DEeGkWg-16" value="bankdb" style="text;html=1;align=center;verticalAlign=middle;resizable=0;points=[];autosize=1;strokeColor=none;fillColor=none;" vertex="1" parent="1">
          <mxGeometry x="27.15999999999999" y="344" width="60" height="30" as="geometry" />
        </mxCell>
        <mxCell id="SxAMXVoo2cSi_DEeGkWg-17" style="rounded=0;orthogonalLoop=1;jettySize=auto;html=1;endArrow=none;endFill=0;targetPerimeterSpacing=7;sourcePerimeterSpacing=4;curved=0;orthogonal=0;linecap=round;" edge="1" parent="1">
          <mxGeometry relative="1" as="geometry">
            <mxPoint x="240" y="160" as="sourcePoint" />
            <mxPoint x="230" y="550" as="targetPoint" />
            <Array as="points">
              <mxPoint x="220" y="160" />
              <mxPoint x="220" y="300" />
              <mxPoint x="220" y="430" />
              <mxPoint x="220" y="550" />
            </Array>
          </mxGeometry>
        </mxCell>
        <mxCell id="SxAMXVoo2cSi_DEeGkWg-18" value="ms-accounts" style="shape=module;align=left;spacingLeft=20;align=center;verticalAlign=top;whiteSpace=wrap;html=1;" vertex="1" parent="1">
          <mxGeometry x="230" y="304" width="140" height="50" as="geometry" />
        </mxCell>
        <mxCell id="SxAMXVoo2cSi_DEeGkWg-19" value="" style="shape=image;verticalLabelPosition=bottom;labelBackgroundColor=default;verticalAlign=top;aspect=fixed;imageAspect=0;image=data:image/png,iVBORw0KGgoAAAANSUhEUgAAAPsAAAEACAYAAAB1UADIAAAABGdBTUEAALGPC/xhBQAAACBjSFJNAAB6JgAAgIQAAPoAAACA6AAAdTAAAOpgAAA6mAAAF3CculE8AAAAB3RJTUUH5QQXCCwDHDiC2wAAAAZiS0dEAAAAAAAA+UO7fwAAOmlJREFUeNrtnQd8U+X6x2UjKDgABw6Q1SQObLPKDG1SaKFJUUBGiqj3qle9evXvvbZw3Sju1VYKomW0TVtGQZZecQCKA8pGKKsgUCjQXbrH//cmpxjSk+SckLYn8fl9Pr9P2+Sck9OT93ve513PueIK0l9KM1aaBszIjOpAV4JE8nfYVxlfhmV0JUgkf4f9S2OKOTNiFl0JEsmfQc+M6jpjlemnB5aFrTYkqQbRFSGR/LZWjwye8aUpZ9JSw+awhZoP6YqQSH7bXjfNAexlgP1nwP47avdAuiokkj9BvjaKdczpAPpOuH7KsjFbAXs5/FFYkroNXSESyT/a6W1mrI7qA8hXwA3M5pVjfwfoDfBhwD5elzSYgCeRfB70laYbEL6/AcgL7WA/wsFeY1ioXqBPUvagq0Ui+S7obAJNL4A+G4AXNILOPH1lZAUHO/NBAG9E7d6WrhqJ5Iuwr4zqBtDfsq/RL8K+KrLBDvbasIXqJfBtdNVIJN+r1TtzoBc7gm6D3Vg/epG20g74QtTujyCc70xXj0TyLdDf5KvRG/3gKmNdRPKwHDvYmXcYFqrupM46EknqkLPhtbVRvQH6YgBd6gx0DvbasSnDsx1gr0Movwq+iq4miSRd0NvOWB01ACCnwTWuQHcBu9WGJM0CQ5KqK11VEkmSoJsCADGr0avdge4OdrjCkKT+D4C/jq4uiSQd0NmEmYEAeJFQ0AXAzpyPcD4WwPekq0wiSQH2NVG3Ad5UMaALhJ35pGGh+kkK6Umk1q/Vb5qxymQRC7oI2OsA+37YDOC70BUnkVoPdFajV4oF3Qr7l8aa8WmjdriBvRH4w/AkAN+JrjyJ1IKanDnm+ikrw98DsEWegM655r60kG0CYGeuB+yn4SgA356+ARKpBfTAitFdJq0IexU/S6aujNgpZJjNC7DbhuQWqsvgSJpDTyI1syZlhnUC5JPhw3ADavg81O7lLQU7B/xe/UJVMIBvR98IidQ8oXtb1OgqQP4DA73R0asiD7Uk7Fwb/hf9QvUw+lZIpOao1VeE9YKXAPAae9inrgzf28KwM1fBawwLNffQN0MiebOdvnx0R5i108vsQedC+RIPO+ouB3bmC/CisCR1f/qGSCQvaeJygxFgFziCzrk2etW43a0AO3Mp/CaAv56+JRLpMhSVqbtiYqZBhvD9gBPQmeumrYzIYUkkWwF21mFXAD9uSFJdqUsaTF8aieRRjb7C0Bugr2G1twvYWShfhVD+TGvAzgF/wrBQFa5fqKQhORLJg9D9GrTT32Lj6a5At8K+YnR59Mpxh1oLds67EM4r6JsjkcSAnmm4EjX6gwA5xx3oje32qZkRLCuNmDH3mgkZ+iwvws68HOH8NfQNkkjC2untAHoIAP6VtccFwt4wJXNM4YOrjH+IgL0WkcNeL8POMtb+G233jvRNkkhuNGm5oe8DK8LSAHC1UNBtofyYUoTyeWJgn7x8dLaXYa+3paXWjKNvkkRyVasv1V05fumov01Yrj8tBvSLvfK2UL6kFWG3PnSCTbhB+70ffaMkEo8i03VXmDJ0/eGs8UtDz0xaMfqMWOCnZIbnIpQ/1cqwM5cbFqo/GJ2kpfY7ieQoY7quA/y6KWNUQ1TGqLyJywyiYZ+8YvQFhPIsT3xdK8POfBrh/AxDkqoDfbskkj3sGboBpnRdPoMdrrl/mb5YbLudGaF87oNfGoslADus/haw30V56EmkxrZ6Jmr1DN1cDnSrEcofm7Q8LF98KD/mFEL5ImnArqlGOP8KgO9G3zKJZKvVRwDwc/awI5Q/P3G5ocyDjrpKhPL5ApJatATszMcBe4g+iWbXkahW72TK0KWw0N0edrgWofwpBq8HofxBwHxBIrAzfwPTM+RIf/mOuSkA+6QD6LZQPiPkAEL5UtGh/IoxpxHKV0oI9uqwJPVj9G2T/rIypel6Auo1cD0f7KjxyyYuD6vyIJSvRyh/3E2vfEvCzhbLHBqdpKFHQpP+guH7UutQ22OAOpcfdJsRyu91zE4jxFMzI3a7abe3KOzW7DZJ6g/HJGkpOy3pL1arZ+juBMzfuALd1lEXcnLSCvG1++QV1rnypRKCnfkwrKFvn/RXqtU7A/Z/AuZCd7AzT1xuOO5BKN+AUH6fxGCvNCzUfK5PUnanUkD6a9Tq6bq7AfFPQkC3hfKh2z2BfWpm+EGJwc58CO13E5UCkt8rMkPX1ZihewEQVwmFHaF8EUL5Cg9C+XKE8mclBnt12EL1YkOS6hYqDSS/1ri04b0j00d+KxT0xjH3ScvD9nlQu7NklDudwF43dXnEqVaAnfkY1e4kv1ZEypC2EalDHxhrGXbOmD4yRwzs9y0LZbDXi132ilD+jLMhuGmZEfWtBDt7dlycnp79TvJXhVuGdoa/jbAMKx6XNuI4IK4THMovDalBKF/oQShf4SyDDWBvaCXYbdNoF2oMNI2W5J81u2XowIjUYeWAvWFs2vBCY7quQHi7fdSFicsN+z0I5cvNK8fmSBB2NtHmU/g6Khkkf4T9ZQY65zy03c+ICOWrEcqf8WCCTd2UzHCWvaZYarDDuYBdY0hS0RJYkv9ojEXbHYDvsIO9EqE8G2evFgr8+KUhpQjlxSe1yByTP31VZI4EYW8IS1K/DVOCC5IftddTh4YB8BI72Fkof8KYISqUL0Aon+NhKF8oSdgXas6EJgX1oBJC8p8QPnVoIgCvtocdPmNMH1ksslf+ggcZbOqnrow4++CXxnMShL1Bn6R5kEoIyT9ATxnSH2DvdQCduR6h/DkxE2wQyp9GKJ/rQSh/GqH8aSnCDmfpk5S0QIbkFyH80wD7PA/szNkI5UtFhPL5E5Ybznow5l6NUL7UfiWchGAvMSSpDFRSSD4OenD3iNRhywB1nRPYC4zpVtjrRcyVZ+Pt5aLnyq+MOIZQvkCCsNeEJWmWjEnSdqISQ/LdEN4yRO8khL9ohPJHWHtcRCjvUTJKhPJ5COVLJQg7c7YhSXM3lRiST0qXObh9hGXoiwC6zBXs8AGeHHSuXIpQvkTMs+Aa58qbV41j7fYqCcKeb1io/heVGpJvhvBpwbcD9mVuQGcuj/wzZ7zAUF5/zLNQPnw/QvkyCcJeC6cjlL+KSg7J5zQGIXy4Zeg+AbA3jE0bsV0M7AjlD05aEeZJqumiB1cZayQIO/POsCT1cCo5JJ/SKIu2qz5F+/Lo1OA8x8k0vE4dliNmYQzr0Ju43FDkQa98A0L5vWw9uwRhL4NnGZJUtDiG5DsypGj7wsvDUrQnwlOHFgio3esi00f+ITKU3+lJMsopmeH7JQh7tRX2JPUiwxfK3lSCSD4jfYpmCHwUwFePSR1SBJhr3ME+Nm34PjGwR2WMOoFQvtKDUL6CDcFNyxxbN3qhtqoVoC6AzwLsc4YkdYHhC3W9/nNVsX6B6oj+M+WG0PlBIVSCSD5Sq6vaG1I0kxnocMPolOBswFzqBvb6CMvwIlO6rkQM8Ajlj3mSnw6h/HbzynGV4YuH5DZf6mhNPnwSQB8H0HmGz9VlALoCPgnnAOxj+vnKU6HzlPVwA+eKkHlBz+rmD6Yxd5IP1OrJmm6A/S0GOue8cMvQSmG98iMOigvlPUtGOSVzzB+AvTAieViOF8AuNCRpjgHqbMMXqiOGz1XnAXO1/jNVIXwmdL4yFz4PkMvtoHblxQCectSRfKK9fgu82Q72WoTyOYC51g3slWPTRpwSF8qHFHuSjJI9Q25qZsROsbAD6KPwHkC9F0CfAMzlcGXofFUxgC6AC0VA7cy/w2oqSSRfgF0GV9rBzkL5XTyr3pqE8mMtw0sQyp8XmYxyryePiMJ+heFLhuQ4yRHH2tKAWv0r2tO7APQfALkGBthWmJmr4LrLBJvPNajZzbq5g2mdO0nCIfwSbTt9svYRe9CZ9SmaUoTyVQJC+YJx6SOOilz2ut+TITj20MhxKcN2oqbORXt6O6D+Be3oPQCtmIOunoO53qFd3ezGOXwRMi+Q1rmTJN1e72BI1n7sCDszQvkdAmCv4jLY1IhMRlngCewRi4bubUmIRfhIyDxlPypRJOmG8MnaTgD7az7Yw1K02YJm01mGnzOm6842dzJKicPeEJqoHKGfq6T8dCTJttevhE/ywQ5XIJTPEwD8+cj0kWdFJqM8K3aCjeRhn6ecCeApqQVJqrCr+zsBvbFXfqcA2KsRyrOFMZUi5sqXiE1GKXXYEcavg2m8nSTZmv1+F7DXI5TPExbKDztmFLESjiWjnCBygo0P1OzFoxZQJx1JsrBrXncBO/OF8NShRwUAn49QvkxEKF+HUL5cTDJKH4C9QZ+opFVwJMnW7GvdwF6OUF5QRx1C+ZOAuEJEKJ+LUP6UP8GOMP5lKlUkqcK+1w3sdWGpwWyevJDps4eMGboykckozwkdc/cF2EMTg1ZQqSJJEHRVN8B8zg3sbAiuAKF8jgDYS43pI4tEJqNk4+0X/KZmTww6QCWLJDnpkzV3AuYCd7DDZQjl84SF8sP3i5lgg1A+R2gySp+o2ecpz+vnKm+i0kWSFuwp2vsAcokA2FkozxJaFLmDPdwy7KiYzLNcMspSIckofQT2EoTyEVS6SFLriX+G9bYLgJ2F8qcRyp8SMn0WoXyuyAw2OUKSUfoI7GUh85QPU+kiSa1zLg6uEgI765UfnRpcKCCDTcPYtGFbPUhGecFPYK8C7B9T6SJJrWZPA8Q1AmFvAOw5Lh4LZe88kXnlGxDKF7rrlfcR2KsB+xdUukhSq9l/Ewr6xQw2qUMLbSmp3CSjTBt5SGQGG7fJKH0EdubfqHSRJCOdRdsZ8G4TCTtb9nqWtcvdwF471tYrLyYZ5Ul3ySh9CPYs3fzB9PAIkjQUmqztI2BCDV8ony3g8VCeJqPM8RPY94UkBg6gUkaShPRLtArAu18s7HBxuGVomYBQ3uvJKH0I9v36uUoFlTKSNGBP1oQC3BwPYG8YY7HOlXfXK181Nm1ErshQvhShfLkfwH44ZG7gUCplJGnAnqKd4CJphbsx970CYPc0GeUeP4D9ZMg85f1UykhSgZ09FOKUJ7AzI5QvaKZklAecDcH5GOwTqZSRJCFDsvZfgDbfU9jHpA7JaqZklNUI5fMJdhLJW7CnaF8ROC/eWSj/h6DZdOKTUZZNXG444OOw5wL2KVTKSH4BO1scg1D+mMBklOdEJqM8xzfBxodgzwfs/6JSRvIX2Fkyyl0CYK/hklFWiExGedqHYS8B7K9QKSP5C+z1YSnBpUIeAOmtZJQEO4nkGewvXybsrN1eDtiF5KcrQCh/wYNklFUEO4l0mdKnaCd6Os5u/xCJ0anBRwXMpmPJKE9cbjJKH4K9CLDPpFJG8ifYG8JSg9lTY4oEJqO8IDKUP28/5k5DbyRSa8LOklFaBOWVL/MgGWW+fTJKwF42bsnwAwQ7iSQO9gjAevxyYbeF8kPy2bJWAckof7/MZJTlppSROQQ7iSQG9mRtIEDN9gLsbNlrvpAMNuGWYTkik1GWOSSjJNhJJNGwe77ElS+UPxOeOjRXyAMgjWkjT4lMRnnELhklwU4iiZUhReVR8gpns+kQyl8QmIxym6hlr0tDDtklo/QV2A+FzgvSUikjSQh40TnovJGMks2TrxaZjLKA65X3FdgpeQVJcrBvZjPhvAT8WYTyRQKTUR70MBmlr8C+V5+ovINKGElKPfIWMamkBSx7zROYjPKAyAw2p7hklL4C+zZd0uCOVMJIUqrZZ8OV3oI9THgyymJTuq5YZDLKoz4EO6WSJkmuZn9C6OOfBLpUYDLKC2KTUd63TL+bTbAxpow8JHHQa0PmKdOpdJGkBXuydgQALfIi7CwZ5X6ByShPiwvlQ0onLNNnRSwZmi31xz+FJgZ9QKWLJCmNStX2BqDnvQl7WIp2n8AMNiXGdJ2YpBbMJeFLhh2VOOwXULM/RqWLJMFQXvO7N2HnklGeF5iMMkck7OWAXept9qLQeUGURpokyU66xd6GXWQySuFj7umjLoQvHnpY6impdPMH96aSRZJizf4Pb8OOUP4EmxorIJQ/KyYZJbYtHZ0ULPUlrtlUqkiSVGiKOtDbsHPJKHMEJqM871+wB2VQqSJJE/Ylqm6GZM0pL8PeLMkofQH2kHnK2VSqSBJts2s6wcu9DDtLRlmG2r1CAPA5QpNRShj2/JDEoMMhiYEHR80LHEWliiTNmj1V3Q7t9meaod1+QWAyykKE8mUShL0ermOTZDjXWWvuxKAjoz4N2jbq08BfR8UH7dXFB52H6+BaOF/3aeDVVKpIkpQuaXAbfbI6yMsz6RqTUeYITEb5h5BQvhlhr4HLQxOVZTD7WRMyN6hk1NzAfbqEoF/gXQD5OFwJN7iwBaY58SRJ98jfBDjXeb12tyWjLBRQux8WkozSC7AD6qBSwFwQkshCb2VxyFxlHcAuQE2dPSohcA/APqiLDywCtPVuwG7qhMAn4XZUokgShl3bFXDOaoZQvkBgrzxLRlnoLhmlSNhRSwflIew+BaDPwMWj5gZVAuo8QH0UQB8GoKdEA+3c5QBdq5s7uA2VKJJ0Q3mLti2Aj/T2PHm2om506pACIckox9qSUdZ6BHti0DlAfQw19NGQT4NOoU1dDpcC6jOoqU8AxNNwkRfB5nHgb/BtVJpI0q/dkzVywPmdt2t3tNvZ1NlzApJRHhMMe6KyEGCzjrILcMOohKBSQJ3PdZYxqKubF2xef6KLC7qWShJJ8gpJ1XZD7f5mM4TypwUmo6wxpo086Q72sKTgHwE3wvCgC1wPeIMEzDru7gPs1F4n+UQo3wawRwPQQm/PpuOSUVZfbjJKBrvhC+1ObqirQUJmvfVBVIpIvhTKD2qOXnmRySjLncKepivTz9cckBjozPN1CYE3Ugki+U7tnjS4A/coZ2+PuQtNRlkbmT5ihzPYIy0jy0MT1TkSA70S4fuTug8HUwhP8i0ZkrU6wLm7GZa9ngHM7p7lXjc2bXiOj8G+RxcfGEolh+R7ofwSbXe03dO8mXVWRDJKeHiZs2WvEoSddRB+Dth7Uskh+Wrb/WEAmufl2r1MYDLKsnHpI/b7COxn4McQwrelUkPySYUsVt7QLKG8ZcjvAvLT1Yy1ZbDhg70iZK7qhIRg36hLuHcAlRiSL3fUtUHb/UW2mMWrvfIp2lOCZtNZhhUa00f+4Qj7uNQRDRIadivTxQW+rUugWp3k68BbtD0A6GGvJ6NMHZovZNkrQvkTTmCXig/oEgKVVFJIfiHU7s97fczdMmSfANhrEcqXOC57lRDsNfBiKiEk/2m7p2pv8nbtHpYazGr2CwKAP41QPleisJ9DCD+CSgjJn2r2DvDr3s5PF5465IAA2Isi00cWSRT2dboPB3egEkLyG+mXaFlHnRKAHvNqMsqUIULSVbEJNmfYfHgO9rqxySNOSgL2hMBwKh0k/6vdU9RXGVI0L3t3JVwwwnjr9Fl3wB+1S0ZZG5E8PFsCsH8H2CnPHMkfYVexcP4eQPojyxrrrQk2Y1KtY+5ua/dx6SNKuXXuUoC9BqCP0X16Lw23kfxTuqTB7fXJ6oe8+BDIKm6uvJAx9/2mDF2ZRGBfDd9EJYLk3+33ZE0fg23OfK2XQvlShPJ5Amr3XITyDPaa8CXD9rUi6Pmo1cfr5g5uT6WB5P/Ap2jvB6hHvJTBphC1+x8CYG/gJthUjV44ZFsrwp4KU4450l8E9iXa7gD1M5ZI0gvAVwP2QgHLXlkov8uUrqscnaRtLdiP6OIDJ1CtTvprAZ+qVelTNHu80VmHUD4vPHXoGQG1e8nYtOGHDZ9rtrXSMtYFuk8Ce9C3T/prddZZtO3Rfn8SsJZ7IZTPB+xC0lU1RKQOuxAyT7W/VZJTJASG6j6kfPCkv2ZnXTvAmuGF2r1+jC2vfLkA2GtDElUt3RtfpIsLnAnYaaiN9NfVqFRtH4Tz2V6o3XMErYQD7KPmqo62IOhsKe03aKdTLnjSX1sAldXu5ssdewfsxYC9mE2gcQW7MXVkGWrYihaE/SRqdcotRyJZw/kU9XWo3T++3Hx1o1ODjwNol89yn5467uCYhODiFgK9CqC/St8widTYWWd93LPmLgD7v8vslT/qrt3+lOWBrEmJ+sMtBPsaXcK9NFOORLqkdl+i7aBP1o4FtLsu5wGQ4RZru91pMsoX0/62Zcq8sJbooMvRxQeOgKlTjkRqAnyyphPC+WcuJyPt6JTgXa6SUb6a9vhPLQA7e+DDY7pP7u1E3yqJ5ESjFgV2MSRr3ga4JR6G8n+4eh7c3LTY3f/4/P4dzftwxsDXdAmDu+s+HExfKInkSoYU1U2o4Vd4ulgGofwxZ7DPS5u194Wk6dua8Smsi3UJgX3oWySRBAOvDYR/8zCU3+kM9i/SXsl9ddHju5ppOuxmOJi+PRJJbBs+RWsAvAc9COXPO3tE1JKM12vfT372sNcnzsQF7oJN9K2RSJ7U7snadvAUAHzUG8koJ1nCziRnzK6NS/lPiXdhDzwB0MeijU6r2UgkTxWarO6qT9Y8BYDPiUxGedAR9hmWyOzUjDdq51v+Wz3206HnvQR7uS7+3ofoUcsk0mVKlzT4itDFyu6GZM2/AXG+iFC+PMIytNAe9n+lTdtuyXizJintlQuT540+7B3QA/+hS7i3C31TJJKXgDekqHroUzQfiBiSa5KMclbaI9ssGXNqktNnl/7z80mXm5rqAvxfXVxQN10CDbGRSN5tw9uA/wggF4lIRnlxgs3raU/sTAPslvQ5FS8u/PuxywC9AJ6jSwjsRd8KidR8wPcE8B+ymltIMspwu2SUH6c/fyI946065neWPFOmT1BXeJQwMj7obYB+M30bJFLL1PAM+CqhySiNlpHliekzKwB6A3Ni6szCCYmhJ0QnoYgPegug96ZvgURqOeBv4EL6KiHJKCdbRp/8PP2lykbYF6W/lvfIgqgDImfHvQnQaRUbidTCsLcxpKhvcVfDI5Q/w5JRPpn2wP4lGa+XcbBXL13xfu7s1KfOGxI05QJhZzU6JYskkVoL+NBUDavhX3I2LMclo8x/Je2xI5aMOeUM9oyl75StWZ1wIH3V+6dnfG487X54Leg9gH4dXXESqRWls2iv0C28t5MhWfM04D4O1/HMlT/6QdpzJ7nOuYZly96tWLtmbvm6tYlV/01+tECfoKlykjsuVxcfOEOXMLgzYKeLTSJJAvqkwQBeOwlw73YEfnzKqNz49BeKuRC+duXKj3cD9AZmy6p3j5oXjM0dFa+sc2if/wLQ79fNHUxr0kkkSYb2ydrxAHyjPeyPWybkLMp4Ld8awme8Xbt29adHGmH/ev1nuQmZLx6ZMF9fMCo+qJ6bLJMBD6O57iSS5NvyWiW8kvXGh6UE186yPFKYljGn0hbCv3eKhe8M9PXr5hV/9+3i0xt/sJR9tnr2melJpv2ozd+EB9JVJJF8QPolWpbAUq5P0SwwpehOvJv2r4LGIbdVq+K2N9bq//v687Mbf0g9t2mjpeHnLctPpH8b/zLLMENXkETyqdpd1VafrL71/1KnP/9F+itHbb3wb5evXTO3lIO9asM3SYUAvQYu3vrb6q07stb1pStHIvmgWIrqJRlvqNIy3tpsDeGXv78XkNdaQ/j18/O//25JDqvVf9ycfmzrb18+vmP7+g501UgkH5XFMucqgJ7IeuERwmdzsNd//dWCEoB+nsG+aWPaDvgOulokko8rLf2tJ5cufTd7zZpPq7kQvhIhfK4NdEsd/NHmTRaaNEMi+boylr478stV8V8xyG298PMvfP998iFbCJ+Rv+XHZVN+2bSMQngSyde1enViT0D+DVerI4T/rAigszC+9pefM89nbVsXRleJRPIDff99UjtAngHXsTb7hg0L97NaffOm9PNbf/3y+PasdeF0lUgkP9G6tXPfA+gX1q+bV/fD96l/MNi3/LQ0L2vb2t8A+wi6QiSS38Ce+Ch87qv1nx3nOuUqEMIXAvRseChdIRLJT7R27dyRgD3nu2+XZHFj6/lbt64+uj1r/fdZWevupCtEIvmJ1q+e2+fr9Qt+RgjPxtbrf/pxaXHWtnWo2devz8paH0BXiETyI238IXUDA33TxjQWwp8A6A1wOmDvQ1eHRPIjAfRNDPbNm9LLt21dc8QK+/avPtm583/X09UhkfwK9tQUtvDlp80ZBQC9fOeO/+Xv3fP9qwcObKbcciSSn8G+ALBX/vrLqj2sVt+ze0PRweyfZh869DPBTiL5WRg/e/OmtIrtWWtP79j+Vdm+vT+cPXTw508IdhLJz7Rxo+XxLT8t28dqdRbCZx/4KQewxxHsJJKfafPmpY9mbVubDdhr9+zaUHjo4JYygp1E8kNt3bru7wC9goXw+/dtygboDYcP/fJJTs5v1BtPIvmTsrLWP85g37nj68qD2VtOA/SyY8ey5uTl/U6wk0h+CPuFPbu+PY5avfbokW2nT+fujzuXd4hyz5FI/gf7V6UHft+8k8H+x7GdBWfPHFoO2Gm6LInkT9q+fX2fXTs3fAvQy48c/jU/99Tvx87lHV5PsJNIfqijR7ddd+jgln/mHN2++uyZw7sA+6azeYfpQW4kkr+qsDCnU/7ZI0MA+z8Bez+6IiQSiUQikUgkEolEIpFIJBJJkBJmTr0iIXZau4QYc0ced4h/YXq7T2OjL3F87LT2TrZvsj+3Txsvnm+bBIfPZ+dzyfnFmNn7HYScn+3/M7edGzO5DZUGkn/DHjutU0KsORoFP4HHH8fHRD+REBs9w97xseb/4L14J/vY+zVuHx2OExAfG30z4LrqMs/3Fpzvv+w/B+cTc8n5xUTHAPiPBZzfR7b/zzwJv6vx++1xMebuMIFP8kPYY6LvQiHPB4gNzexC+Gt81kvwMAB284evzGgr8lw7Yd9HcZzSZji/Mhw7Cz/fwc3DgAjiaiodJD+r2c0TUMC3wYfgYhFwnINPOrhSwH51gOoYfi6Ii42OinvBfL1w2M3XoOZ+Dvv+Ch+GC6zH8z74pwH8S/g8mg1J8qs2+40IW4ejcEeikP8Nfh/eBdc4AYHVqh9gn+mAdZK98fqT8P/BifD38AkXQNVagY2JZmG4CufR3t25ol3dDmF8b3x2MD7PiP0ewjE+tMHp9HPe5c7J3m/Cy+ADLvZjN640fBbNiCT5p+Ji0WaNNY9Em/cgPwTm/8XNjL4VIbjzY8SYe8FoHpgjsP0c/NzPwc0HVRXA3YzPHAOLbivjc66LY5/Bc2y8dxI3kWt4bnBX4f07cKMZifN7Bb8fcXJu5fA89v9QySD5pVhbGgBm8IXIKPjJsKBsPKiJ28bHTMPNI/pu7PM29i9xGtrHRh9Hm3yMJ+eLfeW8sMdGb4Xbuji/Ngkx064G8JOxfbaTczuKm9X9VCpI/lvDx5if4QvlxcBud/Nog306w6MAzgkX7exjCTOnKcQOg2G/W5zA/qsr2P/c39wetbyZfb6TG9GniAauo1JB8lfYn/QW7Pb6eNb0W7H/dyx85wGrHnD+khAzdVBLws7V8qjhoxc5aW6w872HSgWJYBdZy38yM1qBGn6Dkxr+AhsjRzv86paE3dZfEf00N8rgeKyDqPn1VCpIBLtIoRZF2Gzt/XfSCRi9H3BFtDjsMeaJrO+Ar3mB44yhUkEi2D0QjnUt/LqTsf1qwD43ISa6ZwvDbsJ+OTzH2o7jDKVSQSLYPf2M2OhAHHOz09o91qyXCOyZaFb0p1IhMUWpFJ2ilPLbowb36URXQ+Kwx5g7wnOs7fSmgOGzzc8i5O/UUrAjmngc++U1HWs3zwLsHXl3Gh8c0DZKK+8UpZF3jdIoukepFQb8TMDf/7ikYGqxnUZ2dZQ6QIn35sBfYbv9UVrFRuz/BfbD6yi8g/s0GYrAvrCsPXwjjhGFfb7A/pvw8yy8Fr/HjdfIg/GzMwDwysT+KGVAG5Na1smkGtTTqJaPM6oUs00axRqTRn4APwvhk/CPcJxJrQjH69cZNbKOfOfv8nPwv5k0snZGtaKTSS3vit9vx3Gm4bjpRo18od12bfAZnXAN+uJ8nsG2m7BNEVzC/fwV2z8L944KGtDW4/97cJ8rTOqAdiatvAu+k0E43gz8Hm/SKtbj83+CN+L3Vfj5jkkrC8F7PYwaxZW47u14/rd2+H+6mYL6CxrKMWoV7XHsrvgf8bmyZ3HsRfj7J/gMXAj/gs9dhveewTYD8XcXVq58AXYOVL2LmWwW+LaWgB3bs+E3NnuwwmHYbS3+334OX6KsG8C8DaDJAGoEPBugATrFebzWANfB87jCA8gVPbFNGLyBe5/PpdhuTpRqUF97YKLu7dsOr9+BfR/FNjtd7F+Ec4iPUssHskLmcWFnNxaNrAtgUsIM8INwg3vLTwKMF02qAAVuFJ3cANXWqJJfj/364UZxN/a9H7C/jd+/x2uljcfEaxusEOAmgm3k8Kt4PdfNufxuUslC8Bmir0GkWtbGqA64AYBGAqSlcBncAFfDFdzvDpafBexL8LlR+PsueIDVGoUC7+GmJd9m1Mofc/O5HXDtbsF+U+E1cDn/Z11idm7p+Iww3JSvEXuTbQ3YUXNfg+Oynvl6ntl6W+G7mhv2hJlT22H7MfBuh+m8Wfhfw3mAkL8OuL6BTzoBrwSAvgRwUDvIRuD3BXit3AWojS4HsItR+/exfo5adj3gHY/XvxWwL3MV9k+GB6Gm8eiOH6lS3ArIn0VhPcDBUw0fhbfAX3O1+W44nwe0GhTu37D/JBynm9MaTB1wO0B+B9tvA+AlzsDFNt+alIO64ZiT8Pcm7lzc33jUivMAfqTY/x3gKAHdfEBUBNfBx+Gv8PrnAPpj2++KbLjKCYDF8B7OZ7ljXADs05xGEaqAq3HssfiM1XaQF8BZMIsivoe3wafgGp7PxM1P/gqA78sXXUgJdhus5gVOxt3P4b1hzQW7dbLPzOhu+IwQbLfS7v9l02TX4/+McFL7KVbCp1xAVwYn4abwNH7u5mp6Vuv/zHkbfJp73XHfAmsNr5GHw+/aRQuV8DH4AHyU+9sJ8Iq3cZPoKvaLAFwaOAnAVHDgnEJBWgAAJqBQyqI0AT1MStlAgDwS7z0Pf2dfE9v5EI4zAzUW73pmHE/D3Tiq3ICbhRvHC/h5zO61cq52P+div3oAvxnneZsI0IMBzo8cQHXsswHhg5FaxbUcmG2MqoHXAlwjtl0lsPZlPorrwNvhg+YGu5G9gG32cdsymDchnP8PPleDyuIOfI+3obmAm5DiIbw3n4O+3uEzCtn3hOZHb3YDkTLsAO0FF1Np9Z7Cbh1GizFPRHs7PCHGrG00wvVQNgUWkD+Ibdg03h12/+tBvP4+/sc+LkJd2R0AcQrAiodZu7vWATgG8TnOu+D3AeB0wK/hPAz7T8PradYooCmwuRzUFVb4tfJU+J/4PQr7jcFPI36yG8kqJ8DjRiQfJBL0oSjg39hqZyswZwDlrEiN7AYn4X5HvH8PCuEXToDfDeDGobbpyNOx1hWfNwLb/AdGO1hR6QRaVusXwGX4nB9QoOfAj2PfifBU3Ahew3u/Oanx0Y6X/1vQ/66RawHMBri2EVC8NpX9j7xNELXsHg74agfo2P4ldiH/HhznISe1eiec38tcLW4D3dYnMgSf28HJNUfTR2bmIg7Hm8oF7PsR3u8gadhjzNE49nknC28mu1sR5wL2Bm7lHesT+MXOLFz/A87niQb2sck1LmG/2OGmlfUExOGA6xfeNrhWsRDQDcd217IOJsdCg/f6WsNuVhvzQ4s2vtyENvRt2L69w/7t8d4A22fw7AtQRbRVb0VBs9jVtJWAaTFA7yHgJtGHiwYca+laeB18u4tr2Bn73gNon2Q3F94aWiP/He8/hu3uNKoGdWPX7WIIrBzY1cRuUmpFCg/wrHb+KkoZcJOb7/EqgPKFXWiO2lWejmvSzWWfg7WGVxx0AK6chfz4GQ5HooZWm4L68/ZfsJsWtjlvt+8+nG8kboTt3fR3tDeqEWlp5QU8wJfivCZLHPbhOHauE9j/xebVXwbsYs3+51PwD4gA3oiPnSZzN/wD6BSvO9TQtbgJZESpAm5x11sapRqEKEFxmAfYnwCsFkC3c15QFcwDbTeFJrBvEdj73AEw/Zvr0W4E5XSkWi54FpFJGdAXhXcfD6wVOHY0gOvgqvfbqJL3Asyf8+yPkF0WjP07u7j+7aJU8ruw7Xqe/XfhhjXUTQ94pAO0+aiN/+n2BqlVdMG2ax1gY230dwV0grJOvB0O4fhihOuCJpZEqQfhs+Uv8TYbNGgiDu7TRcKw3+N87bv5CdTsnTyFHbX0Nm7125+OMe+zTtxxDX29NXuNNVGGeSLa9x1cfHmKGLjwkp5xrSJWSPuJtQWtYX5T2DMB+u1u9w/s1w5g38/T/q+MCrzjGvc1s1yJArLZAZJ9qNkEd/aw/wHtYzNXm17ayaaRb4S7uxnmQw0tj+XpoNvqGBE5GybEts9xQ4L2x8jFZz/i6rwBzX+tIfCfwJxG7ThJYPg/k+vMswduCW5APVzcnNriMxOxXaXdPmdx03lCyP/aOGKC7ftxTQ9H4Etwg5vim7BHh7GkmB520DG4r4K7XOIYcxe8f3X8zGlD8PeT8G8c2HVOoC9iY/4JsVOv4l3HzwM7+/0FwbCoZToe2FcAdkEdTIgMVNj+iMP+NSgUGjdRSTvUyA87tLnrAM580T3ZGnknJ7U7A76/ANhjeGDfILzPQT4K++xxOEYBjvGs88/t3xXgzXfsUDNpA4KEjYvLJ3Nj4Pb7p+O63+z0OqkVbHx8i8M+u3EsUaMHrF2Pc3+Yp9+gBjeCxT4Ku8cddEKH3ubGTL4yPsZ8nzV0v3Sc/ZJUVXEzoyfHzYru6H3YtQE9Lwt2rSIA/l4s7ACsh3VSjENb2yiwY8sBtvY43kv8Q2jyJ5oddpVMxnX22R+jEjegN1xcdza2neE4lIWacfxlwL4gytWwo0Y+HducdNhnI85F9HPjjBrFMOy7n6d2347jdZMo7COctNlZD/3I5ob94ni7LQNumotcejsSYqf1bQbY0e5sCvt6+A5h+8vvwLZfioUdBY8B8oPjWDngnCF6Mo5K0Qa11kgn4+ULmxt2HKMf9tnI8/mfiIQ9HzXjUx7CzkLz11wP8Sle55mg8xXraRc/L0DWF7V7Bg/sh40aWbBEx9kf57LPOsL1M2C9s6Vg54AfxOXP42/Lx5gfbynYcXdWyJsVdrUiCLWDY+hdbVTJQzz5InG8frax+SbQfue6VpZ3w43ijVaAvYetY+wSUFhYvIh1XAposz/Fbg52+55kY/OuRh+4sXJHOJd5cr1xvCu5m4fj8U7gRjReirADyNe4NrMjXIvwWb1bEnYr8LHTxvLP6LN2GH7XUrCz8fu7mhN2hLhsbP00D+zhHsGukd9qtI17O06l3e2mCdCDG75radjb4/337MbXG70lElGP+34KRaLDbLrNJo2sv4vPu9E2xdU7sHORwvM8xzsJ2CdKDfYPX5nRia0qc5IhJvaTWdFXtjTsaMOzFFrHnWXXbQbY5WzMPa8VYB8Bn+cJ4x/3rGaX9wLwGTzQbnazH1tsk9LSsHNDbw9xs9LsYSlAeByD2r2ji6E3Ng/+Z4chu2ddrUvAe7diu+U8cH6NZlAvz26wike4RTKShz0u1sySRWbxQJULUMezKa0tDTv3/6c6C+Wbo2Zvy02hbVHYAZMKPtikg06teMdD2FFDy5eIhbY1YY/Syq4HHF9yY+T2wPwBT0e7uIv9kJh19Z1yYHfcDN6xWyhTAegWmgL7dXMTdvfmFtg4wr4Z7w306JprFZN5blYHcLw7pQQ7Axlh8d94OufqrTnbY823CzlOM8H+bgvC3jo1O2AKNDYdrqo3qeVfNc5UE6NIjew61G6f8UD7qVRh5zraDABkF8+c82JA/RE8BL8H4Ccb21YhGnrPrjYtxjVcJGQiC4sUsH0Cz+dk4xzGeQj7FOtimEuPty9KM6i/lGBHiH49jpnOA9RZ3AQeFd7B1yywP9KCYXzrtNkB5h3wSh5AcozKgNtFFzy1/EYAuqYJtCqFWcqwc9BMAiR7nSxjLeAWq2zmanxuaqxiO67fa6ag/tcIPU+cz4t2EcHFZgOO85wnN1jceB7l5uPbz+L7RkxCj+aGneWh43K+HWqSkio2enlCTHTfVob9QyfHXOs3sEeqAtiqq9k8gOQDtL97UPD6Yt8jjhNbTGqFQuqwcze/cVzv/HEnK9jYqrRj1qWuGpbMw7popaPITswJtok7TW4oaZFq55NxnAx3dsK+rzocqwI3rldEFvbmzUEXM20Aau/lDh1z9dyqM1ERTdzM6f28DTvOIdPJ0Ns//AZ2VpMAxAe51WUO69IVGdi/qzjYFYO4Jaj2wKbCV/kC7Nb2uFZ+A4B5mpv4Um2bwy6fC7PQ/e8I2SMBrBygXelJwTJqZAO47DNNx8a18rEiO+du4hbx2B+nyKSVaUUOh73L10PuDdhxnO7wLJ5kkyyN9EzWGy7yXEP5wYw+AHvSG38N34o4NssvIdbcdOVolEb+ssNCGJ+A3Va7K4J45sYzH4cfENxeVynaAs5HmsxgU8nvQ5OgnSewm9TCFvN4GfY7AUwqFxp/C6BGA55eeO9ab7Rd2TRX1LxvsBVqTae5yudGamQ3iogSgqypquyOY7SuqQjoJBKgRbxzxWOiv4Vv8vR/ZY9dTrA9dvkUD0yzhWaUdYhCJjhpX7Opr+08ON7DvA96jDG/gBq/Cx+snzksRPEl2DtaM5041MjcEtXVeF9QLzHLIQf/6jAnfoFRLbvR3YIgp7CjOdGiYbxW/iQXwnOLVFiNLvP6g/5wTA3XHHBcsXYW38VEZ+vZHW4aHbm58ZV2+5eZ1MJ74d3BjtfPw/0vA/bpTtauv4/3rvHkmC5gb0iYOXWgyGOxKbO/8xwrIyHGfEeTR1OxcVWAtdgBtGJ4ltC8YNaMJE1hz4bvFgh7P2y7hgf24YJqZbUsgEtcUdd0iariE/jWSBdprtgyX4D+uG39+cW15JvxmpLldRPQsdeLJZjkAbVM8DVUBgzgUlc5HiPB3Qo+/H+sp30DT7qpvSa17H4A2Avvd8fN4Cq4S2RwQEdjcEB7oavU+CII1MCzeLPdaORHAKwuSiXv6OKmxCIQBctqY5+TDsd8PlIjby+ywLPki985m0WG9y1xseYeQh6zjG3astowIXaaHDVjhkP6qVq8djo+dtoMvN8FsHt0A8G5POF8qao5Ie4F1+vhbUOA0Z1xDvfE2RbD1Do8ujkV59YfbmP/hbUdjy8foI0AWFt4YF0dpZb1H69x/qWxO/h4reI6NAMe49kf0YF8Avbv4Sx5IiC7Ikqt6IZtI7j0V5dmy9HIE9gyWRyjm7ueXoA5nsstV8fTdl7BMsvAvZq0+TXyG022fYvs2vtZ2Ha0kNoJ2/XE9qHwYd717KoAJba5ji/jDdfJiBuN7Hru/H/nOcZPiDDC8f7NJpXiar7su9y01/MuUkvtB1xrANln8HvwE/ibZYzR4fhq/GTJJe/A6zfhxtJVSK86G6pDEyGDN5+dRs7ScD2IY97GOuEcrhlLthEIr3RYIvvvSK3rvhF7fRob3RGQ94YnuXnmOWp489dsnTfguAfb9wGwN6I9ew2O0Q3ujlrwNrwuwzYskeM7Dser49rEX8XNjA4FbKJDbXzGlfEvmHvhZhGAc9ni4lxLcHOKwbncCeOczNdx59gt/oXp1+M8ce7RSvi/Divv6q1ppWPMiYB8gGPYPQgQTcLPFznQa/hhteaqewrQjQOUN/zZxpd1x2vD8d7fbGvZ5cedZKphoXwctn0QVl1yDmprlhwj/BqX+oo/gSVLNa3FNiw8VMv7u8qEwgHzm5MUUSzpJBtDnwiHwOFoU5tRMBfh9+LGSAAFeB1qaqO7ueXY9k7476zmhfc6zyUnZ/MAPoCfBJQj0Ka9motG2uBzBrJj4PUP8XMH1/TgOw67kSTDL7FjNLlhWGG1JnisF5hXzj70ZrXz7ywyYEtLcT1i4BCjOuBad1FJlHW5qzydZyiucY7+lzj+UzAbJQiB78P2s+xy1rFt9uFzn8X/IChdNQp1V7a6DH6KS9+cLzCrS50VkJjo9YA6Cb+/lRAb/Rr8ZrwtgeMeniQR52zZZM3PAtLeHtTivbB/BPwcPnceYNzufB77JU+YOQSvwu8fcOf4Gv7+CPuv4+k/YAknf8BN4mlEJj34wuaXneSOc+bzDHi7/YO5xJO1AvdnN5N0h05BE0A/LeIcWMbbh5zVkHYh9UguRVWeE3CqueG1M3b56ho4YOcARkGLd7iltZXC0lRf7ANYi/MbxJ1nB/hVMfvbjqH40knP9t/ZAhLRsPMPz+0D8K+bVINudtVfYUtiGXALPnuO7YbRZI5+Y167c/ARuyQb9bYpsYokXIOxLKefwJ7nNqiR1S5yt3vDDB6WHYb15P+DrSzzqL0/c2oH3CSm8TzIwVs+A3+Lz3gJ53iXqzbyE1ybutFZ3JLU1U6tCVDagTqSW39uf4xvePbbyNXuB7DPvEvPQWbA61u5fffC37n8fJvdrhe2LlVVKW5BaD4dTubyxlfxp41WHAeA61Cw/4uoIETMUJ1tnJo3USWfa3EuZ1HLx5lUsltt7Wy2fl7xtEjYzwCOD5w0KboY1dbQ/HsXqaLFuAS18Aew255x3CC74TrqAe9soy19dIXzYyq2YZsFOK4J7fNbxOTHRxjbEQX7aW9Cg9D+RJytVv+Sdbyx2XCAPASh/k3uss64GfvugePFee9czWfjbMknV+D3t1DTT8W1uBvu4KatyYZiFEo732NL/sg6ypxYOaCzHezdWefbJcdgud6b7KeQw0Hc+/0cCufVeP1ebv9AWwILF59vs+A2HcsbZ1LJbwHIKpMtk+tz8POcAZn8PryuRUEdYFQN7CI2hTFuDizJJWvzhgmwHp81DOfTF+fV8eJNCU0jgftbzTLo4nydzgw0BfVnIxM6a5Ry+bBbp9KirKgFD19qFd3ZGL4tZGdJLnCtG217Mk0oQL8H23k0HIaC3RZmk1LCRDocgLCJN8/D0+3fA9jB1ue4xZj74WZyHZst540RCxybrZC7y815meHJwv4H8zCc57043764EXXHeba7gsRb23eIUsquBGg2qwI6X85TZyT7fwb17wmoLFzNylJpx5vUMj1eC7j4pBer5cPx3t+MWvmb1iW9TRfR/DnurZHP9+hctAEd2Hr1i1YP7HA5T325HKGGbgNA2FLQK+EOUvm+2Lmw0QQilCQOLEQp1qfZ2NrcP6D2ZE+HaWdUDmzjGLVYh840sjaAvS1gb29iz2bTKpbwdrRpFMfoCpNIEhAbrkJNzUYhsrkaehteC/LgON0A/Ms87e18usokUuuD3h2Asl74HLtFJA97ejzsGwj/6rh8la40idTKoTtAZCvQDl3SoeYi57t72OU3Oy5MAfyf0dUmkVqzVtfIbkL4vsBxxdhl3kB64JgJDrPh7qerTSK1olALD+Sehe4wVCY+pbPdMW+xz1ZrZI931ihuoKtNIrVuzd4PcGY2Tfwgn+7pMVGLD2fr0u164h81qRU0NEQitWqb/d6+HQDn/3FDbZckkQCgQZFq4Y8+ZvP0I1ka7T/b61W4acyHe7LFSiQSqbVDeY18JMsj1+RJrBprbrlJJgaru6fwsnXlGvnd1gk43HPSAX06PICuMIkkldpdpbiarYSz5YlvMvvtlLWzTSOfjBpayZ6aGhkccIPVWtnNeG0QtmE3iyfg37h9zmM71OiKO+nqkkjSa7v3Mdp60EudTHkt4J66ugLwf2GztRNuDbfUtIqbjMNSUT8XqVX0pqtKIkk1nNfK2QMSY+BcDxa75CCE/wS1+XD2LDe6miSS1EN6bcDVgD0YfpF7rFOJC8CLjCzfnVb+HCDXRqplPekKkki+BTxLBtkFAN/AHtAYpZGFGTWyh1HzvwW/H6WVTYbHmtSyAYC9F7bp7GkeOpJv6P8Be4IG54ZeBpEAAAAldEVYdGRhdGU6Y3JlYXRlADIwMjEtMDQtMjNUMDg6NDQ6MDMrMDA6MDDd8THtAAAAJXRFWHRkYXRlOm1vZGlmeQAyMDIxLTA0LTIzVDA4OjQ0OjAzKzAwOjAwrKyJUQAAAABJRU5ErkJggg==;" vertex="1" parent="1">
          <mxGeometry x="16.58" y="390" width="74.52" height="76" as="geometry" />
        </mxCell>
        <mxCell id="SxAMXVoo2cSi_DEeGkWg-20" value="authdbd" style="text;html=1;align=center;verticalAlign=middle;resizable=0;points=[];autosize=1;strokeColor=none;fillColor=none;" vertex="1" parent="1">
          <mxGeometry x="31.580000000000005" y="460" width="70" height="30" as="geometry" />
        </mxCell>
        <mxCell id="SxAMXVoo2cSi_DEeGkWg-21" value="" style="shape=image;verticalLabelPosition=bottom;labelBackgroundColor=default;verticalAlign=top;aspect=fixed;imageAspect=0;image=data:image/png,iVBORw0KGgoAAAANSUhEUgAAAPsAAAEACAYAAAB1UADIAAAABGdBTUEAALGPC/xhBQAAACBjSFJNAAB6JgAAgIQAAPoAAACA6AAAdTAAAOpgAAA6mAAAF3CculE8AAAAB3RJTUUH5QQXCCwDHDiC2wAAAAZiS0dEAAAAAAAA+UO7fwAAOmlJREFUeNrtnQd8U+X6x2UjKDgABw6Q1SQObLPKDG1SaKFJUUBGiqj3qle9evXvvbZw3Sju1VYKomW0TVtGQZZecQCKA8pGKKsgUCjQXbrH//cmpxjSk+SckLYn8fl9Pr9P2+Sck9OT93ve513PueIK0l9KM1aaBszIjOpAV4JE8nfYVxlfhmV0JUgkf4f9S2OKOTNiFl0JEsmfQc+M6jpjlemnB5aFrTYkqQbRFSGR/LZWjwye8aUpZ9JSw+awhZoP6YqQSH7bXjfNAexlgP1nwP47avdAuiokkj9BvjaKdczpAPpOuH7KsjFbAXs5/FFYkroNXSESyT/a6W1mrI7qA8hXwA3M5pVjfwfoDfBhwD5elzSYgCeRfB70laYbEL6/AcgL7WA/wsFeY1ioXqBPUvagq0Ui+S7obAJNL4A+G4AXNILOPH1lZAUHO/NBAG9E7d6WrhqJ5Iuwr4zqBtDfsq/RL8K+KrLBDvbasIXqJfBtdNVIJN+r1TtzoBc7gm6D3Vg/epG20g74QtTujyCc70xXj0TyLdDf5KvRG/3gKmNdRPKwHDvYmXcYFqrupM46EknqkLPhtbVRvQH6YgBd6gx0DvbasSnDsx1gr0Movwq+iq4miSRd0NvOWB01ACCnwTWuQHcBu9WGJM0CQ5KqK11VEkmSoJsCADGr0avdge4OdrjCkKT+D4C/jq4uiSQd0NmEmYEAeJFQ0AXAzpyPcD4WwPekq0wiSQH2NVG3Ad5UMaALhJ35pGGh+kkK6Umk1q/Vb5qxymQRC7oI2OsA+37YDOC70BUnkVoPdFajV4oF3Qr7l8aa8WmjdriBvRH4w/AkAN+JrjyJ1IKanDnm+ikrw98DsEWegM655r60kG0CYGeuB+yn4SgA356+ARKpBfTAitFdJq0IexU/S6aujNgpZJjNC7DbhuQWqsvgSJpDTyI1syZlhnUC5JPhw3ADavg81O7lLQU7B/xe/UJVMIBvR98IidQ8oXtb1OgqQP4DA73R0asiD7Uk7Fwb/hf9QvUw+lZIpOao1VeE9YKXAPAae9inrgzf28KwM1fBawwLNffQN0MiebOdvnx0R5i108vsQedC+RIPO+ouB3bmC/CisCR1f/qGSCQvaeJygxFgFziCzrk2etW43a0AO3Mp/CaAv56+JRLpMhSVqbtiYqZBhvD9gBPQmeumrYzIYUkkWwF21mFXAD9uSFJdqUsaTF8aieRRjb7C0Bugr2G1twvYWShfhVD+TGvAzgF/wrBQFa5fqKQhORLJg9D9GrTT32Lj6a5At8K+YnR59Mpxh1oLds67EM4r6JsjkcSAnmm4EjX6gwA5xx3oje32qZkRLCuNmDH3mgkZ+iwvws68HOH8NfQNkkjC2untAHoIAP6VtccFwt4wJXNM4YOrjH+IgL0WkcNeL8POMtb+G233jvRNkkhuNGm5oe8DK8LSAHC1UNBtofyYUoTyeWJgn7x8dLaXYa+3paXWjKNvkkRyVasv1V05fumov01Yrj8tBvSLvfK2UL6kFWG3PnSCTbhB+70ffaMkEo8i03VXmDJ0/eGs8UtDz0xaMfqMWOCnZIbnIpQ/1cqwM5cbFqo/GJ2kpfY7ieQoY7quA/y6KWNUQ1TGqLyJywyiYZ+8YvQFhPIsT3xdK8POfBrh/AxDkqoDfbskkj3sGboBpnRdPoMdrrl/mb5YbLudGaF87oNfGoslADus/haw30V56EmkxrZ6Jmr1DN1cDnSrEcofm7Q8LF98KD/mFEL5ImnArqlGOP8KgO9G3zKJZKvVRwDwc/awI5Q/P3G5ocyDjrpKhPL5ApJatATszMcBe4g+iWbXkahW72TK0KWw0N0edrgWofwpBq8HofxBwHxBIrAzfwPTM+RIf/mOuSkA+6QD6LZQPiPkAEL5UtGh/IoxpxHKV0oI9uqwJPVj9G2T/rIypel6Auo1cD0f7KjxyyYuD6vyIJSvRyh/3E2vfEvCzhbLHBqdpKFHQpP+guH7UutQ22OAOpcfdJsRyu91zE4jxFMzI3a7abe3KOzW7DZJ6g/HJGkpOy3pL1arZ+juBMzfuALd1lEXcnLSCvG1++QV1rnypRKCnfkwrKFvn/RXqtU7A/Z/AuZCd7AzT1xuOO5BKN+AUH6fxGCvNCzUfK5PUnanUkD6a9Tq6bq7AfFPQkC3hfKh2z2BfWpm+EGJwc58CO13E5UCkt8rMkPX1ZihewEQVwmFHaF8EUL5Cg9C+XKE8mclBnt12EL1YkOS6hYqDSS/1ri04b0j00d+KxT0xjH3ScvD9nlQu7NklDudwF43dXnEqVaAnfkY1e4kv1ZEypC2EalDHxhrGXbOmD4yRwzs9y0LZbDXi132ilD+jLMhuGmZEfWtBDt7dlycnp79TvJXhVuGdoa/jbAMKx6XNuI4IK4THMovDalBKF/oQShf4SyDDWBvaCXYbdNoF2oMNI2W5J81u2XowIjUYeWAvWFs2vBCY7quQHi7fdSFicsN+z0I5cvNK8fmSBB2NtHmU/g6Khkkf4T9ZQY65zy03c+ICOWrEcqf8WCCTd2UzHCWvaZYarDDuYBdY0hS0RJYkv9ojEXbHYDvsIO9EqE8G2evFgr8+KUhpQjlxSe1yByTP31VZI4EYW8IS1K/DVOCC5IftddTh4YB8BI72Fkof8KYISqUL0Aon+NhKF8oSdgXas6EJgX1oBJC8p8QPnVoIgCvtocdPmNMH1ksslf+ggcZbOqnrow4++CXxnMShL1Bn6R5kEoIyT9ATxnSH2DvdQCduR6h/DkxE2wQyp9GKJ/rQSh/GqH8aSnCDmfpk5S0QIbkFyH80wD7PA/szNkI5UtFhPL5E5Ybznow5l6NUL7UfiWchGAvMSSpDFRSSD4OenD3iNRhywB1nRPYC4zpVtjrRcyVZ+Pt5aLnyq+MOIZQvkCCsNeEJWmWjEnSdqISQ/LdEN4yRO8khL9ohPJHWHtcRCjvUTJKhPJ5COVLJQg7c7YhSXM3lRiST0qXObh9hGXoiwC6zBXs8AGeHHSuXIpQvkTMs+Aa58qbV41j7fYqCcKeb1io/heVGpJvhvBpwbcD9mVuQGcuj/wzZ7zAUF5/zLNQPnw/QvkyCcJeC6cjlL+KSg7J5zQGIXy4Zeg+AbA3jE0bsV0M7AjlD05aEeZJqumiB1cZayQIO/POsCT1cCo5JJ/SKIu2qz5F+/Lo1OA8x8k0vE4dliNmYQzr0Ju43FDkQa98A0L5vWw9uwRhL4NnGZJUtDiG5DsypGj7wsvDUrQnwlOHFgio3esi00f+ITKU3+lJMsopmeH7JQh7tRX2JPUiwxfK3lSCSD4jfYpmCHwUwFePSR1SBJhr3ME+Nm34PjGwR2WMOoFQvtKDUL6CDcFNyxxbN3qhtqoVoC6AzwLsc4YkdYHhC3W9/nNVsX6B6oj+M+WG0PlBIVSCSD5Sq6vaG1I0kxnocMPolOBswFzqBvb6CMvwIlO6rkQM8Ajlj3mSnw6h/HbzynGV4YuH5DZf6mhNPnwSQB8H0HmGz9VlALoCPgnnAOxj+vnKU6HzlPVwA+eKkHlBz+rmD6Yxd5IP1OrJmm6A/S0GOue8cMvQSmG98iMOigvlPUtGOSVzzB+AvTAieViOF8AuNCRpjgHqbMMXqiOGz1XnAXO1/jNVIXwmdL4yFz4PkMvtoHblxQCectSRfKK9fgu82Q72WoTyOYC51g3slWPTRpwSF8qHFHuSjJI9Q25qZsROsbAD6KPwHkC9F0CfAMzlcGXofFUxgC6AC0VA7cy/w2oqSSRfgF0GV9rBzkL5XTyr3pqE8mMtw0sQyp8XmYxyryePiMJ+heFLhuQ4yRHH2tKAWv0r2tO7APQfALkGBthWmJmr4LrLBJvPNajZzbq5g2mdO0nCIfwSbTt9svYRe9CZ9SmaUoTyVQJC+YJx6SOOilz2ut+TITj20MhxKcN2oqbORXt6O6D+Be3oPQCtmIOunoO53qFd3ezGOXwRMi+Q1rmTJN1e72BI1n7sCDszQvkdAmCv4jLY1IhMRlngCewRi4bubUmIRfhIyDxlPypRJOmG8MnaTgD7az7Yw1K02YJm01mGnzOm6842dzJKicPeEJqoHKGfq6T8dCTJttevhE/ywQ5XIJTPEwD8+cj0kWdFJqM8K3aCjeRhn6ecCeApqQVJqrCr+zsBvbFXfqcA2KsRyrOFMZUi5sqXiE1GKXXYEcavg2m8nSTZmv1+F7DXI5TPExbKDztmFLESjiWjnCBygo0P1OzFoxZQJx1JsrBrXncBO/OF8NShRwUAn49QvkxEKF+HUL5cTDJKH4C9QZ+opFVwJMnW7GvdwF6OUF5QRx1C+ZOAuEJEKJ+LUP6UP8GOMP5lKlUkqcK+1w3sdWGpwWyevJDps4eMGboykckozwkdc/cF2EMTg1ZQqSJJEHRVN8B8zg3sbAiuAKF8jgDYS43pI4tEJqNk4+0X/KZmTww6QCWLJDnpkzV3AuYCd7DDZQjl84SF8sP3i5lgg1A+R2gySp+o2ecpz+vnKm+i0kWSFuwp2vsAcokA2FkozxJaFLmDPdwy7KiYzLNcMspSIckofQT2EoTyEVS6SFLriX+G9bYLgJ2F8qcRyp8SMn0WoXyuyAw2OUKSUfoI7GUh85QPU+kiSa1zLg6uEgI765UfnRpcKCCDTcPYtGFbPUhGecFPYK8C7B9T6SJJrWZPA8Q1AmFvAOw5Lh4LZe88kXnlGxDKF7rrlfcR2KsB+xdUukhSq9l/Ewr6xQw2qUMLbSmp3CSjTBt5SGQGG7fJKH0EdubfqHSRJCOdRdsZ8G4TCTtb9nqWtcvdwF471tYrLyYZ5Ul3ySh9CPYs3fzB9PAIkjQUmqztI2BCDV8ony3g8VCeJqPM8RPY94UkBg6gUkaShPRLtArAu18s7HBxuGVomYBQ3uvJKH0I9v36uUoFlTKSNGBP1oQC3BwPYG8YY7HOlXfXK181Nm1ErshQvhShfLkfwH44ZG7gUCplJGnAnqKd4CJphbsx970CYPc0GeUeP4D9ZMg85f1UykhSgZ09FOKUJ7AzI5QvaKZklAecDcH5GOwTqZSRJCFDsvZfgDbfU9jHpA7JaqZklNUI5fMJdhLJW7CnaF8ROC/eWSj/h6DZdOKTUZZNXG444OOw5wL2KVTKSH4BO1scg1D+mMBklOdEJqM8xzfBxodgzwfs/6JSRvIX2Fkyyl0CYK/hklFWiExGedqHYS8B7K9QKSP5C+z1YSnBpUIeAOmtZJQEO4nkGewvXybsrN1eDtiF5KcrQCh/wYNklFUEO4l0mdKnaCd6Os5u/xCJ0anBRwXMpmPJKE9cbjJKH4K9CLDPpFJG8ifYG8JSg9lTY4oEJqO8IDKUP28/5k5DbyRSa8LOklFaBOWVL/MgGWW+fTJKwF42bsnwAwQ7iSQO9gjAevxyYbeF8kPy2bJWAckof7/MZJTlppSROQQ7iSQG9mRtIEDN9gLsbNlrvpAMNuGWYTkik1GWOSSjJNhJJNGwe77ElS+UPxOeOjRXyAMgjWkjT4lMRnnELhklwU4iiZUhReVR8gpns+kQyl8QmIxym6hlr0tDDtklo/QV2A+FzgvSUikjSQh40TnovJGMks2TrxaZjLKA65X3FdgpeQVJcrBvZjPhvAT8WYTyRQKTUR70MBmlr8C+V5+ovINKGElKPfIWMamkBSx7zROYjPKAyAw2p7hklL4C+zZd0uCOVMJIUqrZZ8OV3oI9THgyymJTuq5YZDLKoz4EO6WSJkmuZn9C6OOfBLpUYDLKC2KTUd63TL+bTbAxpow8JHHQa0PmKdOpdJGkBXuydgQALfIi7CwZ5X6ByShPiwvlQ0onLNNnRSwZmi31xz+FJgZ9QKWLJCmNStX2BqDnvQl7WIp2n8AMNiXGdJ2YpBbMJeFLhh2VOOwXULM/RqWLJMFQXvO7N2HnklGeF5iMMkck7OWAXept9qLQeUGURpokyU66xd6GXWQySuFj7umjLoQvHnpY6impdPMH96aSRZJizf4Pb8OOUP4EmxorIJQ/KyYZJbYtHZ0ULPUlrtlUqkiSVGiKOtDbsHPJKHMEJqM871+wB2VQqSJJE/Ylqm6GZM0pL8PeLMkofQH2kHnK2VSqSBJts2s6wcu9DDtLRlmG2r1CAPA5QpNRShj2/JDEoMMhiYEHR80LHEWliiTNmj1V3Q7t9meaod1+QWAyykKE8mUShL0ermOTZDjXWWvuxKAjoz4N2jbq08BfR8UH7dXFB52H6+BaOF/3aeDVVKpIkpQuaXAbfbI6yMsz6RqTUeYITEb5h5BQvhlhr4HLQxOVZTD7WRMyN6hk1NzAfbqEoF/gXQD5OFwJN7iwBaY58SRJ98jfBDjXeb12tyWjLBRQux8WkozSC7AD6qBSwFwQkshCb2VxyFxlHcAuQE2dPSohcA/APqiLDywCtPVuwG7qhMAn4XZUokgShl3bFXDOaoZQvkBgrzxLRlnoLhmlSNhRSwflIew+BaDPwMWj5gZVAuo8QH0UQB8GoKdEA+3c5QBdq5s7uA2VKJJ0Q3mLti2Aj/T2PHm2om506pACIckox9qSUdZ6BHti0DlAfQw19NGQT4NOoU1dDpcC6jOoqU8AxNNwkRfB5nHgb/BtVJpI0q/dkzVywPmdt2t3tNvZ1NlzApJRHhMMe6KyEGCzjrILcMOohKBSQJ3PdZYxqKubF2xef6KLC7qWShJJ8gpJ1XZD7f5mM4TypwUmo6wxpo086Q72sKTgHwE3wvCgC1wPeIMEzDru7gPs1F4n+UQo3wawRwPQQm/PpuOSUVZfbjJKBrvhC+1ObqirQUJmvfVBVIpIvhTKD2qOXnmRySjLncKepivTz9cckBjozPN1CYE3Ugki+U7tnjS4A/coZ2+PuQtNRlkbmT5ihzPYIy0jy0MT1TkSA70S4fuTug8HUwhP8i0ZkrU6wLm7GZa9ngHM7p7lXjc2bXiOj8G+RxcfGEolh+R7ofwSbXe03dO8mXVWRDJKeHiZs2WvEoSddRB+Dth7Uskh+Wrb/WEAmufl2r1MYDLKsnHpI/b7COxn4McQwrelUkPySYUsVt7QLKG8ZcjvAvLT1Yy1ZbDhg70iZK7qhIRg36hLuHcAlRiSL3fUtUHb/UW2mMWrvfIp2lOCZtNZhhUa00f+4Qj7uNQRDRIadivTxQW+rUugWp3k68BbtD0A6GGvJ6NMHZovZNkrQvkTTmCXig/oEgKVVFJIfiHU7s97fczdMmSfANhrEcqXOC57lRDsNfBiKiEk/2m7p2pv8nbtHpYazGr2CwKAP41QPleisJ9DCD+CSgjJn2r2DvDr3s5PF5465IAA2Isi00cWSRT2dboPB3egEkLyG+mXaFlHnRKAHvNqMsqUIULSVbEJNmfYfHgO9rqxySNOSgL2hMBwKh0k/6vdU9RXGVI0L3t3JVwwwnjr9Fl3wB+1S0ZZG5E8PFsCsH8H2CnPHMkfYVexcP4eQPojyxrrrQk2Y1KtY+5ua/dx6SNKuXXuUoC9BqCP0X16Lw23kfxTuqTB7fXJ6oe8+BDIKm6uvJAx9/2mDF2ZRGBfDd9EJYLk3+33ZE0fg23OfK2XQvlShPJ5Amr3XITyDPaa8CXD9rUi6Pmo1cfr5g5uT6WB5P/Ap2jvB6hHvJTBphC1+x8CYG/gJthUjV44ZFsrwp4KU4450l8E9iXa7gD1M5ZI0gvAVwP2QgHLXlkov8uUrqscnaRtLdiP6OIDJ1CtTvprAZ+qVelTNHu80VmHUD4vPHXoGQG1e8nYtOGHDZ9rtrXSMtYFuk8Ce9C3T/prddZZtO3Rfn8SsJZ7IZTPB+xC0lU1RKQOuxAyT7W/VZJTJASG6j6kfPCkv2ZnXTvAmuGF2r1+jC2vfLkA2GtDElUt3RtfpIsLnAnYaaiN9NfVqFRtH4Tz2V6o3XMErYQD7KPmqo62IOhsKe03aKdTLnjSX1sAldXu5ssdewfsxYC9mE2gcQW7MXVkGWrYihaE/SRqdcotRyJZw/kU9XWo3T++3Hx1o1ODjwNol89yn5467uCYhODiFgK9CqC/St8widTYWWd93LPmLgD7v8vslT/qrt3+lOWBrEmJ+sMtBPsaXcK9NFOORLqkdl+i7aBP1o4FtLsu5wGQ4RZru91pMsoX0/62Zcq8sJbooMvRxQeOgKlTjkRqAnyyphPC+WcuJyPt6JTgXa6SUb6a9vhPLQA7e+DDY7pP7u1E3yqJ5ESjFgV2MSRr3ga4JR6G8n+4eh7c3LTY3f/4/P4dzftwxsDXdAmDu+s+HExfKInkSoYU1U2o4Vd4ulgGofwxZ7DPS5u194Wk6dua8Smsi3UJgX3oWySRBAOvDYR/8zCU3+kM9i/SXsl9ddHju5ppOuxmOJi+PRJJbBs+RWsAvAc9COXPO3tE1JKM12vfT372sNcnzsQF7oJN9K2RSJ7U7snadvAUAHzUG8koJ1nCziRnzK6NS/lPiXdhDzwB0MeijU6r2UgkTxWarO6qT9Y8BYDPiUxGedAR9hmWyOzUjDdq51v+Wz3206HnvQR7uS7+3ofoUcsk0mVKlzT4itDFyu6GZM2/AXG+iFC+PMIytNAe9n+lTdtuyXizJintlQuT540+7B3QA/+hS7i3C31TJJKXgDekqHroUzQfiBiSa5KMclbaI9ssGXNqktNnl/7z80mXm5rqAvxfXVxQN10CDbGRSN5tw9uA/wggF4lIRnlxgs3raU/sTAPslvQ5FS8u/PuxywC9AJ6jSwjsRd8KidR8wPcE8B+ymltIMspwu2SUH6c/fyI946065neWPFOmT1BXeJQwMj7obYB+M30bJFLL1PAM+CqhySiNlpHliekzKwB6A3Ni6szCCYmhJ0QnoYgPegug96ZvgURqOeBv4EL6KiHJKCdbRp/8PP2lykbYF6W/lvfIgqgDImfHvQnQaRUbidTCsLcxpKhvcVfDI5Q/w5JRPpn2wP4lGa+XcbBXL13xfu7s1KfOGxI05QJhZzU6JYskkVoL+NBUDavhX3I2LMclo8x/Je2xI5aMOeUM9oyl75StWZ1wIH3V+6dnfG487X54Leg9gH4dXXESqRWls2iv0C28t5MhWfM04D4O1/HMlT/6QdpzJ7nOuYZly96tWLtmbvm6tYlV/01+tECfoKlykjsuVxcfOEOXMLgzYKeLTSJJAvqkwQBeOwlw73YEfnzKqNz49BeKuRC+duXKj3cD9AZmy6p3j5oXjM0dFa+sc2if/wLQ79fNHUxr0kkkSYb2ydrxAHyjPeyPWybkLMp4Ld8awme8Xbt29adHGmH/ev1nuQmZLx6ZMF9fMCo+qJ6bLJMBD6O57iSS5NvyWiW8kvXGh6UE186yPFKYljGn0hbCv3eKhe8M9PXr5hV/9+3i0xt/sJR9tnr2melJpv2ozd+EB9JVJJF8QPolWpbAUq5P0SwwpehOvJv2r4LGIbdVq+K2N9bq//v687Mbf0g9t2mjpeHnLctPpH8b/zLLMENXkETyqdpd1VafrL71/1KnP/9F+itHbb3wb5evXTO3lIO9asM3SYUAvQYu3vrb6q07stb1pStHIvmgWIrqJRlvqNIy3tpsDeGXv78XkNdaQ/j18/O//25JDqvVf9ycfmzrb18+vmP7+g501UgkH5XFMucqgJ7IeuERwmdzsNd//dWCEoB+nsG+aWPaDvgOulokko8rLf2tJ5cufTd7zZpPq7kQvhIhfK4NdEsd/NHmTRaaNEMi+boylr478stV8V8xyG298PMvfP998iFbCJ+Rv+XHZVN+2bSMQngSyde1enViT0D+DVerI4T/rAigszC+9pefM89nbVsXRleJRPIDff99UjtAngHXsTb7hg0L97NaffOm9PNbf/3y+PasdeF0lUgkP9G6tXPfA+gX1q+bV/fD96l/MNi3/LQ0L2vb2t8A+wi6QiSS38Ce+Ch87qv1nx3nOuUqEMIXAvRseChdIRLJT7R27dyRgD3nu2+XZHFj6/lbt64+uj1r/fdZWevupCtEIvmJ1q+e2+fr9Qt+RgjPxtbrf/pxaXHWtnWo2devz8paH0BXiETyI238IXUDA33TxjQWwp8A6A1wOmDvQ1eHRPIjAfRNDPbNm9LLt21dc8QK+/avPtm583/X09UhkfwK9tQUtvDlp80ZBQC9fOeO/+Xv3fP9qwcObKbcciSSn8G+ALBX/vrLqj2sVt+ze0PRweyfZh869DPBTiL5WRg/e/OmtIrtWWtP79j+Vdm+vT+cPXTw508IdhLJz7Rxo+XxLT8t28dqdRbCZx/4KQewxxHsJJKfafPmpY9mbVubDdhr9+zaUHjo4JYygp1E8kNt3bru7wC9goXw+/dtygboDYcP/fJJTs5v1BtPIvmTsrLWP85g37nj68qD2VtOA/SyY8ey5uTl/U6wk0h+CPuFPbu+PY5avfbokW2nT+fujzuXd4hyz5FI/gf7V6UHft+8k8H+x7GdBWfPHFoO2Gm6LInkT9q+fX2fXTs3fAvQy48c/jU/99Tvx87lHV5PsJNIfqijR7ddd+jgln/mHN2++uyZw7sA+6azeYfpQW4kkr+qsDCnU/7ZI0MA+z8Bez+6IiQSiUQikUgkEolEIpFIJBJJkBJmTr0iIXZau4QYc0ced4h/YXq7T2OjL3F87LT2TrZvsj+3Txsvnm+bBIfPZ+dzyfnFmNn7HYScn+3/M7edGzO5DZUGkn/DHjutU0KsORoFP4HHH8fHRD+REBs9w97xseb/4L14J/vY+zVuHx2OExAfG30z4LrqMs/3Fpzvv+w/B+cTc8n5xUTHAPiPBZzfR7b/zzwJv6vx++1xMebuMIFP8kPYY6LvQiHPB4gNzexC+Gt81kvwMAB284evzGgr8lw7Yd9HcZzSZji/Mhw7Cz/fwc3DgAjiaiodJD+r2c0TUMC3wYfgYhFwnINPOrhSwH51gOoYfi6Ii42OinvBfL1w2M3XoOZ+Dvv+Ch+GC6zH8z74pwH8S/g8mg1J8qs2+40IW4ejcEeikP8Nfh/eBdc4AYHVqh9gn+mAdZK98fqT8P/BifD38AkXQNVagY2JZmG4CufR3t25ol3dDmF8b3x2MD7PiP0ewjE+tMHp9HPe5c7J3m/Cy+ADLvZjN640fBbNiCT5p+Ji0WaNNY9Em/cgPwTm/8XNjL4VIbjzY8SYe8FoHpgjsP0c/NzPwc0HVRXA3YzPHAOLbivjc66LY5/Bc2y8dxI3kWt4bnBX4f07cKMZifN7Bb8fcXJu5fA89v9QySD5pVhbGgBm8IXIKPjJsKBsPKiJ28bHTMPNI/pu7PM29i9xGtrHRh9Hm3yMJ+eLfeW8sMdGb4Xbuji/Ngkx064G8JOxfbaTczuKm9X9VCpI/lvDx5if4QvlxcBud/Nog306w6MAzgkX7exjCTOnKcQOg2G/W5zA/qsr2P/c39wetbyZfb6TG9GniAauo1JB8lfYn/QW7Pb6eNb0W7H/dyx85wGrHnD+khAzdVBLws7V8qjhoxc5aW6w872HSgWJYBdZy38yM1qBGn6Dkxr+AhsjRzv86paE3dZfEf00N8rgeKyDqPn1VCpIBLtIoRZF2Gzt/XfSCRi9H3BFtDjsMeaJrO+Ar3mB44yhUkEi2D0QjnUt/LqTsf1qwD43ISa6ZwvDbsJ+OTzH2o7jDKVSQSLYPf2M2OhAHHOz09o91qyXCOyZaFb0p1IhMUWpFJ2ilPLbowb36URXQ+Kwx5g7wnOs7fSmgOGzzc8i5O/UUrAjmngc++U1HWs3zwLsHXl3Gh8c0DZKK+8UpZF3jdIoukepFQb8TMDf/7ikYGqxnUZ2dZQ6QIn35sBfYbv9UVrFRuz/BfbD6yi8g/s0GYrAvrCsPXwjjhGFfb7A/pvw8yy8Fr/HjdfIg/GzMwDwysT+KGVAG5Na1smkGtTTqJaPM6oUs00axRqTRn4APwvhk/CPcJxJrQjH69cZNbKOfOfv8nPwv5k0snZGtaKTSS3vit9vx3Gm4bjpRo18od12bfAZnXAN+uJ8nsG2m7BNEVzC/fwV2z8L944KGtDW4/97cJ8rTOqAdiatvAu+k0E43gz8Hm/SKtbj83+CN+L3Vfj5jkkrC8F7PYwaxZW47u14/rd2+H+6mYL6CxrKMWoV7XHsrvgf8bmyZ3HsRfj7J/gMXAj/gs9dhveewTYD8XcXVq58AXYOVL2LmWwW+LaWgB3bs+E3NnuwwmHYbS3+334OX6KsG8C8DaDJAGoEPBugATrFebzWANfB87jCA8gVPbFNGLyBe5/PpdhuTpRqUF97YKLu7dsOr9+BfR/FNjtd7F+Ec4iPUssHskLmcWFnNxaNrAtgUsIM8INwg3vLTwKMF02qAAVuFJ3cANXWqJJfj/364UZxN/a9H7C/jd+/x2uljcfEaxusEOAmgm3k8Kt4PdfNufxuUslC8Bmir0GkWtbGqA64AYBGAqSlcBncAFfDFdzvDpafBexL8LlR+PsueIDVGoUC7+GmJd9m1Mofc/O5HXDtbsF+U+E1cDn/Z11idm7p+Iww3JSvEXuTbQ3YUXNfg+Oynvl6ntl6W+G7mhv2hJlT22H7MfBuh+m8Wfhfw3mAkL8OuL6BTzoBrwSAvgRwUDvIRuD3BXit3AWojS4HsItR+/exfo5adj3gHY/XvxWwL3MV9k+GB6Gm8eiOH6lS3ArIn0VhPcDBUw0fhbfAX3O1+W44nwe0GhTu37D/JBynm9MaTB1wO0B+B9tvA+AlzsDFNt+alIO64ZiT8Pcm7lzc33jUivMAfqTY/x3gKAHdfEBUBNfBx+Gv8PrnAPpj2++KbLjKCYDF8B7OZ7ljXADs05xGEaqAq3HssfiM1XaQF8BZMIsivoe3wafgGp7PxM1P/gqA78sXXUgJdhus5gVOxt3P4b1hzQW7dbLPzOhu+IwQbLfS7v9l02TX4/+McFL7KVbCp1xAVwYn4abwNH7u5mp6Vuv/zHkbfJp73XHfAmsNr5GHw+/aRQuV8DH4AHyU+9sJ8Iq3cZPoKvaLAFwaOAnAVHDgnEJBWgAAJqBQyqI0AT1MStlAgDwS7z0Pf2dfE9v5EI4zAzUW73pmHE/D3Tiq3ICbhRvHC/h5zO61cq52P+div3oAvxnneZsI0IMBzo8cQHXsswHhg5FaxbUcmG2MqoHXAlwjtl0lsPZlPorrwNvhg+YGu5G9gG32cdsymDchnP8PPleDyuIOfI+3obmAm5DiIbw3n4O+3uEzCtn3hOZHb3YDkTLsAO0FF1Np9Z7Cbh1GizFPRHs7PCHGrG00wvVQNgUWkD+Ibdg03h12/+tBvP4+/sc+LkJd2R0AcQrAiodZu7vWATgG8TnOu+D3AeB0wK/hPAz7T8PradYooCmwuRzUFVb4tfJU+J/4PQr7jcFPI36yG8kqJ8DjRiQfJBL0oSjg39hqZyswZwDlrEiN7AYn4X5HvH8PCuEXToDfDeDGobbpyNOx1hWfNwLb/AdGO1hR6QRaVusXwGX4nB9QoOfAj2PfifBU3Ahew3u/Oanx0Y6X/1vQ/66RawHMBri2EVC8NpX9j7xNELXsHg74agfo2P4ldiH/HhznISe1eiec38tcLW4D3dYnMgSf28HJNUfTR2bmIg7Hm8oF7PsR3u8gadhjzNE49nknC28mu1sR5wL2Bm7lHesT+MXOLFz/A87niQb2sck1LmG/2OGmlfUExOGA6xfeNrhWsRDQDcd217IOJsdCg/f6WsNuVhvzQ4s2vtyENvRt2L69w/7t8d4A22fw7AtQRbRVb0VBs9jVtJWAaTFA7yHgJtGHiwYca+laeB18u4tr2Bn73gNon2Q3F94aWiP/He8/hu3uNKoGdWPX7WIIrBzY1cRuUmpFCg/wrHb+KkoZcJOb7/EqgPKFXWiO2lWejmvSzWWfg7WGVxx0AK6chfz4GQ5HooZWm4L68/ZfsJsWtjlvt+8+nG8kboTt3fR3tDeqEWlp5QU8wJfivCZLHPbhOHauE9j/xebVXwbsYs3+51PwD4gA3oiPnSZzN/wD6BSvO9TQtbgJZESpAm5x11sapRqEKEFxmAfYnwCsFkC3c15QFcwDbTeFJrBvEdj73AEw/Zvr0W4E5XSkWi54FpFJGdAXhXcfD6wVOHY0gOvgqvfbqJL3Asyf8+yPkF0WjP07u7j+7aJU8ruw7Xqe/XfhhjXUTQ94pAO0+aiN/+n2BqlVdMG2ax1gY230dwV0grJOvB0O4fhihOuCJpZEqQfhs+Uv8TYbNGgiDu7TRcKw3+N87bv5CdTsnTyFHbX0Nm7125+OMe+zTtxxDX29NXuNNVGGeSLa9x1cfHmKGLjwkp5xrSJWSPuJtQWtYX5T2DMB+u1u9w/s1w5g38/T/q+MCrzjGvc1s1yJArLZAZJ9qNkEd/aw/wHtYzNXm17ayaaRb4S7uxnmQw0tj+XpoNvqGBE5GybEts9xQ4L2x8jFZz/i6rwBzX+tIfCfwJxG7ThJYPg/k+vMswduCW5APVzcnNriMxOxXaXdPmdx03lCyP/aOGKC7ftxTQ9H4Etwg5vim7BHh7GkmB520DG4r4K7XOIYcxe8f3X8zGlD8PeT8G8c2HVOoC9iY/4JsVOv4l3HzwM7+/0FwbCoZToe2FcAdkEdTIgMVNj+iMP+NSgUGjdRSTvUyA87tLnrAM580T3ZGnknJ7U7A76/ANhjeGDfILzPQT4K++xxOEYBjvGs88/t3xXgzXfsUDNpA4KEjYvLJ3Nj4Pb7p+O63+z0OqkVbHx8i8M+u3EsUaMHrF2Pc3+Yp9+gBjeCxT4Ku8cddEKH3ubGTL4yPsZ8nzV0v3Sc/ZJUVXEzoyfHzYru6H3YtQE9Lwt2rSIA/l4s7ACsh3VSjENb2yiwY8sBtvY43kv8Q2jyJ5oddpVMxnX22R+jEjegN1xcdza2neE4lIWacfxlwL4gytWwo0Y+HducdNhnI85F9HPjjBrFMOy7n6d2347jdZMo7COctNlZD/3I5ob94ni7LQNumotcejsSYqf1bQbY0e5sCvt6+A5h+8vvwLZfioUdBY8B8oPjWDngnCF6Mo5K0Qa11kgn4+ULmxt2HKMf9tnI8/mfiIQ9HzXjUx7CzkLz11wP8Sle55mg8xXraRc/L0DWF7V7Bg/sh40aWbBEx9kf57LPOsL1M2C9s6Vg54AfxOXP42/Lx5gfbynYcXdWyJsVdrUiCLWDY+hdbVTJQzz5InG8frax+SbQfue6VpZ3w43ijVaAvYetY+wSUFhYvIh1XAposz/Fbg52+55kY/OuRh+4sXJHOJd5cr1xvCu5m4fj8U7gRjReirADyNe4NrMjXIvwWb1bEnYr8LHTxvLP6LN2GH7XUrCz8fu7mhN2hLhsbP00D+zhHsGukd9qtI17O06l3e2mCdCDG75radjb4/337MbXG70lElGP+34KRaLDbLrNJo2sv4vPu9E2xdU7sHORwvM8xzsJ2CdKDfYPX5nRia0qc5IhJvaTWdFXtjTsaMOzFFrHnWXXbQbY5WzMPa8VYB8Bn+cJ4x/3rGaX9wLwGTzQbnazH1tsk9LSsHNDbw9xs9LsYSlAeByD2r2ji6E3Ng/+Z4chu2ddrUvAe7diu+U8cH6NZlAvz26wike4RTKShz0u1sySRWbxQJULUMezKa0tDTv3/6c6C+Wbo2Zvy02hbVHYAZMKPtikg06teMdD2FFDy5eIhbY1YY/Syq4HHF9yY+T2wPwBT0e7uIv9kJh19Z1yYHfcDN6xWyhTAegWmgL7dXMTdvfmFtg4wr4Z7w306JprFZN5blYHcLw7pQQ7Axlh8d94OufqrTnbY823CzlOM8H+bgvC3jo1O2AKNDYdrqo3qeVfNc5UE6NIjew61G6f8UD7qVRh5zraDABkF8+c82JA/RE8BL8H4Ccb21YhGnrPrjYtxjVcJGQiC4sUsH0Cz+dk4xzGeQj7FOtimEuPty9KM6i/lGBHiH49jpnOA9RZ3AQeFd7B1yywP9KCYXzrtNkB5h3wSh5AcozKgNtFFzy1/EYAuqYJtCqFWcqwc9BMAiR7nSxjLeAWq2zmanxuaqxiO67fa6ag/tcIPU+cz4t2EcHFZgOO85wnN1jceB7l5uPbz+L7RkxCj+aGneWh43K+HWqSkio2enlCTHTfVob9QyfHXOs3sEeqAtiqq9k8gOQDtL97UPD6Yt8jjhNbTGqFQuqwcze/cVzv/HEnK9jYqrRj1qWuGpbMw7popaPITswJtok7TW4oaZFq55NxnAx3dsK+rzocqwI3rldEFvbmzUEXM20Aau/lDh1z9dyqM1ERTdzM6f28DTvOIdPJ0Ns//AZ2VpMAxAe51WUO69IVGdi/qzjYFYO4Jaj2wKbCV/kC7Nb2uFZ+A4B5mpv4Um2bwy6fC7PQ/e8I2SMBrBygXelJwTJqZAO47DNNx8a18rEiO+du4hbx2B+nyKSVaUUOh73L10PuDdhxnO7wLJ5kkyyN9EzWGy7yXEP5wYw+AHvSG38N34o4NssvIdbcdOVolEb+ssNCGJ+A3Va7K4J45sYzH4cfENxeVynaAs5HmsxgU8nvQ5OgnSewm9TCFvN4GfY7AUwqFxp/C6BGA55eeO9ab7Rd2TRX1LxvsBVqTae5yudGamQ3iogSgqypquyOY7SuqQjoJBKgRbxzxWOiv4Vv8vR/ZY9dTrA9dvkUD0yzhWaUdYhCJjhpX7Opr+08ON7DvA96jDG/gBq/Cx+snzksRPEl2DtaM5041MjcEtXVeF9QLzHLIQf/6jAnfoFRLbvR3YIgp7CjOdGiYbxW/iQXwnOLVFiNLvP6g/5wTA3XHHBcsXYW38VEZ+vZHW4aHbm58ZV2+5eZ1MJ74d3BjtfPw/0vA/bpTtauv4/3rvHkmC5gb0iYOXWgyGOxKbO/8xwrIyHGfEeTR1OxcVWAtdgBtGJ4ltC8YNaMJE1hz4bvFgh7P2y7hgf24YJqZbUsgEtcUdd0iariE/jWSBdprtgyX4D+uG39+cW15JvxmpLldRPQsdeLJZjkAbVM8DVUBgzgUlc5HiPB3Qo+/H+sp30DT7qpvSa17H4A2Avvd8fN4Cq4S2RwQEdjcEB7oavU+CII1MCzeLPdaORHAKwuSiXv6OKmxCIQBctqY5+TDsd8PlIjby+ywLPki985m0WG9y1xseYeQh6zjG3astowIXaaHDVjhkP6qVq8djo+dtoMvN8FsHt0A8G5POF8qao5Ie4F1+vhbUOA0Z1xDvfE2RbD1Do8ujkV59YfbmP/hbUdjy8foI0AWFt4YF0dpZb1H69x/qWxO/h4reI6NAMe49kf0YF8Avbv4Sx5IiC7Ikqt6IZtI7j0V5dmy9HIE9gyWRyjm7ueXoA5nsstV8fTdl7BMsvAvZq0+TXyG022fYvs2vtZ2Ha0kNoJ2/XE9qHwYd717KoAJba5ji/jDdfJiBuN7Hru/H/nOcZPiDDC8f7NJpXiar7su9y01/MuUkvtB1xrANln8HvwE/ibZYzR4fhq/GTJJe/A6zfhxtJVSK86G6pDEyGDN5+dRs7ScD2IY97GOuEcrhlLthEIr3RYIvvvSK3rvhF7fRob3RGQ94YnuXnmOWp489dsnTfguAfb9wGwN6I9ew2O0Q3ujlrwNrwuwzYskeM7Dser49rEX8XNjA4FbKJDbXzGlfEvmHvhZhGAc9ni4lxLcHOKwbncCeOczNdx59gt/oXp1+M8ce7RSvi/Divv6q1ppWPMiYB8gGPYPQgQTcLPFznQa/hhteaqewrQjQOUN/zZxpd1x2vD8d7fbGvZ5cedZKphoXwctn0QVl1yDmprlhwj/BqX+oo/gSVLNa3FNiw8VMv7u8qEwgHzm5MUUSzpJBtDnwiHwOFoU5tRMBfh9+LGSAAFeB1qaqO7ueXY9k7476zmhfc6zyUnZ/MAPoCfBJQj0Ka9motG2uBzBrJj4PUP8XMH1/TgOw67kSTDL7FjNLlhWGG1JnisF5hXzj70ZrXz7ywyYEtLcT1i4BCjOuBad1FJlHW5qzydZyiucY7+lzj+UzAbJQiB78P2s+xy1rFt9uFzn8X/IChdNQp1V7a6DH6KS9+cLzCrS50VkJjo9YA6Cb+/lRAb/Rr8ZrwtgeMeniQR52zZZM3PAtLeHtTivbB/BPwcPnceYNzufB77JU+YOQSvwu8fcOf4Gv7+CPuv4+k/YAknf8BN4mlEJj34wuaXneSOc+bzDHi7/YO5xJO1AvdnN5N0h05BE0A/LeIcWMbbh5zVkHYh9UguRVWeE3CqueG1M3b56ho4YOcARkGLd7iltZXC0lRf7ANYi/MbxJ1nB/hVMfvbjqH40knP9t/ZAhLRsPMPz+0D8K+bVINudtVfYUtiGXALPnuO7YbRZI5+Y167c/ARuyQb9bYpsYokXIOxLKefwJ7nNqiR1S5yt3vDDB6WHYb15P+DrSzzqL0/c2oH3CSm8TzIwVs+A3+Lz3gJ53iXqzbyE1ybutFZ3JLU1U6tCVDagTqSW39uf4xvePbbyNXuB7DPvEvPQWbA61u5fffC37n8fJvdrhe2LlVVKW5BaD4dTubyxlfxp41WHAeA61Cw/4uoIETMUJ1tnJo3USWfa3EuZ1HLx5lUsltt7Wy2fl7xtEjYzwCOD5w0KboY1dbQ/HsXqaLFuAS18Aew255x3CC74TrqAe9soy19dIXzYyq2YZsFOK4J7fNbxOTHRxjbEQX7aW9Cg9D+RJytVv+Sdbyx2XCAPASh/k3uss64GfvugePFee9czWfjbMknV+D3t1DTT8W1uBvu4KatyYZiFEo732NL/sg6ypxYOaCzHezdWefbJcdgud6b7KeQw0Hc+/0cCufVeP1ebv9AWwILF59vs+A2HcsbZ1LJbwHIKpMtk+tz8POcAZn8PryuRUEdYFQN7CI2hTFuDizJJWvzhgmwHp81DOfTF+fV8eJNCU0jgftbzTLo4nydzgw0BfVnIxM6a5Ry+bBbp9KirKgFD19qFd3ZGL4tZGdJLnCtG217Mk0oQL8H23k0HIaC3RZmk1LCRDocgLCJN8/D0+3fA9jB1ue4xZj74WZyHZst540RCxybrZC7y815meHJwv4H8zCc57043764EXXHeba7gsRb23eIUsquBGg2qwI6X85TZyT7fwb17wmoLFzNylJpx5vUMj1eC7j4pBer5cPx3t+MWvmb1iW9TRfR/DnurZHP9+hctAEd2Hr1i1YP7HA5T325HKGGbgNA2FLQK+EOUvm+2Lmw0QQilCQOLEQp1qfZ2NrcP6D2ZE+HaWdUDmzjGLVYh840sjaAvS1gb29iz2bTKpbwdrRpFMfoCpNIEhAbrkJNzUYhsrkaehteC/LgON0A/Ms87e18usokUuuD3h2Asl74HLtFJA97ejzsGwj/6rh8la40idTKoTtAZCvQDl3SoeYi57t72OU3Oy5MAfyf0dUmkVqzVtfIbkL4vsBxxdhl3kB64JgJDrPh7qerTSK1olALD+Sehe4wVCY+pbPdMW+xz1ZrZI931ihuoKtNIrVuzd4PcGY2Tfwgn+7pMVGLD2fr0u164h81qRU0NEQitWqb/d6+HQDn/3FDbZckkQCgQZFq4Y8+ZvP0I1ka7T/b61W4acyHe7LFSiQSqbVDeY18JMsj1+RJrBprbrlJJgaru6fwsnXlGvnd1gk43HPSAX06PICuMIkkldpdpbiarYSz5YlvMvvtlLWzTSOfjBpayZ6aGhkccIPVWtnNeG0QtmE3iyfg37h9zmM71OiKO+nqkkjSa7v3Mdp60EudTHkt4J66ugLwf2GztRNuDbfUtIqbjMNSUT8XqVX0pqtKIkk1nNfK2QMSY+BcDxa75CCE/wS1+XD2LDe6miSS1EN6bcDVgD0YfpF7rFOJC8CLjCzfnVb+HCDXRqplPekKkki+BTxLBtkFAN/AHtAYpZGFGTWyh1HzvwW/H6WVTYbHmtSyAYC9F7bp7GkeOpJv6P8Be4IG54ZeBpEAAAAldEVYdGRhdGU6Y3JlYXRlADIwMjEtMDQtMjNUMDg6NDQ6MDMrMDA6MDDd8THtAAAAJXRFWHRkYXRlOm1vZGlmeQAyMDIxLTA0LTIzVDA4OjQ0OjAzKzAwOjAwrKyJUQAAAABJRU5ErkJggg==;" vertex="1" parent="1">
          <mxGeometry x="17.26" y="510" width="74.52" height="76" as="geometry" />
        </mxCell>
        <mxCell id="SxAMXVoo2cSi_DEeGkWg-22" value="yankibd" style="text;html=1;align=center;verticalAlign=middle;resizable=0;points=[];autosize=1;strokeColor=none;fillColor=none;" vertex="1" parent="1">
          <mxGeometry x="37.259999999999984" y="580" width="60" height="30" as="geometry" />
        </mxCell>
        <mxCell id="SxAMXVoo2cSi_DEeGkWg-23" value="ms-yanki&lt;div&gt;&lt;br&gt;&lt;/div&gt;" style="shape=module;align=left;spacingLeft=20;align=center;verticalAlign=top;whiteSpace=wrap;html=1;" vertex="1" parent="1">
          <mxGeometry x="230" y="436" width="140" height="50" as="geometry" />
        </mxCell>
        <mxCell id="SxAMXVoo2cSi_DEeGkWg-24" value="ms-&lt;span id=&quot;docs-internal-guid-df09590a-7fff-4ff2-2458-dcb06eaa5cdf&quot;&gt;&lt;span style=&quot;font-family: Arial, sans-serif; background-color: transparent; font-variant-numeric: normal; font-variant-east-asian: normal; font-variant-alternates: normal; font-variant-position: normal; font-variant-emoji: normal; vertical-align: baseline; white-space-collapse: preserve;&quot;&gt;&lt;font&gt;authentication&lt;/font&gt;&lt;/span&gt;&lt;/span&gt;&lt;div&gt;&lt;br&gt;&lt;/div&gt;" style="shape=module;align=left;spacingLeft=20;align=center;verticalAlign=top;whiteSpace=wrap;html=1;" vertex="1" parent="1">
          <mxGeometry x="490" y="160" width="140" height="50" as="geometry" />
        </mxCell>
        <mxCell id="SxAMXVoo2cSi_DEeGkWg-25" style="rounded=0;orthogonalLoop=1;jettySize=auto;html=1;endArrow=none;endFill=0;targetPerimeterSpacing=7;sourcePerimeterSpacing=4;curved=0;orthogonal=0;linecap=round;" edge="1" parent="1">
          <mxGeometry relative="1" as="geometry">
            <mxPoint x="429" y="174" as="sourcePoint" />
            <mxPoint x="400" y="552" as="targetPoint" />
            <Array as="points">
              <mxPoint x="400" y="174" />
              <mxPoint x="429" y="174" />
              <mxPoint x="439" y="174" />
              <mxPoint x="440" y="360" />
              <mxPoint x="440" y="370" />
              <mxPoint x="440" y="552" />
            </Array>
          </mxGeometry>
        </mxCell>
        <mxCell id="SxAMXVoo2cSi_DEeGkWg-26" value="&lt;span id=&quot;docs-internal-guid-428a91fe-7fff-6120-894f-303626230ea1&quot;&gt;&lt;span style=&quot;font-family: Arial, sans-serif; background-color: transparent; font-variant-numeric: normal; font-variant-east-asian: normal; font-variant-alternates: normal; font-variant-position: normal; font-variant-emoji: normal; vertical-align: baseline; white-space-collapse: preserve;&quot;&gt;&lt;font&gt;&amp;nbsp;Kafka Message Broke&lt;/font&gt;&lt;/span&gt;&lt;/span&gt;" style="shape=module;align=left;spacingLeft=20;align=center;verticalAlign=top;whiteSpace=wrap;html=1;" vertex="1" parent="1">
          <mxGeometry x="280" y="580" width="140" height="50" as="geometry" />
        </mxCell>
        <mxCell id="SxAMXVoo2cSi_DEeGkWg-27" style="edgeStyle=orthogonalEdgeStyle;rounded=0;orthogonalLoop=1;jettySize=auto;html=1;entryX=0.5;entryY=0;entryDx=0;entryDy=0;exitX=0.693;exitY=0.96;exitDx=0;exitDy=0;exitPerimeter=0;" edge="1" parent="1" target="SxAMXVoo2cSi_DEeGkWg-26" source="SxAMXVoo2cSi_DEeGkWg-43">
          <mxGeometry relative="1" as="geometry">
            <mxPoint x="660" y="410" as="targetPoint" />
            <Array as="points" />
            <mxPoint x="660" y="300" as="sourcePoint" />
          </mxGeometry>
        </mxCell>
        <mxCell id="SxAMXVoo2cSi_DEeGkWg-28" style="edgeStyle=orthogonalEdgeStyle;rounded=0;orthogonalLoop=1;jettySize=auto;html=1;entryX=0.5;entryY=0;entryDx=0;entryDy=0;exitX=0.5;exitY=1;exitDx=0;exitDy=0;" edge="1" parent="1" source="SxAMXVoo2cSi_DEeGkWg-24" target="SxAMXVoo2cSi_DEeGkWg-3">
          <mxGeometry relative="1" as="geometry">
            <mxPoint x="585.0000000000001" y="350" as="targetPoint" />
            <Array as="points" />
            <mxPoint x="674.5600000000001" y="232" as="sourcePoint" />
          </mxGeometry>
        </mxCell>
        <mxCell id="SxAMXVoo2cSi_DEeGkWg-33" value="" style="shape=image;verticalLabelPosition=bottom;labelBackgroundColor=default;verticalAlign=top;aspect=fixed;imageAspect=0;image=data:image/png,iVBORw0KGgoAAAANSUhEUgAAASwAAACoCAMAAABt9SM9AAAAe1BMVEX///8AAAAQEBB9fX3r6+u6urqnp6eNjY2AgICRkZEpKSmzs7Pb29stLS3z8/Pw8PDh4eH5+fllZWWdnZ3Q0NBfX1/Jycne3t5qamozMzOHh4e2traqqqpBQUFSUlK/v786OjpycnIiIiKfn59MTEwaGhoVFRVNTU1FRUX9/bFcAAAJ60lEQVR4nO1d63qiMBBtKmqtrJdqqba2im67ff8nXAFDbpNAIDgker7+KUJMjmEymVseHu644yawjOJ1csY6jpbYfekxov1ksyUCtpvJPsLuV+8Q7TZEi83uTliJxeRZz1SB58kCu5e9wO5PFVMF/uywe4qNaFCPqQJPt/w6RgZBBWNzq3TNUluqMqQz7H5jYNWEqgwr7J5fHfF3U64I+Y6xe39dPDWnKsMTdv+viOjYjitCjjcj6IdtqcowxB7FdTB2wRUhY+xxXAOvbrgi5BV7JN3j0xVXhHxij6VrbKs5qI8t9mi6hVOuAmfr4JYrQg7YI+oOX665IuQLe0xdwcocUxcD7FF1g2kXXBEyxR5XF3jrhitC3rBH1gHkMQ6Ho4H9HjEdDff/pGvYI3MP2ShaGA6ik42pZlxMokS6vMEcVxeQB0jW5Sd1dXomnORPEpQhdQdl6Nxn6zr+HV6OK9vLa4+mWyhag6gflQvl9uX9NN0n63Wy/xhN0nLSiSaGkdxaUPrDQpkosoFlQ7bvQ8CROk9WX2QrfaC80yQkF+xfZXSKx9QmCiRSmvvrsLPIWCuDI/s27S3V9tbVT3kCYP/cbgFT2zs46WgPAEws52QFM7UgY0Mrf8MMaDAQ84Mqjs84tWkR3GaG4Rx7h4aWtmkR9KW9u+ovKqCRkZ82LcL+bFf9xcQeHFkrwwrcYittpCfQxGC1ETGwKT8E4wPMVauVHlBKw3gP1X1chkm7RiHNLQRLDbgWHtu2Cvo+/F8Pwajt9nMAavXZQXdRAYqXQ/t2wSBL3/NXQJHlYJEHfwTfhRY4A1w0/AK063toLqRltdrqUEBbHt81LUi+O4lwhCwPvkt46C10Yx+AHI5OGkbDHCLLTdOQ0Jq7aRoJcXcvCxTH63c2AaQ5OPLEnICm/dYdoDXLUZTxDmja7+B4aEQdkuV3/qbiaCfOXAtQ0yM3TSMBUuB/u2vabxUeksKOVkPI9tPKZ4QO6F1xpGelwb2GYNCtm6bVYBPfg3FBD5+b+CCoZb9Vh67MWUEatEBHu5NMQdBn4XeUN2RIcZP6BloVPS9jAA3Jia38F2rYQbuYAHPmPtq3C07ZQ/t2UZFCg3Kw4QEVOCf2akSAg3JgKwUTWfzWSXWO9tZx63BojvehkuCoWk8tuDqZkw5jAs7MaSm14Jfb/2z8CTy1Wu3iwCjV1qE5PQAstNptEDVpin67K3JoyGrhtoLsDRkcdhoL2jTypkJex1UIqWG697ChjWCuLdPpveKQQUtWk5ph+hT+R/c9R4CpuJ/lLjE2lBzx21lBwe15j5PdSJRhPxauvkQnrXJ4bp6hYDFahb4gvUqbfR2TzRqM5GXwfRNNwZJ+X4oLS1mt/xzvDXpXlKX+ViGYxF+WLf91mUTg4EFz8/CxkqcM4ZRp4/PJLw4YwCioKYZVr6RwMBNLHHAh0YEoN52SWoerUCRWBsEIXCiPShCMdrx1qiMFshQWEHStQm7J5Xf02+BqrsLQsUrwhoIX9ZJRAa+UWr5HKcsQvK3Fi7gUhLxB6lS+h377VgHwRkC67vExtAZrIBTFy8N/o58CfltH7Q2zVaGebqYmJV5jGKU4dN/3q4NfEXkT/KzSCqhJXKUIaiWk4A1bdjqkkasgzFgqOJ+MXelaE1e+O1a14OoxWCVwGbgK+MwBTmOy8RzqufI9ac4IvlpffbOflqtwbA0ghFyudLgoVIZoPTKtiTfKlSYGiZjXR80jIZkaNND48+3JuolDLODDUazJchA+6AMWkKXYQBaowQe3edYCSNk1DB4gK3jRzuOjHVl+5xVaYynXRzaQJUcmf/mdN94EyY/AgCG4SiIrhAps9tg1ISswc7sFuNxNg6VldqeqwJTWgq+x3XkM1hxTG3EeVmOsqpYbwjZ+58c5QzKtiJ19m96mVL/jjjvuuMM7xB+r96czxqtpEkZx9o4wP8k5y/9WAQXjucQCKilHyMEy82j0/VzgUXhwebn6fKxnxVoe7e6/LrRB16yz09ft31VVBDeLkBcqf3BxIbW6Y3v/NbHUn/Q1km6pCEuoJKtexont/VcEWDPgAvo2lXSa5X74ZIkmPBGXW5jdyixEgifLdDg7DWfgMgToY/PoAj64KnSyYB/gBdRSx3m+qDqh0vcQPlkKQY/bw5YW8qXynFsBIvk5fjyBkyVG/n/u6MRZvn2kbNJwSXP00i2SxUv3H1kxKJc+lrpT2oVvkCw+StRUUJNOQBbAdoNkcWGP38Ybk1zGc/HqN0gWt8xVbQPjvfCW3h5Z3CbMdst6e2RxdZnMu745RXmlfPBnmX+Q77E1ZM0tBy+QtZymeYrQ9wa5hikXw2e8j4XMFFIrHqkmnex6vZnF8qvL5ZYl6CXC/cdI+CLUYsKsJ+YIa5YsMD7/1HBueDa1GFmCl5Bt1XOyWMWQUk6yXy0LB9Sn+mAeoMxS4Mx+dYEs9fxtgKz0tFoVf6vTiVGRk8X2A9ZkYVbYYp0we9btydKgNVmIQbusD6W5fTIW8J4L/h6RhXbMLWf2o4YWJac+L9PUJ7Kw6kYBtm6FrDwPqU9kYZnlF2oPekfW7yiOojWvQCAFLjUj6yE+gz36uIjzC9l9DsjKNE9G1pbKUq5SAlJCdUOycojjv8A5WUz9Yy5gpGPfuemuFfC4ZL2UTQ/FNq4PbjWk090VWa950MQFA/HmRmRxfe2SEgNYB+g+WnEiNiRL2O5IG+lGZHF9RTq4lXWgTA+JkzPWrPMNyTJtpJuRxapKIKmlbP8vqXpMQvSGLFYuEImstOyAZFRmNpnekMVsHUhkcXUaxFisHpLFZhZSlhTn3BFj/ntIFpNZWCdzM7LELvSQLObhdEmADbioEMFj0UOyWE9dEmADPiyE33NZkPXDPdYhWewanrGUI4uvsmChOthH0TCySgNCNVns58MrBiHWaBjHl/ofrOJaNVmcd7YeWUxUl6sK+z4dWcxdgOjiIRXQkcWKI34zraMeWZygLHZZMWeuEskim8s+LJWfQUFV7UIdWXzA4J9N+rrN7Bb1yOICLMhhMBBDDyWyzvhKxVuuyY4MU5ikgSylRnyWfF+PLOPvo5IlAbd+jT6w20SWYlzOXsZ6ZJnCo6vJwj1BxRAGbyBLOXGvPlnGyVxFFpKdlMHUeS1Z8tSyIMtERhVZ+OUz9CHLRbwyRJb8kAVZ0PcdflWy3tUDL3pReXIEpQ58U5WGkcXvt8UjZjIBn5b/CeWeVP+kfCzucUjXSJ6svXKkWF+OfIon4lELvyvWsxm1qA9ES86O/fSvmTqbDOh9os2pNMaz+JMTJykH2XyJ03RwRv5g8XWDrMkPJiOe+1UVYpFMT6vJ5LRL6qYaLuP9dNcslXOWfdlqtK989m0/Op27hC+t7rhDh/9+G3dkj6wn6AAAAABJRU5ErkJggg==;" vertex="1" parent="1">
          <mxGeometry x="-190.00000000000006" y="-100" width="146.43" height="82" as="geometry" />
        </mxCell>
        <mxCell id="SxAMXVoo2cSi_DEeGkWg-34" value="" style="shape=image;imageAspect=0;aspect=fixed;verticalLabelPosition=bottom;verticalAlign=top;image=data:image/jpeg,/9j/4AAQSkZJRgABAQAAAQABAAD/2wCEAAoGCBUTExcVExUYFxcYGhoaGRgaGhwgGh0fGhgZGhkgGhwcICsjGiMoIBwZJDclKCwuMjIyGSE3PDcwOysxMjEBCwsLDw4PHRERHTEoIyk2MTExMTMxMTE5MTExMTExMTExMTE5MTExMzExMTExMTEzMTMzMTExMTEyMTExMTEzMf/AABEIAJQBLAMBIgACEQEDEQH/xAAcAAABBQEBAQAAAAAAAAAAAAAAAQQFBgcDAgj/xABEEAACAQIDBQUFBgQEAwkAAAABAgMAEQQFIQYSMUFRBxMiYXEyQoGRoSNSYrHB0RRygpIzsuHwU6LSFSQ1Q0STs8Li/8QAGgEAAgMBAQAAAAAAAAAAAAAAAAMCBAUBBv/EAC8RAAICAQQBAgQGAQUAAAAAAAABAgMRBBIhMUEiURMyYbEFQnGBofHwFBUjM5H/2gAMAwEAAhEDEQA/ANmooooAKKKKAEoqH2j2ggwab0r6n2UGrt6Dp5nSsz2g7QMTNdYfsU/Dq59W5fCm10zn10TjByNVzHNoIBeWVE9SL/LjVaxvaNg0uE35CPurYfAmsgmkZzvMSx6k3PzNeatR0sV2xirXk02btSX3MM39TgfleuS9qTc8MLeUn/5rNiacZhhWhYLJa7Krix0s4utM/wBPX7HfhxNMw3afETaSCRfMFSP3qeyzbXBTaCUKTycFfzrDqSoy0sH1wDqifSUcqsLqQR1BuPpXSvnrKc6xGHN4JGT8N7qfVTpWh7M9oyORHi1EbcO8X2P6hxX14VWs00o8rkXKtro0OiuUMquoZSGUi4INwR5GutVxYUUUUAFFFFABRRRQAlFFQm0u0mHwS3lfxEeFF1c/DkPM11Jt4RxtJZZN1H5lm8EAvNKieRIv8uNZPtBt/ipyViPcp0X2z6t+1VKWRmO8xLE8ybn5mrdejb+Z4ES1C/KbDju0fBpcJvyH8K2HzNRcvaknuYZv6mA/K9Z9kmXmeaOMkoJG3Q5Gl7Hh11sPjXvD5LO8ZkWPQb2hZQzbnt7ik3fd52FOWnqjw/uL+LY+i7L2pvfXCrbykN/8tPsL2oQn/EgkXzBU/res8fJZRF3llIspKq6mRQ5shZAbgE6CvGYZRPDu97GV3iVFireIcV8BNm/Cdal8Cl/2HxLEbJlm2uCmsBKFY8nBU/WrBFIrC6kEHmDcfMV83SoVJVlKkcQwII9QauPZPmbR4xYyx3JFZQt/CCPELDlwt8aTbpFGLlFk4XtvDNkoqq4rbGODFthsQO7AsUk90hhpvfd9eFWaGQMAykEEXBBuCD0POqUotYyiwpJ9HWiiiuHQooooAKKKKAEqJx+bp3WJMbAtAjFra2YIWAqt9pG1n8OP4eA/asPEw9wH9TUJsXdcqx7k3L7+p53j3f1p0avTuYxR4yyh4rEvI7PI5d2NyzG5P++lc6SlrTQ8Q1bky6CNomaH7Fe6eSYyEhw3tLunQ2bkOQNVKukSu9kUO/RFufkoqMlnyDRb1xkUZUySRJiCsyLLEq7iBgvdM24LAjxgG1wDrTqHPYRIzd4rSFIR3pJUNuAiRd7cJ1Otra1XcJsljZACuGkAP3rL9GIP0pxJsRjwL9wT6On70rFfmRDEfcg8wkDyyOqhVZ2IUcACSQBoNK4U/wAwyXEw/wCLBIg6lSV+LC4HzqPBpyaxwTQtFFazNluAghhdsIjl0Vr+e6CeNRnPa0sZyLssjXHdLoouyO1UuBawO/ET4oydPMp90/Q/WtmyTNYsVEJIW3lPEcweYYcjVOGY4NfZwUf0/anOD2nji0jwyoCRfdIH5Cq1tUp8qOH+xSlraH5LxRTfA4pZkDobhh/u9OKpNY4Y1NNZQtFFFB0SiiorNc4jiO4wLEjUDlfrUJzjBZk8I43gq+3e3IgvDhiGl4M/FU9PvN9BWU4md5GLyMXZjcsxuT6k1rLQ5aeOEX5f616w2X5ZI6oMIoLG3D/WrFP4hpoLEXyVpwlN8tGQVN7LojLiFMaPL3TNEX1AK+0At7E2uQTwtTvtJwEcGMKQoEQIp3RwuRrVaViOBt6Vqp/EhleRDW2WC84vP4u5QxSLYCFhGxcurxMptHHYLEDY3bW96bT7Vx2ZEEihXmMRRYvEsrl7MXUsliT7PKqjBEzndRWduigk/Ia1MYbZLGyC64aSx+9ZfoxB+lLddcfmZPdN9Eg+1MRgMfdSAMsSlFdQg7t1YlLAEFrcetO8HtFhu+RjvF7SfayLu2Z1sneCI+NgLjvNDrUVJsTjx/6dj6Mn/VUVj8rngv30MkYHNkIX+61vrQoVS4T/AJDM12PdrMes0iBd0iNAm8Hd97Um++43ja9tb0wyjFGGeOQcUdW+RpvFGWIVQWY6BVBJPoBqau+z3Z9I695jGEKAXK3G/b8R4J/vhU5ShCOGyKUpPKO/bJhgZIJ19l0tfrbxD6GoHY/aybAtu3MkJPijJ4dSn3T5cD9am+0TPsLLAmFgJfuytn90BRawJ1blr5VQqXTDdVtkiU5YlmLPonJ8zixMSyxMGU/MHmCORp8KwPZHaJ8DMHW5jOkiciOo8xW45XjUnjSWJt5HFwf38wdKo30ut/Qs12Ka+o8ooopA0SoXa/O1wWHaQ2LHwxr1Y8PgOJ9KmqxftRznv8UY1Pgi8I6FveP6fCm017548E4R3Mq2JnaR2eRizuSzMeJJ41o+w2GWbKpIe8VGkZhdiNPEOV/Ks0oBrQshuWFwPlHKL03ZtL7mIhb4t+gNcZOzfFjg0TejH9RVTwryMypGzlmIChWa5J4Wsa2fYjZ5sJFeWRnlYeK7EgeS3P1pFs51rmX8EJNx8lb2a7N/fxjX10jQ6H+Zv0Hzq/ZblsMC7sMSRj8KgX9TxPxp5RVSdkp9sU5N9hS0UVAieSKrmfbHYXEgkxiNz78YCm/4gNG+NWSiuxk4vKZ1NrownavZSfBHeYb8fKRRp6MPdNXjPjfB4NvwL/kFXnEwLIpVwGVhYg8CKq22mDEeHiWNbJGbDyFtKtV3Oc4p9idZLdS0U+ilVSSABcnQCpuDJQLJIW7x1JG77KAc3P08qvymo9mDCuU+jls1nBw72Osbe0On4hWhwyhlDKbgi4IrK58M6KrMtla+6etuJA4286m9k887oiOQ+AnQ/dP7VV1FO9b49l3S6hweyfX2L7RSA0yzbHrCm8dSfZHU1mTkoJuXRrZOGf5mIVsurngOnmapjuWJJNydSTXrFTtIxdjcmnWXYdSGd1Zt0A7g0JB5+grDutlfP6eBEnuYxp5kv+PH/MKMxwXd2Yao2q34jnZhyNLkYvOn8wpcIuNqT90cS5Kv2nQPLmRSNSzlUCqouT4RU3sx2bqAHxjXPHukOg/mYan0Hzq9xZXEszzhR3jhQWPEBRYAdKfV6t6iWxRjwSVS3OTGuX5fFAu7FGka9FUD52407paSq7eexwUjKDoRevVFADDC5TBG7PFDGjtxZUUE+pArKe0qPHrJ/wB5fehJ8Hd3EXkCv3v5r+VbJXDG4VJUZJFDKwsQeFNqt2Sy+Rc4blhHzfRVp2+2WbBSb6XMLnwn7p+6f0qrqLkcvOteE1NZRSlFxeGJV27K9ou4l/h5D9nKfDfgr8vQNwPnbzrjjMhwyI3eFokTd3Z2cN32l27qMcR0PLnVSkIDEoTYHwk8bX0vbnS3tti4klmDyfSlFQGwuc/xeFRyfGvgf1Xn8RrU/WQ4uLwy8nlZI3aPHjD4aWX7iEj1tYfWvn13LEs2pJJJ8zqa1vtjxW5hEQH/ABHA+Cgt+lZHV7SxxHPuWK1xkKKK6YaEyOqL7Tsqj1YgD6mrQw0bshyAWOLcdViB8tGb9B8a0umuU4NYIo4l9lFVR8BanVZNk98mytJ5eRaKKKgRCiiigAooooASuWJhV1KsLqwsRXWigOzNdoMpbDSaXKtqrfofMV5yjHsrBGJZGPssx3ASeLD3h5VoWZYJJkKOLg/Q8iPOs3zbL3gkKP8A0nkR1rRpsVkdsuzH1FLplvh1/nBL53l5Zd67PITZerL4r+D3QthYg2N6rlS2XZjYbsjlVAuSvtva26m97oqPxkveyM4UDeN7DgKbHME1LpeRFjjLEo9+xYtl9odxTHLchRdTxOnun9KaZjjGlcu3wHIDoKYwR7o86f4DDb7AsCE5tY29CeVeT1+pV9u2v5fuaVSnsSkzvhcD7G8tidQGNg4Fjugjga74/FlSfETe5TXdkjPNdOXK3CveJcRoL2dCbKhv4SADdGOpHKoeaQsSzG5NVpSUFtj2OfB1xGJeSynryvck8yTqTVq2eyoRLvMPG3/KOgprs1lO7aSQa+6Onn61YqvaTTtf8k+/AyEfLFooorRJhRRRQAUUUUAFJS0UAMM5y9MTC8Uguri3mDyI8wdawHN8C+HleGT2kYg+fQjyIsfjX0ZWV9tOWhZIcQB7YMb+q+JPpvf2ireksxLb7iL4ZWSL2Lxz7jIokaS4XfCF3EduEbG4TdbWx0IvURtbg2jxDOUVFkLOiqVIA3iCDu6Ai2oHC9csjzWSFggf7NjZ0YkIQw3SWtqNDx8qnc+w0IijZ+8ESBu6EMTiPeexYtLL7VyBqBy0q38tmfcR80f0HvY1mW5O8BPhdd4D8S/6VrVq+fdkcV3WMge/CRQf6vD+tfQINU9XHbPPuPolmJmPbbKd/Dpys7fIqB+Zqg4PAyS37qN3tx3QTa/W1XrttH22H/kk/wAyVV9kBMJhJERuxkF1aURgggjmRfnVil4qTL8OIEbi8DJFbvY3S+g3lIv86l+zyDfzCAHgGLf2qbfW1dtrXtDHGHDjvC2s6zODu2t4fZW31r12XNbMI/MOP+W/6VOUm62/1Ot+k26loorKKwUUUUAZXh8Xjs4xmKTD4tsJhsMwRe7W7O12Fybgm+6TxsAV051I5Ri8yhhx8OLLv3MMjwYrd3d6yMRqOJGh61C7FZxFlOMx+Gxz90GkEsTFWIZSX1BAPEFfkRyqbw+1rZhBmHdRWw0cMojmNxvnu2voaAJHsgzGXEZbFJO7SOWkBdjcmzsB9KuNUTsK/wDCIf55f/kar3QAUUUUAJUdneWLiEKtoRqrdD+1SNIa6pOLyiMoqSwzKMbhnico4swNv2Ipxhod0XPGp3arFRySAKASlwW6+XoKjIIi7BV4nhrVD8Q/EpWr4UOvP1ZQhplCbffse8CiM9pGKrY6jkbaVL74jj3X3lAuAy6q6k30I0BPC9cZ8LGUNrjcB1tbxADRyeJJ0sOtRJckAEmw4C+grNy6ljC58lro9Tyljck+QJJsOQF6m9msp3yJHHhHsjqevpVcmm3fM9KvWz+ZpPGCtgwADL09PKrmk0cpL401x4I1zg5bc8kpS0lLWoWQooooAg9t86/gcHNid3eKL4V5FmIVb+Vzc+QqiYLK84lwi45MxcyvGJUw4jBQhhvKtuFyLe78atnatlj4nLZ44lLOArqo4ndYEgdTa+lVzJ+0rBw5bH474iKFI+5KtvF0UJa4FrEi/GgBrt3nuOMOWgM+DmnkMcoAsQSUW9jxGpNq7Y/Mcfk08H8Tiv4zCzPuMWQK6MeBBFzw14kaHhUb2l5o8keUYnEx9ye+7x11O6oaI68+AvXXbrOY85mwmDwF5d2USyShSFQAEa3A6k/AUAa8DS14RbADoLV7oASqj2tYffy9zzRkYf3AH6E1bqrHae4GXTX57o+bgUyr/sX6kJ/KzFMJhmldY0F2Y2AuBrbzq45oztBNI8csRkTdYTSgRDdKm0KW3mN1sOQvVJBqSTO59wxmQuhBG64DWB6FtRWtOLbWClFpDDDvuurfdZT8iDX0hAbqD5CvmtxofSvpLB/4afyj8hVPXflHafyZ921weCCTozJ8xf8A+tZzl+J7tuCEErcugfdAYG4B4+Y5jSti7UMCZcC5A1Qhx6A6/SsWVSSANSdB8eFT0zzXg0YPMS27QL3mFZ7y2jZCC8MUMbbx3fAEXeJF+BPCoXZLF9xjIJDwEig+jeA/IG/wqz4zDqsaLijGoMV3MsjNP3pU8EBO6A1reRqh1OGHFokuVg+lqWq/sNm4xWEjcm7qNx/5lFifiLH41P1mSTTwyu1gWiiiuHBnjsthmt30UcluG+itb0uK6JhkVNwIoS1twAbtjxFuFqcUUAcMLh0jXcjRUUe6oAGvHQV3oooAKKKKAEqubTZvu3jQ6+8enkPOnO0Wad0u6h8bfQdaqSKXaw1Yn5k1m6zU49EO/IucvCEjTeIA5kD51LRwRorqSW3D4/DuupvbeQ31F+RowmDMfTeI8aMRust+KN5U1zPGFmZFbeS+hsLm3C551RilCOZLkh0c8zxXeNccAALn2mtzbzpjK9vMngK67jEMQpO6Lmw4DrTLDMWlS/3l/wAwq5oNE9TNzl8q7+v0K19u3hds7HLZ2N+6k1/CaeZTg8VBIHSJ/MW0I5g1LbVZ1LDKEjYAboPC+pvURNnuKABLFQ3smwF7dK9LDfKCSSx7FZxrhN8vKNAgcsoJBUkag8RXWs8yvaOZJAZGLJwYHp1HnV+glDqGU3BFwap21SrfJpUXxtXHg7UUUUoeFR5yfD953ncRd5x39xd7+616kKKAG2LwccthJGj24byg29L8KXC4WOMWjRUH4VA/KnFFABRRRQAlUXtlxW7hEj5ySD5IC35gfOr1VG7QI48fhZjCd6TCOb26hQXA6ixPxXyptPzpsXZ8rRkNFFFbJQHOWQ95NEg13pEHzYA19FItgB0FYh2a4LvsfH0jvIfgNPqfpW5Gs3Wy9SRb064bOWKhDoyNqGBB9CLV8+53gGw88kTcUYgenI/Kvois27YMjuFxaD2bLJbp7rH8vlUNNZtltfkuVyw8GZk340UUVoFgsvZ9tF/Bz2c/ZSWDjofdb4fkTW2ROGAZSCCLgjgQa+bquuwW2pw1opyWh91uJT91qrqKd3qj2KshnlGw0U3weKSVA8bB1bUMpuKcVQEBRRRQAUUUUAJUdnWZCFerHgP1PlRm2aJCNTduSj9elUzF4hpHLObk/wC7CqOq1Sgtse/sQnPHR5lcuxZjcsdTUzDh+6ZRdd61ka3gYa3VtLg+dcMtwjJvMwAYgBCbFVJ++PdvyJrljcWRdFG4TcOuhW/Vel6zorYt8+xa45Zzx0/GNCdy991rHdOtwp6U2w0LSMFUXJ4V5RSSABcnQCrjkGViFd5vbbj5eQrtNUr5/QIrczvlGXLCm7xJ9o9f9KrmZZD3eIjdB9mXFx903/KrnSEVv0v4SxHolZTGaSfgoO1koGMJZQ4UL4SbA+HnbzrtEwmXu5HLtJZjuW3IVA0tfQeYrjtthHWcuR4HtY8rgWsfOo7KsVuMFY/ZlgXHW3C/UeVaUY7q017GVOTjbJS8sZypYkcdTY9fOp/ZLO+5bu5D4GOh+6f2r3iITNGVaRGIbe3xokaWItew4kjTyqBxOHaNirCxtfqLHUEEcRU/TbHbIgt1UlOP+fQ1ZWBFxrevVUTZraIxWSW5Tk3Nf3FXaCVXUFSCDwI4Vm2VSg8M1qb42xyu/Y7UUlLSx4UUUUAJRRVc2v2rhwSkEhpSPDGOPkW+6K7GLk8I45JLLOPaDtIMHCVQ/bSAhB93qx9OXnWf9mGb91izHIbpiBuNf72u6T8SR/VVczfMZMRK0szbzN8gOQHQU2jcqQymxBBB8xwrUr06jW4vtlOVjcs+xYs32UnGMkggjZwGupA8IVtRdjoLcPhU9gthYMOve5jiFQfcRrD0LHU+igetNcz7R8Q6KsKKh3QGc6sTbUjkKrODimx2IRCzSSSNbeYk2HM+QA1riVrj6nhfyGYJ8LJs+xrYZoS2Ei3I94qG3bF7cTr4j6mp6mmV4JYYkiQWVFCj4c/jTus2TzJlyKwha4YqBZEZHAZWBVlPAgixFd6KidME2y2ffAzFDcxtcxv1XofxDgfnzqEr6B2jyaPGQmKQcdVPNTyIrEto8klwchSUae449lh1H7Vo0Xblh9liE8kXRRRVgYaL2MZlZpcMT7Q7xPUWVvpu/wBpq4ptCFYpKhBBIJXUfLiPrWObK5icPiopeSsA38raN9DWobV4cLKHHsuAb+dYn4o51YnD9yrfmLyiwxZzA3/mAeun517/AO1oP+Kn9wqh0Vk/7jP2Qjey54jaCFeBLHoB+p0qHx20Uj6RgIOvFvnwFQlFJs1ts+M4/Qi5tisxJuTcnmad4PDqY3kbeO6QAFtfXmbg6UzrpBOyG6MVPlVeLSeWRQ/x2JClxuESSKA/iumtmuBa9/yqNpXckkk3J4k1Ytm8n4SSjzVT+ZpsISvnhf0SScmd9m8o3AJJB4zwH3R+9T9FFbtVUa47UOSwhaKKKYdGmYYNZkKOLg/PyI6Gs4znLnw8hRtRxVuo/etRphnOWrOhVuPI8wafRd8N4fRV1OnVkcrszvCYoCyS7zRgltwEC7W0uen+tTllkYlmt4R3kinwILWWNBwPnUFmeBeFykgt0PIjqK95bjdwqraxhw5FuY0q/OO5bomXCTg9szjjYNxiAGC3O6TzHI8BeuuW5lLCbxuQOanVT6ipYBJUYPKZFDd472NkWxAVb82PLyqJjwRll3ILuDwJFrevS1CkpLEjkoSjJOD/APCz5ftehsJUKnquo+XH86nsVmUUUYkldY1NrFzu8eHGqVmGMw2WLd7TYm2ijgvr0/Os6z3OZsXJvzOT91fdUdFFV/8ATxseY8L7/oaVdk4R9byzbX2pwQ44qH+9ai8x7QcFHfddpT0jU/5jYfWsWrvgsJJMd2JGc9FBPz6fGmLR1rltnXfJ9Fwz/tGxEwKwKIVPvXvJ8+C/DXzqmMzSNclnZjqTcsSfqamMn2ZknLBj3RVxGQyMTvEX1A9kW946VMQxRYZsOy2RXEkUs29vFZVazgEaKNBuka2cmmJ118QRF7pcyGOX5DGow8s0gMcj7siEEbjWO6JCOAJt0NiaXbjL0iKssccRB3CE8KykAkyJHc7qDRbk+IngLV22gz9Ve8JSR3QLON28TMvsMu9qWA586qZN67BSb3NnJOKWEJWwdmGzP8NGZ5R9rINAeKJxt6nQn0AqJ7OdjDdcTiVtaxjjP0Zh+QrTaq6q/Poj+46mrHqYtFFFUiyFFFFABUfnOVxYmMxzKGU/MHqp5Gn9FCbXKAxbavYefCkvEDLFyYDxr/Mo/MaelNMn2Mxk9isXdqfek8I+XE/AVulNsdhu8XdDsvmpp71dijwssZ8R4M+wWwGFhAbF4gufuJ4V9ObH4WqXznMIpEWOJWslgrHoBa2up5ca9Y3Z+VSSpD/HxfWoybCyJ7SMPgaw9Xq9RYnGUcIrznOXZxoovRWZgUFFKovw19Kd4bLJX9mNvU6D612MJS+VZDAzr3BCzndRSxPIVYcDszzlb+lf3qewmESIWRQPzPqau1aGcuZ8L+Sarb7IjJshCWaWzNyHIevU1PiiitWuqNccRQ1JLoWiiimnQooooAKKKKAGWZYBJ03JBccjzB6g8qo2dbPyQXYeNPvAaj+YcvWtFpDTq7pV9dFe7TQt779zJA5AIBNjxHI24XqU2ZzTuJdfYfRvLofhVtzTZyGW5A3G6rw+I4VWsfstOl9yzjy0PyNXFdXatr4M6WntqkpR5x7FO7QshbDTmRSXilJZWJvqdSpPl+VVmtdwUH8RA2CxSst/8NmGqkcLE8x+VxWWZtgJMPM8Uos6Gx6EciOoI1ptM/yvtfyiw/Uty/pjvZSSNcQDIVXwSBGf2VkKnu2a+lgetWjDYlZSuHkkUzS4eVJpI91rMrl4rlSAzBQRoedUK9eoSd4bl97lu3v8La1KcNzydjLHBZcdtMAzJGoljaONH71WBdoxYPZWBHS1+AqBx2OklLFzozb+4uiA2too0GgA9BUhluzGMn/w4HsfeYbo/wCbWrjkXZlwbFSf0R/qx/SoOyqvySUZzM+y7AyTuI4UZ3PID8+g8zWp7F7ApBaXE2kl0Kr7if8AU3nwHLrVtyrKocMm7DGqDyGp9TxNPqp3aqU+I8IfClR5YUtFFVR4UUUUAFFFFABRRRQAUUUUAFeSKKKAOMmGRuKKfgK5/wADF/w0/tFFFJlFexw7pEo4KB8K6UUUyKOi0UUVIAooooAKKKKACiiigAooooAKKKKACkpaKAPO6KYY/KoJj9rCjm1rsoJt6mloqSZEbps5gxww0P8A7a/tT3D4ONB4I0X0UCiihyYRQ6paKKiSCiiigAooooAKKKKAP//Z;" vertex="1" parent="1">
          <mxGeometry x="-10" y="-100" width="203.79" height="100.53" as="geometry" />
        </mxCell>
        <mxCell id="SxAMXVoo2cSi_DEeGkWg-35" value="" style="shape=image;imageAspect=0;aspect=fixed;verticalLabelPosition=bottom;verticalAlign=top;image=https://encrypted-tbn0.gstatic.com/images?q=tbn:ANd9GcT2_RvtHTMpRvimcR6184few4QxLfPEPKLjWQ&amp;usqp=CAU;" vertex="1" parent="1">
          <mxGeometry x="261.14" y="-79.47" width="142.86" height="80" as="geometry" />
        </mxCell>
        <mxCell id="SxAMXVoo2cSi_DEeGkWg-36" value="" style="shape=image;verticalLabelPosition=bottom;labelBackgroundColor=default;verticalAlign=top;aspect=fixed;imageAspect=0;image=data:image/png,iVBORw0KGgoAAAANSUhEUgAAAYAAAACDCAMAAACz+jyXAAABC1BMVEX///+jJCLcOCxJTE2sJySgIyF0ERM4PD1GSUo+QULfOSza2trz8/OvsLA0ODrq6upVWFnBwsLUpKOfDgqdAADWNivbMiXaIxDFMChBREXXNivbLyG6LCbQNCrbLB3LMim8LSbaHACwKCTaIAv98/JvcXKiHx365uV8fn/vr6zi4+NQU1SkpaWhGhegExDeQjftpaHkbmf1z83Nzs5iZGWKjIyYmZriYFjxu7jrmpb43NvgUUjme3Woqqq5urriwsK6aGfzwr/oiYTsn5vjamPgV06IGRjohoCxT07Nlpbp0dHld3HfUkpoCxB5ExSUHhu0WFe/d3anNTTHhoXasrHCfXzRn57jxsWoMjDqOWVXAAATiklEQVR4nO1da2PaNhfmEmobjIGF4DikJCTcAjRJwyX3rKHpm3Ztt3bN1v7/X/LKBtuydI4kE9ouhfNpo5bAzyOdu5REYmFycXb+/vT05eT4ZHFzrkRRGmdXtf1atUKkWrPrdweNn/2LlkkaZy9tu5pNhVKp1V/e/uyftSxyclW1KylOKnZlcvGzf9uvL+3zo/3I2qckW92/XKmi7ymNs1O7hqDvqyL7/cokfyc5ua9BqoeVqn30uv2zf+uvJ43jI7sagFwTEpGt7Z+uLPJC5fZlnVY9lePTfUYVVWrVyP/atfPVNliQtM9TjOqp3pMPK+GHRPNfHpxHGCDboH569rN/+q8gZ6d13u7uu/7m7Z1nkQn6b47Jar/k1FLFrq4c08fJxX0FtLuVO++fXZ90//TA0zUn+5A1qO6/WTmm80rj4BJ1+eu+r3nia/r3VfhJYhzuV47pHHLyvibwdSqXzOMNaAP428BexWcxpf16y0ZWtAdprZ5ifJzzGv74Kj6LKbd3gN0NpWpXzjnbCpnqKAd29vVT3wa5wYD5oJRb+Je0J8J4lzj4V+Badp1VzGIE++buKcdng7SlaVY//ODG0YjkF/oloNNJwV8VJZ2RNGmEvsqTjc+uLT1NROv4H4wt9//T1nhhX3FxLwGwcidR5I2zO0m26MnGZ4Mp3ISBPPOBdbOQLxA5ndQK3q8dfbi7Oj84u71ocCq90WifTKT5uqdZOGjqM7z19PSDYfBBcQHTi53O6Bp2i5C1mr1v2+ez0e2Ts+PJyzdHhB+R8xROUbWfXHxmpH3Rut4HVvhB4ZFzRzOd6pK1p/r8om7X3PIwsH+yqZ3tLLSviDF/UvGZSRHgeT7mwgi4vWMzmx5y3jL3hECLMDDLSNwj7GWzz3fX1j4+az0HOajaR8dPZht8LwLa57zTma3WbPvo5eT18cHZ2dnB68n7y5oNu5j7rk+EBMHZ1Obe2tra3rNnzz7+bxfeBk+nlC8iwJqbAMjprNqp+zPORrZvJ0dANTKbIv92DATBZPFvr3niEkAowLZBxa4+CceUI+DxNuBiAjidNYFmvjhPcRTUiB0+4nnZ8hY/RYC3DbZTEAfEMX3z33dMeQKaj/KCGgdv6rxSqdgTsVI+rrKU1dsnNgNoyl/8UQLcbZDZQbbB0X9dE/EE5ILAIH4c0J5UIaezciR1zxsfGINbefk+MhO9+FkCBNugUp/EB+VHCk9A4oYNjZVlAlvUbEVFGbOFL9pFcp3ONUaiBLgCb4P6f9spBQhIDIaWphl94ThAGltI5rh2oDKc1Tj04t9l0QcJePbxz02egdpx3Bf5oQIRkEgUct34U91hMZet5o3UMQK2kwD+PAGeQwTQ/1v8V/mBAhMwl2D4pWwlJdBGS1/ZDYUdgIQE2Y31pSFgF8u4VU5VhmNhrwdjamdPRMDHP8HFTwZuZpaHAGIDEfxq9/LRx6gJQLYBRcBfmykY/udrmeTyEJDMbMM4EAZOJX5o470E/xS3Dfb8xb+3AX9r9vleJplcJgKSmSSyFElEdCWgoD2pqSVN6W2wJ1z8PvzLRYCIgqp9eX4ChcMXx29sYedDFNdgG+x9JIt/C0E/u7M2hf/7EWDmSjd5IqWcqT6okCvlr6/JmCDLAxNgdtE0ULeU7/fzJcBNnb5vJrmLoFKp2bUPk4OTi7bHQ6N9cXJwflqxxQUbN3vNoLux6THw1yaYfvDSpUkf/hgE5MbDXjNSCc/lR8Oenu6UuGcH46KhGVPRjOJ4wD0BSGmU9gdpRm80HQMR0G0ampbmvzVh5puOO4NDZnCaNwzz/htnMttwgnIKp01JrQYVW2YwVmrus0dXr7msKFng25tg5iHlhW2ZEH51AjqWo+u61vOXXndEYCIfpcmHw8irmn1dc/R0KLqj6deS6bsjLTKIjHH6JkhAyUtF6FxRPtexDHoGw+pEiA/fOZNZwzSRgmQ9lmqpU7JbvBDuDbBFMPRd1U/Dr0zAWJu9lj592aHlhO/q9OgnrRAzCg1NREGhQ08XTOtizBHQDYryEXgLTUtnJ9C1IvVM5LVxTSSFPnV5dXx7EZqL13IHyR+fIqo/Cr8qAabmv5SXgxkxL2sE6A7SAPzTZ4qoEe1rAPzemPQg/KIZAR3/WX1ITZGHpyC7M/hW5sVFmghEfr92dOcvekou0BQFO8nWbpJFX5mAUgCr3kt0e+zL6s3Zc2N+GVJgwL1UhSHGmbtzwv/mCjJGqPk6GjB4OoPVMUECVDWRC33qTXTR03Kk1lSR3djmFn8MAvIhEHrO4Pd6UYbDFEKolyrn4JxFR+M14SZOIdFkzgAmwNNE20iYFMj5Geid+iJuzvXRzwK6Z14CiBng3nGmDYQ4eJCNuJkHgj2jSsBI/L361FrA75/J7MHVKh+7D8Jk9QXenR5OEXE7WSk/xCUAEMdb2k1Ek9MgsgwMLOmYYCxGgHSOqeeAQkAMskATkfDgHo+S5QoI1T0+AUodKhICPCg67DO643DqhdFCXbHOig7FCOhJ95DmBg0tHASJQa7WPyDV84lEAYl0jyet8u8q+IsJ0C33/cYRLF0/vjkaj4ZGNCaIOo9mWlX/CAgoRUnUHTcUA7y0Vy8EQEgMMnL6FDwfRsEv1D2urH/7Qwl/lADyttrU2Y7oAeK89P1kQG6c1mg4NCpq6zBKi4QLZNeQCA/iBSOgST/saMNxPn89SkfcUo+ARkvEgKeJBAbZbfLnCjdbIgVEdI8E/hflL2rwYwQ4WnF8M/CQNun3dfRow0KpSA13muHnzNrVmvmuaZqF3PVQ4ynACKCZ1zo+74MORYGnghKNT2WBGkpODbJoG+wzLYX3uAICQl7u21qf1TuzIAIcYxSGViOKAKPD5d/6FKBaoISiCkhrUhm0HO/RIgTkwgd1g04QdTvBl/q77iEpocBNlwoi5EqtRqWtb9EQjOieNTH6hOzdqxgNojwBJMChMpK0MYW9/XTAUNBQ1Y9Myrb5lFgDjhBwE87iMLH2YLrzdCuMAB/+ljDgbgOhQd73DXIDvb1mAwx5o19C4o+KrX6zBEeA7kQyMdQGMOCTK+YweMTfAhEDYHGJigLj3SAEhD9N5zuFrh1Ls3r0vjiTrk25Qa5OXN3xEizSKOieMBGl3hnHEuBEE6AFahU2sTnCkxVNfk4LyFgzPpKcgCE/RyI3oJhtnFdtFYQkuTr3VpSTM/CEfFaBX5reSl2hHs0TwKJ8TeUs0fpLaKenyBUpeOE2w25UR8EElGjyxcWf81lPtNw/kUbIFahKhqTbmGkZBafWGRclgFvlweJOG4LDi4HT43mFXcp7cZA2w4ibJDfCbgIbp6BxFGKmYCVlBpmHX0X38Kkntc64CAF6j3nLQoiBIZrF58nTQde0a4rBRvv4mBsacZccq1NCJovqbBKjKmgi5ZS1NORNYgVptc64CAFcdTzUAo7w7GjwnJtIprDF+zzp5Y0RMIpGc45h9ZqjG774wIMm91ZcgywKDfyZVNxOUKWpdsbRBDhcSnMcQOCMSwK58Z9zsaQ0kIHrjSFbkOEJyHG5ON0N0NPsVgAaY8ESFb9wJcUzJdUPp72zm3Oko/mDKdRidgyRBIiX6MhBRx2niJePJuPYhIb/UzRnRO8DsDPOPVKkoIkEoYEs2ymgMEZnHF2Q4Q1mMUZKbYpNPzGg7IbAcFM8oQSYaDrU0YZhDIB1xslTZknPdwQpkMOPKrHsRozOOIoAg+8HiYu/q8W4pY2IwzwGFWQKeFFN14JStGcFYRSVDDJvQrMuhjL4kZJbMDQ2AcDROFkhjCegHwkdRIftQiMgKEkWdLwWpFvXPgGCzjgFPT4FMxidVTAgqO4JGhPnIMDh/tGMTYA2oBNBqBPqSlOFgITZFFR2Zh1EYkymnozUlq7tPp82/Wxsyhc/pnsiPlNcAqCzifJSJEuAmehT2aPHE0B+oYMvg2kyLrKQQQqIQVbYBhn3QExSzhUSQrB7bREEyGuCDP5kSVIEPF4Fef/Q18E6jsdANxHtjMPy/tkthQhZQfB9xmVBFkEA5awTH1wmjjVKRK2KqHVUxQj7FOSHcC1tmqZjEUIoUDHIMviRbCo49yII6FBvXZTJcOqcUzk0Q9C1qOKG0o9fNw2LrQinpyUxFiU0zaASIQvQx4IGJFxeBAGhOgEzwqDkFheIMdIt9TsO06no/moAKsS5V4uQEfiVdc8CCaCCKkv1NAAFpMgIKKQiQMmNoj3CxAqAeKG6WiVC5qdDdQ+eKV0EAaYwTEOEqrbgKTyVZBwmkZZfEm1jSxZLMyhFyCoziVN1iyCA8hXVb9Cgk5golCrpaFTMMZVAGQk647AKZByDLAh5xRalrNQaISGA1tSqV2gM6EIKYgVuFAoyIhnTxkmEXpKOcePAF0wgCHkX2xkHEkDHwprqLQK0mdTAioBSSZLQ1OwVR+C3UiQXE58knXFYaCCPkFHVLy0TrCdjd8bBOobSJ3pa8R6lMc0AdAelWlE+MdS84ALaedTOLCYah9LOONQgi5YxoU4p5OVlrs44mAC6L0jX4T1QGnVGtIkuRAopPIBmUaktxe/JBi5yLYQTuK5u421ZiIfIIKNgukPm0T1EWq/UO7NkBERMqg65Qt205uiONkTG8J3rA/YcAkxAWA8zikxETTcWTct4D4frYkwE6VLIJ8qg8KuUKDdSgr73uASYkWykxjUnXs/aBB2KASaLaqSpTVDocN2hMAFUTkmnyy/EB6JnMGZz/9aauxDP1d3ROqNSd4o7tFqX3ZGgTEAizzQn0NVAMx8e3aM7sPJMc65hjEq5glnI5ZvAqUmYgMg20g2r2S8NcrnBNTPDLEA8uKzInXuBQXZ9opkk4YSeSgRHWZtKXem2KAUC2PMxjuZ0xjeD3KDUb9LndyNBF3emxu12t6w47enXTBbaa5jX2Bmm2Y4D98Y4lQYSkUHe2Nnc3d3dfA7fhKiQw2B8prrSHlAggD9sMcWCSY1FCFjAAY0C1xMBidd5emrP3lst748W4rOugP+gontYnyluYxYe6nbRdHwExlL8MSICEiOFU06Ga4KvajRUaoX4OOfpVdojXPvCDIvbmCXINQyAUxWs6L3omJzCGDEBsrOxwW+OvrliIZ4HDEFfYTpIr2VTC8kFKTPgcFGaOgNoJJyXTKHr3oNcY5Zajy4SZjEwKridkGXP7iwmGRegKTl0bQz5bHU3LSwpUw2MJYSARK5oQEP9ccXpcxneZ1QpxEtOsXqzzNEU7Q3c2ovfmCUuuZhDgT7gLziZCu/yh0OMMByeufJgMq4PXfYx+1I/wEtmoOZEpdMCws64rTk74whv7kA1AsK8vLj9Fr01I3pvBiMlHV7ButY0ww712cmDgBH/T2p4YoL3rZAZekHc4VpVSKOrtQShCZ85O+OCbaN4XU3w2vxRIkbMsQG4No5WFJVqrnV+Fzja0AWvOAPWP3pWCu6OjmZQuyOH/V5H61HBtYcGuJTde8bm6YxTakyEvzEcqEhAbnalA3gCj6Xgukh7/7p7aLsjuzTrpjm9/ykYos9iabPo4qpbQUvqzO/k7442b9wLs5xZ74Wh6dCFTYhvqWSQ3YPE4VgF2hDdE1F7qjdmDQzDcQzVvx3VzXeKjuWGpJbRa44HKpXiQmk07BkWCYSdYrNPYdfvaVaRWspjEt1pcAXBzOVHzSGR5ijPblUxKqqdcV4ITGjY2JEyBnPNRuLKd8aZ+U6nH+fKZtPsEinEuLPPG1QwTW4I84lZusGOwQiEXphgvk2xVT0564ybT/dwSdX/+LWVCxRmKYNGVcGjVBKkOwVSdMtJQBJ17xfSGQcWFZCZl5YA3L1XMcgC9FHdAwfLS0wAfiZeKUKG4YfvQBPEGktNQBK9pEapVZ2fDPF7RNH2shOAN6vHbVXHDqJKEnVqjVm/goiww0KDR3fGSfMc5aXZAIm3ootqcIP8iM44eabvcF2tMe6XkLb4siahQZbBD6t+2cBWOUZn0C8g7W+SriDcIMfvjJPnWFvlt4p9ib+OvCsfSihALqkRdMZBKW6FKsOL8tuvPxuOnyCNL+vr890ah3TGgfDLo4jD8qelW/0zabyTX9wH98bxnXFgyV5B96yv/7M0vickD3+XxX3SmEHOZje218LOOGinyBOqrXLy3VKZXkj+eCUzBqhBTm3s7G5vw51xCk13L8p/K13W/ctL+0tZromQW+OQzjiFM2VE9S+j5UXk4ZtMEwn+6hUPv7Q631ovf1lq1c+Lq4nkBln2Fx5SSm4nUf3Lk3RQFyWfSHZrHP1n2RAhumeJcg7x5Pe3KgYZvzVOnqpYerdTJn/8cyiNztBTwFLL2yp/+3fp3U6ZNH5TCA0An0gO/4vy25XuUZKvCqFBNDrLSlPVxO/5vKwZhzmk8W5d/tcFtnemYUDW/ZOdYsenVX6x0j0xRSVJkVnb297eW5M1Zq10z3zyx+eyzCAnpffFrXTPY6TxrzxClsC/Src9Ur7KI2RciO5ZpdseLe0vLZlBhuWw/GqlexYjD29ja6JW+XCVblugKBlkGv5vK92zYGn8q6yJVm7nd5LfP0kj5ORK9X9Xaf8jiZBb64dfVm7n9xRhro54/auMw/eXr59gClaFrh8m7c+8MVjB/0Ol8e4wYgxWLSY/Xh4+lcuHL1qt1ov18vo/K8fnJ0jj67vPnz69+vKwQj+m/B/MOkzENd3NbAAAAABJRU5ErkJggg==;" vertex="1" parent="1">
          <mxGeometry x="170" y="588.13" width="98.93" height="33.75" as="geometry" />
        </mxCell>
        <mxCell id="SxAMXVoo2cSi_DEeGkWg-37" value="" style="shape=image;verticalLabelPosition=bottom;labelBackgroundColor=default;verticalAlign=top;aspect=fixed;imageAspect=0;image=data:image/png,iVBORw0KGgoAAAANSUhEUgAAAgAAAAH0CAYAAABLk5VoAAAztElEQVR42u3deXxcZdn/8e91JmnTUtpUKJsCggVlE8GCUBaptM1MfHADiiLibl3JJLRs8kh4fNjbZIKAgqg/URQLsj+ZpC2UtWwFQWRTCgoKdIGmdMk65/r9kYIW0vZMMpOZTD7v1wuRdmbO3Nc5576/58w595EAAAAAAAAAAAAAAAAAAAAAAAAAAAAAAAAAAAAAAAAAAAAAAAAAAAAAAAAAAAAAAAAAAAAAAAAAAAAAAAAAAAAAAAAAAAAAAAAAAAAAAAAAAAAAAAAAAAAAAAAAAAAAAAAAAAAAAAAAAAAAAAAAAAAAAAAAAAAAAAAAAAAAAAAAAAAAAAAAAAAAAAAAAAAAAAAAAAAAAAAAAAAAAAAAAAAAAAAAAAAAAAAAAAAAAAAAAAAAAAAAAAAAAAAAAAAAAAAAAAAAAAAAAAAAAAAAAAAAAAAAAAAAAAAAAAAAAAAAAAAAAAAAAAAAAAAAAAAAAAAAAAAAAAAAAAAAAAAAAAAAAAAAAAAAAAAAAAAAAAAAAAAAAAAAAAAAAAAAAAAAAAAAAAAAAAAAAAAAAAAAAAAAAAAAAAAAAAAAAAAAAAAAAAAAAAAAAAAAAAAAAAAAAAAAAAAAAACQY0YJgGGsJv2y5O/L6zJiwXFqiP+RYgPFJaAEAAAQAAAAAAEAAAAQAAAAAAEAAAAQAAAAAAEAAAAQAAAAAAEAAAAQAAAAAAEAAAAQAAAAAAEAAAAQAAAAAAEAAAAQAAAAAAEAAAAQAAAAIAAAAAACAAAAIAAAAIBSUUYJgGHMfJXcRuV1GR52UWgAAAAAAAAAAAAAAAAgP4wSAP+htuUIuY7K70LCF5SqvvYdy50h1wfzvLvfr1TVnRv9UbI5KQVb53e5sRuUmvYMGxdQXLgLAPhPrqPk4f/keSkLJG0cANxPlPun8xwALpS0cQBwO1UK35ff8V9PSyIAAEWGeQAAACAAAAAAAgAAACAAAAAAAgAA4MzmCUrO/wiFAAEAAIaTdrtCnnlYyXS9rlxSTkFAAACAUlfbMkPux0leLvdz9MyKRzgbAAIAAJSyM5snyMPLN/oz9/05GwACAACUsna7Qq5t3/0XG84GPL3iHp21cHsKBQIAAJSKmvTxvaf+N8cP0fruR1TXfAAFAwEAAIa60+7bWqamSK9131kZ3adk+nMUDgQAABjKOt88R+47ZvGO0ZJfr2T6KxQPBAAAGIrqFu4p2SlZv88VyPVL1aRnUkQQAABgqAm7z5S8n1f3u0n+MyVbvkchQQAAgCFz9N+6s1xfzEGKuFR1LcdSUBAAAGAoyIS1/T/6/88TAQqU8d8qmT6UooIAAADFrHdSn5Ny94FeIfmtOvWOXSkuCAAAUKyeXVkt+YScfqZrW/V0/VbzPEaBQQAAgGIUhl/Kzwf74bo//UMKDAIAABSbK5eUyzQ9j0v4kWrnT6LQIAAAQDF5dvlkubbO4xJi8sylFBqDrYwSAP/ZFXuLemx1XpdhwUvvjuLB1cqEd+a3bcGSd38XP0duY/K6XNcTQ3qbCC0ueX6X4X6oaltOVGP8d+yEGCxGCQBgM5Lpu+T+8fz3xvayKneZqPp9uig6BgM/AQDApo/MTa4DBmlZO2vVy5+n6CAAAEChnbZgouRjBzFxJCk6CAAAUGjdvs/gLtAPUG3LERQeg4GLAFGcalviCsPb87oMs9eVSmy/0Z8lm38o17n5bZwtUFMisfFy03+U+6fzu9jgQqXiZ7+jvX+X6315rvMMpRI3vv3fs1q3U3fmlbxvQ2YTlUr8fWDjcbjLoG/7oX9e0r10AiAAYHhyM0mxwd/+g0AK87zcPmd+i+W9vd7Hct1im/g+uROYbaK9Q2FD3KUAC/2UJJ4YiLzjJwAU6ZYZcocKCs/yfHak79DxPiYGAgEAw1cYOEVA4U8A2NaFWW7PURQfBAAAKNwZgNGFCQCDdOshhjWuAUCRRtPQlKEMKPQZAG1VoODx7wBQ74HW3Lmzwu7tpbBSYWy8FFbKPJBbqEAuKSOzNoX+uqzsdY2y5Tp/6jJWIAgAANC/gdhVmB+jPqhk+lbJJ2pVy+6Sj/z3X2XeCie9/xP+O630/qtbWiepJr1Wpr9Kek7SkzK7T7uFD+uU6k5WLAgAALD5MwDrCrTcQPJjNhrYs/+QMXIdKOlASV+Qu7TUOpVMPyjTPAUV8zR3ykpW8vDFNQAAsOkzAOtLLNGMlPvHFfrlynS8qmTzTapr2Z8VTQAAAGw0XvrqEm5bmVyfUcb/pGT6t0q27MgKJwAAhcdtgCiOMwBLh0HKMbl/UR4+pWTLl1jpBAAAgIK/DaPGjpeH1yiZvpWzAQQAoIBbJjMBoig8Nexa7H6MPHxKdemTWP0EAGDw8RMAisHkqidkWjMMWz5eoX+VDYAAAHAGAMPTDMtI9sDwbHzsPDYAAgAADF8+HB/Na4uVqrqTlU8AAIDhy8r+OPzaHPwvK54AABQG1wCgWKSmPSPZo8No9H9Eqao0K54AABRoy+QaABTTmOi/HTZtjameFU4AAABI0ugRv5es9B+iY3a3GhLNrHACAFA4/ASAYnL+1GUyXV7ircyoTKewsgkAAID/NKr8fJmV7rMBzH6mOYk/s6KHDx4HjOIUU48yee5sXe/+fPeOvHfyrrV9LHdd/pfr7X386Zt5X27Guzf67/KMq2cQBtKRZWFOP++Cqa+rtuViuZfi/fGvqWLMf9PxDC9caAUAUSVbPyPP3FRio0CowKarIXEHK5gzAACAt1zaPFIv6Di51cgzB5VeA4ML1BBn8OcMAABAlzaP1FI7SoEfK9fxclWW6BDQrMPin+qd8hicAQCA4eashduro3tfZXSopMP0go6QfCuFpdxoW6zxE45n8OcMAJAbs+fvoZ7weAqBohOGZTKVyYIRUvgeuW0vaQe57yFp/PDq+e0xVYyZqguPWMWGwRkAIDd6wmqFIU8RQ3FySR7+x38Mx8M+a1VlxXGqP2ItG8TwxjwAyHEH63tTBKBo/UyVFf+l+ikM/uAMAHJ+hLUHRQCKzirFgm+qIf5HSgHOACA/TLtRBKCodsrrFIzcj8EfnAFAvk8BbE8NgGIY9+0BmZ2uxvi9FAMEAORX/aIxWtU+ikIABZORWYs8uFipqnsoBwgAGBzru8dSBGDQj/R75Foi+c0aWfYbXTz9FYoCAgAGl2srigDke8BXl9yekmmRZHdqxJh7dPHhaygMCAAonEw4miIAWVsvs/vkbjIzubtka2W+RrI1cl8tBX+X2VLFypZq60+8rHoLKRsIACgiIXeVAFkf0QdXKRWvpRAYbHTYyOX4z9TSQFaDv/UoVp6iECAAAMDwcr3mHv0PygACAIa4WDs1ALLpgf0SioBC4RoA5FAPAQCIzO5QQ+JP1AGcAUAJxMlgPUUAova+NocigACA0rBLZjVFAKIc/OtJNcZbKAQIACgNp1R3ysSEJMCWeMDRPwgAKLWOzVZSBGCzh///1N7b/p46gACAEuvbfDlFADbb6/5YMyd1UwgQAFBqCeAFagBsavfQMzo0/gsKAQIAStFfKQGwCW5naIZlKAQIACjFHu5v1ADo8+j/HjUlbqUQIACgNMWMMwBAnwEgmE0RQABA6cpUcAYAeNfgb/PUGH+YQoAAgNKVmtIm2QoKAbw9+ner3M+iDiAAYDjgLADw7172p7qkeimFAAEAw4A/Rw0ASWZvKKj4MYUAAQDDpNPTIxQBkORWq7lTmB0TBAAMm63qQYoAgrC1qil+DYUAAQDDxyGJP0vi0cAYzqP/Wo0s+xZ1AAEAw8sMy8iMnwEwnI/+z9BF016iECAAYDhaRAkwTEf/+9RYdQV1AAEAw3TL8laKgGE4+HdI+obMnFqAAIDh6ZDEIzK1UQgMsx71XDUluA0WBAAMYzMsI9cdFALD5+BfSzSuYg6FAAEAMLudImCYWKWy2AzVT+mhFCAAABVjbpGsm0KgxJOuK9CXNafqRWoBAgAgSRcesUrmCykEStxFaqy+jTKAAABsfHQ0jxqgdDdvu0uHxc+mECAAAO9ScbNkndQBJTj4v6ryii9ohmUoBggAwDulprTJdAOFQInJyIPP65Ipr1EKEACATfHgKoqA0jr6D85SU9U9FAJDejOmBBgUyean5dqLQqAEus3fKhU/mdn+wBkAIBrOAqAExn5r1d4TvsbgDwIAENXI8l/JbDWFwNAd/LVEZcGxmjmJuS1AAAAiu2jaarlfTiEwRP1No1StOVXrKAUIAEC2RislUzuFwBDzmspjVbqgegWlAAEA6I8LqlfI7OcUAkOGaY2sLME0vyAAAANV7pdseGY6UOyDf5cU+4xS0x+nGCAAAAN1cfU/JW+gECjy0b9DQexYparupBYgAAC5MnLshZKWUQgU6eC/VjGrVkMVj7MGAQDI7VmAw9fIAh6ggmK0SgqmqiG+iFKAAADkQ2XVLyX7M4VAEVmmcjtKTVUPUQoQAIB8qbdQgX1TEk9SQ+GZvazYiCM1J0EoBQEAyLvG+MMyzaUQKLC/aWTZ4WqY+ldKAQIAMFgqR50j2bMUAoU58tcSjRh1pC6a9hLFAAEAGEz1UzoU86/KFFIMDPLgf40qRx2hS6a8RjEwPHcBoBjUtpyrMPwRhUD+ez3rketUNSUupRjgDABQaOOqzpVZK4VAng95VkqaxuAPEABQLOotlNmJMv2DYiBPo/+fNLL8o0ol7qIWAAEAxaQx/oZisWMl66QYyO3Yb9cqGHcYF/sB/7FbUAIUnbr0ScroGsnZPjFQ6xXYbDUmrqAUAAEAQ0Gy+Tty0WljIL3b/bLgK2qMP08xAAIAhlYImCXXJRQCWXZrnZL+W+Pjc1Vv3F4KEAAwNENA+hy511MIROzSHlWZn6y51U9TC2DzuAgQxS2VOFeBcRYAWxr4uyWdo/EVhzD4A5wBQCmpSV8u+XcpBProxh5RzGeqofpP1AIgAKDUuJtqW+bIvY5iYEPv9S8pOFONVb+VmVMQgACAkj4T0HKy5FdKXkExhq31MrtElRMuVv2k9ZQDIABguKhtOVih3yT5ThRjWHVXLulajfQzdXH1P6kHQADAcJRs2VHuN0p+CMUYFl3VYgVWq8b4w9QCIABguLu0eaSW6qeSvkoxSraHekgWXKDG+C0UAyAAABurSc+UdLHkYylGqfRMNl+BXaiG+CKKARAAgE07bf5O6uy5VNKxFGPI9kahZDdIdpFS8ccoCEAAAKKra/0vhZnL5NqVYgyZbqhTgV8jBRczbz9AAAD6b1brVurOnCspKSlGQYq2+1kq819JwS+Vir9KPQACAJAbyfkfkXouk+swilEsPY6tk3SDPPilmqruoSAAAQDIYxBIHyXpDLlXUYyC9TT3y+xXGlfxB9VPWUtBAAIAMNhnBM6Q6zjx08BgdC9LJV2vWPmv1DD1r9QDIAAAhTW7+QPqttlyfZkphXMqI7PFct0mK7tdqWnPUBKAAAAUYRBYtIO6O0+W/AS5H0hB+tWDtElqlXSbLEirMf4GRQEIAMBQOyswQ/IZcn2Egmyyy+iU9KgC3S+ztMaOvFf1U3qoC0AAAIa+uoV7KtM9Q+Yz5NpvmPcQ/5LsAZkWy/wBjd31MdXv08VGAhAAgNJ26h27KtM1We6TJTtUpv3lXlairV0ls2clf1gee0AxLVZD1ctsBAABAED9ktFavfwgyQ6Vq/cf+YQh1IKMZH+X6VlJz8ntWcmeU7me1Zyq5axggAAAIKpky46Sv19S7z/muync8P9lu0g+cpD25nbJlkm+TLJlsg3/li2T+ysye067hc/rlOpOVhoAAgCQT+6m0xfsqJ6eXWSxrRX6aLmPlmm0Qm2lQL3/7RotC0bLwwoF6lGoTpl1SNYp9w5JnZI6Faj3/4dBhwLvkAcrZeEylY9ZposPX0PBAQAAAAAAAAAAAAAAAAAAAAAAAAAAAAAAAAAAAAAAAAAAAAAAAAAAAAAAAAAAAAAAAAAAAAAAAAAAAAAAAAAAMOwYJUDWZrVupW7tq8Bd47b9i+onracow8hpze9TV2xPjQye10XTXqIgAAEApe6Me8erY22TXCdJbhu2oFCyX2pk2SxdNG01RSphtS1HKAx/IWmP/+hBXlAQfEMN8UUUCCAAoGSP+sMnJP9A31uSPafKCQdyNqBE1aSPl/SHt4PfxivfZfqiUonfUyhg6AgoASLJhOdvcvCXJPcPqm3FhRSqJMPfdpJ+2vfgL0lucr9csxftQLEAAgBKjev4CK86gUKVoJ7Mf0m+zRZeNV49HZ+iWAABAKXkzIXbyH3HLYcE346jwBJktn+k14Xan2IBBACUkg6Ni/zasKuSgpWYUO+J+Mr3UCyAAAAAAAgAAACAAAAAAAgAAACAAAAAAAgAAACAAAAAAAgAAACAAAAAAAgAAACAAAAAAAgAAAAQAAAAAAEAAAAQAAAAAAEAAAAQAAAAwJBSRglKRP2S0Xpz+Yclm6hQH5C0jWRbST5K7qsV2EqFWqHAVirwl7SrP6JTqjuHbnufGqHV//qwlJmoUBMVaIJCbSVpK5k65Von02q5vaiYnpeNfFJzp6wc0u1d88/91KOJssxESRPkNkam0ZLWSLZC7stlWiEFy1SZWaL66jdzsmyTyYu4NrNat1NP5mS5fUiB3pD0mMbtcqPq9+ka1O8xe9EOynTso4wmSnq/pLEyHyNZuVzrZb5WFixX6H9TzJ/X2FFPqn5Kz6B+x7rWyXI/SmE4UWZ/U+CL1FD9YL8+67T5O6nHD1SY2U6uCZImyDRBMpe8TbI2ydsU2EpZsERzq56loy4uRgmGsFnpD6vbT5DsE5I+Knl5Fmu+XW6LZb5IsjvVGH9QZn1387ULd1fYtTRapIztlbcdffb8PdSVOUGmqXJ9TPKKLDZ1l/SMzO6W7AZVTr9L9RYW9fqd3fwBdevzkk2V/GNyjYreXOuR62GZFkixBaosf6jfg01N+jeSnxRhodepKfGFQavPlUvK9fSK0yX9sI9t4S8qty9qTuLP+Qtli8r0Zsd0hfqs3D8uaY/sel9bJ+kByRZoZOw6XTTtpTyGpK3UHTZJ/vU+/vZnCirr1Di5ffPtbR6rttgn5JmjN2yTH8pyuHldpvslu1/ut6gp8RydOAEA2XU6FWpr/6pc35W0b+62BHtKZnM1budr33XkVMgAMM9jerDlCwr1A7kfnMNN/xWZ/UqjwiZdUL2iaNbvPI/pgdYT5OEpvSEnZ5bJNEeVo36m+ilrh3wAOLX1o8qEv5D7/pvp3f6lkeX76KJpq3O67No73ivvqpP8ZLm2zdH26DK/V2YpNcRv3mQY769kyy/k4dc284rL1FT9g02cNdhZodfJ/RuSj8nRyBPKdZOCEaepceoLdOwEAGzpaKOt/ftynS5ph/xtEfaqpJ+oLLhUc6rWFSwAuJvqWk5WqHMk3y2PlV0vC66SRp6r1JS2gq7jZMuX5H6O5B/I4y7/uqSUKsp+EnlgTKZ/K/cvFkUAqF9UodWd9QrDWZJiEXq4JqWqkzk6it5OPeGPJf+KXCPy2Cs/oyD4bzXE/5ib7Wr+YfKe+7YYQMqCgzS36tF/B52WfRT6GTJ9Xu5leepvVisITlJD1e108oOPiwCHguT8w9TW/phcjXkd/HsH3h3lfr56wseVnH9YQdo7q3VfJVvuUej/L8+DvySNlodJqeM51aa/XJD21rbso2Tz3fLwmvwO/pLk20j+Y3V0v6hk+nPR3lIkVwDUthyhtvYnFIanRxr8e0eYqQMPHR6oNv1d9WSek/u38jr499Z7L2XCG5RMt6q2ZeLAP7DnqAgLNYXhkZJ6f1pJpuvl/rjkJ+Vt8O/tb8Ypk/mDZs/fQyAA4B0dTzJdL/XcI9d+g7ps94lSzz2qTV8s95GD18mnv6vucInkhw9ye7dT6P9PyfQflVxUOWjLrUnPVOhL5DpykLeu8XL/o5Lpy3Rp88ji3g8WjVEyfZlCv1uuPbNcsXup3vvfz53ZPEFtLWmFfrlclYO8TU6X++OqaTl5gIFi78ivq12wn55e8ZDcz8nrwP/OEN6VOY8OnwCAt5xx73itapnfuyMWaD25AoU+W94zfxA6+Qolm69T6JdLXrgByf1z8o7HNCv94bwu59Lmkappvlbyn2V3MWPO2/s9vWAPqW7hnkW5H9S2xLWq/Sm5f0/yfvxkaW39vtiztuVgrbfH5T69gOtnKyn8tWrSV+vKJeX9+xCL+r4qefcSyQ8oQEsn0ekTACD13l7TvuYeyY8uji/k78vrx5++YJza2lvlOqFI2rubenSPaps/np/1e9/WWmppSScWR3N9f2W6F6uudeciGvjfo2TzrxWGaUm7DCDE9i+81qSr5H6n5DsVyTb5dT2z4nbVLxqTx+1g57z/vLHphVfS8RMAcPqCXdSVuV+5vMK/mCUXVaqz+64CnALfUmc4TqG1qi5dnfOw07lmkeRTimtF+DYKwz/IvfAXBiebj1MYPi3XwE59m61TrPyc7MNH+rOSbus9+i6qbXK6VnXcqfrmsaXXEdhjdP4EgOHtzIXbqKOnVe7vHxbtrV08Smq/Xa6PFOcX9JEK/QbVtU7OycfVL6pQZ/etkn+0OJvrh6p24YcKtvzZi3ZQTfpGua6XtP0AB5QXZbGj1DD1r1m9ra5likL9Pqs5NQZ3JR2kNrtV9YsqSqszsD8wAAw+ZgIsFpc2j9QLXf8naeAdsNkbkl7d8M8KucZL2knSjpJPKJLBxlTbcp1cObjTwN6U9MqG9i6TNHZDW3eUbPv+/Xb81vfUKGUyt6tu4SFZDybvbu+1uTnT8Y72mraSfDvJtpdr14G1N3OQpGc2XtwgzARY2/JVdbXPlTR+YKVRKLcmjZ9wtuonrc/qvbNa91V3eHNurkGxF2X+imQrJa2XtI1cE2Q+Ua6tB7jvfFxtHddKOrY4xm61y+2Vt/scU0zy7eXaTtJ7JY3eQn+1UI1VV6uJYYAAMFwttQbJ+znxi7mkh2R2k8qDm3TJ9L9t+gindWeFmc/I7bOSH6nIt1PlWF3L6XL/1ABCzhOSblJgN6sh/sSmz6o0T1B78Gm5f1bS0f3s3Mcr03296hd9TPVTOvo3wKVPletzA2zvzVLsZqWmP77J1521cHut75kuhZ+U2+eyPpIN1NNHCMrf8H/qHbsq03WVwnDgF9qZPSUPvq6mqof6cXZmjFZ1XC95/06vm7oku14e3KYRI+7WJVNe6/N18zymh1oOVI9/QrKvZD+b3tsh4HNKNs9SqnpOgQb9f8jsFpndrLEj793kLJP1i8q0qmuyLIxLqt544iZzmTXJxp6V84mPEHE1ovCSzcdtOO3ZnzWYVlnsNM2p+kv2y02/X64LJJ0woKPGjSJlhImAeicmubt/4cMWyzRLqcQDWb91Vut26s6cK7Nv9OsWJ7MrlUp8O/uw03yIQru3f7dV2WJZ7DSlpt/fz8H1LLm+GjkIlMf2e9e2lI+ZAN1Ntenvy+38gc8uZ90K7AKN2/m8fs//n0xfI/cv9etsjPnFKov9XHOqlvfjzMdUhX5Wv64JMetR4EdscS7/mvQ8yY/P0Yjxgsx+qIb4H/o1aNct3FNh90dltkIVZX/SBVNfZwAgAAxfpy8Yp47u55Ttb56mvyqw76ohccfAj8LSBynjV8hzcCvOlgJA7/ztj0u+d5ab6iuK2Sk5mR3t1NYPKRP+RO5ZThJjrjIdqbmJ+7I4sizbMInTflm314LvKVV1c27am/n9Fq+1MFuoVGJaHwNIbgNATfqDMv9Fjn7+eURB2dfVOO3Jfn9EbfN0hWrtxwD8e8lOVSr+ag4OAr4o19x+9ANPqnLUgZt9zkNOAoB1KLAz9KFtr9DMSd103KWBiwALrbPnvOx3epsvjfpYTgZ/SZqbeESVo47o7dDy7JmVtVkP/qYlCkYcnLOpUedWPavJ8bhkjdm90U0Zv0L1i6Ifybd1nJL14G96SGaTcjL4v9Xe3XWILEht+Lmor2X+S9I387ru6xeVKZk+U9ITAx78Te0yzdZh8UMHNPhf2jxSoS7LctldUvBlpRIn5mTwl6RU9bXaasT+Mns4u01S+6mt45Q8Hye+ojIdqcZ4E4M/AQC5Mqt1N0kzs9wZr9DkeHXO562vn9KhVOJEWfCjvJ7tkJ+VZdi5UVZ5pBqP/ldOv8sMy6gpUScLvilT9IliXPtpVWe0+/dPu29ruZ+d9VHl7vp4zgaWt5xS3alUvFZB7GBJCyR764FAL8nsKmnUvkol/p63dV/XfIBWdTws9/MHfJGd2V2y4MNKVc/RDMsM6LNeCL6hbJ7iZ2qTx6apKX5Nzmt0/tRlsnFHSXZTlu/8Yf7mB7A/yWyS5iYeocMuPVwEWEg9Pjur34XNblRj/Pt5vWAmFf+xatPbKvTcH1V09nxX7uOy6HwWq3KXL+T1ue6p+NWqbRknD7O4mMpPl/tvtrgeOtd8W9lc1W66U5UVJ+uUPD4jvnH6EknT5W6aPX/02w98ypdLm0dqqX6k0E6TBjq1rL2pQLPVEP95TvaB3p9nZmex/G4F9jk1VN2Tv/UzuV1XLjlBT69ojXxdgPt71Nb+bUk5viDQXpHZJ3MeRsEZgGHvjHvHy/2rWQwOT6osOHlQrpY9NF4ns4W5PcOwqEzuNVl0Pv/UVuWfy+vg/3anG58rs99kEQD2Vl1r1WZfMs9jkpJZhLvnZcHxm/0tN6d9u3neB/+61slaao9LOisH88rfrmDE3mpMXJWzfWB1x3G9t01GrZl/Ww3xRXlfNzMndWvUmGNl9lz0TdJqBvTMg3c3tkNl+gyDPwEA+dC59vjoc8Bbt8rLjs17h/2WGZaR2QkbHh2bG6s7pyqbax0CO1HnT102aOtjd/+mTNHv8/ctXBT30PxPRJ5G1hQq8BlqjL9REtv2rNatlExfqjBzb79vc/t3bVbK7EQ1VR+T85+BXCdF/x52q1LVvxy0Gl54xCoF/pVNXrPx7sa8T2+25m7q6sDO4LQ/AQD54tnMA+9Xbvbe/vwcFb8h8//N2eeFUZ4n/3anf7Ma4/cOantPqe6U7Mws1t+ne2cy3IRMmMX6tWvVUP2nktiuT22dpp7wL3L/QQ4eYvU7xUbtpVQi9xennrlwG7kizj1gHSoLkoNey4bqB2X6eRb7WG6eLWF6QR/a9go6aQIA8qH3gp3DIu6MazRa/1OQ71m56xWSvZijT6uK+LqMVH5WQdqbStwos4jzC/gYBWsOH3h7rVMjy84ukS27Wj2Z+QOfytr+qVjsGDVVf1Fzp6zMyzft6Dk68twI5ldqTtWLBanoKD9bss4c72Nb2LRjZ3G1PwEA+bK6fXIWv4n+UhdUryhMUNmnS0EOLixKLtgr8hTEZrcoNe2Zwu0RwfnRj7jCvqf1nT1/D7nvGDHgXaeLpr1UGhu2D/AhNeYyu1LjfR81VN2e36/q0adkLotdXbCSXlC9QvI/RmzTzkqmBxa+TP9Qavo8OunhgbsACtJP2mRFnV3VYzcW+LveJOmygc0U2H1oFgssbHvfn1mgpbY20ux07n0/JKgnE/3hQZb1LV8lypYq8K+rsfruwdmuFW0dmV6Qh6N0avqggpUmtIcVRvxJyWyypL/3fzXYLUzLSwBAfu0ZsfNZqcnT7y/oQzJS8VdVk35I0iH971SCPeURbrU365Eq/q+ga+aU6k7VpNOSosyc9sG+O2yPun7bNW7bBewOkswzqhjxl0FcYrR7/127q8cfLmxxshiPPeK2t+l98GY2xuGDnwAKsz9PjLg3LhjwRCe5+cLpgR3BhBMj1uXBnE9w1K+9wqK1120n1S8Z3UcnGnX93pv1E+tKd5/YU+u7b9/shZW5MnvRDgN//kDRmtjvd5raNXbkvWyMBADk92gn2u1hrn8Ux1ZiA/we9t6IHVBxtNejttdN6954bx/rbaeIS3qJnWGjwh0iX33dhjkU8qe7c6fSLaF2GsB2/8qgzUMBAsAwtlXE1xXJJBw+sO9hPrTaG9Mr0QeTcOv+r19nkpV3lcQ/pfvTl+V3GTamhCs4kLaxPRIAMAinAMYMrR2yfGDfw4dYezMjXsuicX1c+e5DbP0WnW8r2fzD/O1+kQN4KR9c9FWX19j0CADI/2FOGHGHLI6LNK07i+cVqK97liM+bMeKo72xLOpu/u4rtMyitdetfFhs7qbHs99F9L+qTX85T7tfWMLVHsjsmesEAgDy3iOujfjCHYvk+2bzPdb1MQAMrfaGPdG/RxBb28fgFa29ph1KezO3N3ofm1t9gEwX9yMEXK2adFXOv1dZSQ90jwsgABTzCQAfWgOiZ/E9Mluv6eMDIrbXi+TirO7o7e0J1w75wJOfwf9GjS7f++3H5jYmzpDZtVnuJ2WSblCy5cDcbs+2pkRrvk4j/HI6WBAAintPjXr19x5F8n0jfg97XY2T2wfQ3olF0VwPote9PPhnH38atb0fKMFBaLlkM5RKHLvRw5zMXHtN+Gr2T5n0MfLw/zSrdbccBtqXS7BP6ZR8pi6pXkr/CgJAUe+rej7iK6eqflFFwb9v6MdEbNcmOh+P1l7XAaq9472FX0FR22uv9vmERveo6/dQ1ba8p4QG/8c0qnxvNSWu7/PvZ07qVqUf249rAnZQT6ZFZy7cJiffs/epi6tKpOYvS3aTrOwApaqvFZAFZgIsyPjiz0Z83VZ6s2uqpNsL9l3rFu6pTNfeERvWd7sseDbadY9u8s5PSfppwdpb3zxWbT4l4qv7fl57EDyrKNeZuZdJ9klJvymN7Vp/1QVTN/8I6frqN5VsqZaFD8i1axafvafau29T7eKj+z7LlPXI+YzkEaYDthc1fsK+0poivHBwu1D1+3TRoYIAMKRSe9l98ojzbYSZ4wsaAMKu46O3y+7v889HxO5TR8T+0+34ggaAVcFnpHBExDMe9/X55+XBfeqMOl74cSUTAKJKxV/Vqa1xZcL75R79DIj7odLq32ueHzvgGTLN74v2PADfTW+uOFQNiTvouFBq+AmgECrf+4hMEY9i7ETNnl+YawFOXzBOsrroW1NwT59/ftG0l6LP8udTVNtyRGGO/heVSeHZA27vxdNfkSzab7GuY1TXfMCw2wfmVj2rIDhGso7szjL4p7W49Sc56PruifzSjH+HTgsEAORooNmnS7JoD4FxL1N35vyCfM+uzJnRj9BsqeZWPbuZge626Gcd/OKCtLetc6YiX3hpb2rrEfdu5mxIxPa6KaOLhuV+0FC1WIFOlCm70+sefke1LWcNaNlldpfMot4OeKxqWo8UQABATmRzS5T7cYN+VFzbMlGh10Rvj/9uC+39XRY9/CFKpr8wqO09s3mC5D+K3l7dpPopmz56jXkW7dU0JVs+OSz3g8bETTL7QdbvC8PzVNNycr+X23vx5s3R13d4Re8ZIoAAgAEbe5uyuRI5DOcN2hXy9c1j5eGtkke8A8FcwYjfbvYlqcQDMv01egbQVZrVuu+gtPfKJeVq1w1y3y6LXeeazf713MQjMj2TRei5RrUtE4flrtCYuEJmF2T/Rr9atc3T+73cWPDrLEL4PlrV3ki/BQIActDpTW5XEGTzW+YOCrtuyvttgfUeaJWulWuvLI7+b1HD1AiDe3BJFp37GPVkbhmU2+SeWfETubI4xWuPKlV1Z4TXRf8pw/09Cv223usuBin0DNayokglzpLpmiwDQLlcN/T7Goq5VQuyvCXx+0o2/0AAAQADVlF2aRa/Q0ryg9TWcZuSiyrz8n1qF49SW/p3kv4ruyMpi3aNQuXO10j2zyzOAuwu9wV5O/Mxz2NKNqfkPjOr95mitXevCdcqq0f++ofU0dPS+7z6PHA3JZuPUzL9qJ5ZsV4d3W1Kpl9STbpB9UtGb6a9Nij7w17bfUNm87Nrk7ZWRs1Kpt/fr2VacEGWy2tUbcv38xfAnxqhmubTlUw/qpp0u2rSL6gmPU91C/ekwwQBoJT03jN9Xpad+FSp/aGc3xmQbNlR4eq75Tohyx70Os1NPBKtc9unS+ZnZNneA+Vdj6i25eCctvf0BeN0f8vtctVk11zdr8b4TZFeO3NStxQ7LctR+hB1ty9R7fxJOW3vmc0TVJv+P7mu762pl22o786S12rV8sd1xr3jNzHo+aDsDzMndauy4liZPZblO3eQ1L+JghqqrpfZA9nEXYXhT5RsTuX8moCa1o9p1T/+IulCuR/Y+xOc7yb58Qq7Hlddy7F0miAAlJLKXeZK9mxW73Htqe6eh1XbUqMrlwzsiXL1HiiZ/oo8fEzyg7Ic/N+UZXGboCSlqq+V2V1ZhoAdFfrdSqbP0azWgT/KNdn6GXX0PCp5PLvmWo+s/Dsyiz4gNlX9Ievpb13vlffco5r02Tlpb23zdK3Xn+VKbOZVe6hjTaqgZwAkqX7KWpVXfFKyF7PcRj6o9d23qnbxqCzXqSuw70jKZLmOatTW/pjqWicPuM3zPKaa9Nmy8D5t6i4U1yhlwp8r2VK6z48AAWDYqd+nS6avyawnq/e5KhWGKT294hnVtJ6QdRCo90DJ1oRWtfxJ7r/acBSV7dZTp1Q8+2fal8e+JVOWD2TxCrnXqzvzvGrT3+rXtRCnpg9XTfpeeeYmyfszD/95apz2ZNbvsvKZMlud5fodJfmP1Z15XjXpmf1qb03rkUo236FQrZHWr9uX+gwcg3UG4C2XTHlNsfK4ZK9nuY1Mlrf9TvWeXb/WEH9CQT8uQnTtp0x4n5LN1/UrCFy5pFzJ5q9pcctTkv/47bMymzZe0jfoNJErRgmKRLJ5llyXDGBNtsntdplu0ojYg5o0bdlGs6XVe6C187dVxg+U+2fl/mlJ2w9gedcoVd3/57XXtJ4gZa7r//JtndxbZLpJQewefXCb13pPub99RGiaddc2ynTsK/ln5PqspF0GsKvcofHx6aq3/k0JW9dyrDLhDQNvb3CLRsbu1u7jX92ovZJUv2S0Vi8/SG5VcsUl78fFcbFD1FT10MbrKv0byU+K8CWvU1Mid7dv1jUfolB39oahrIp1hZoS38v6KHxxy0K5HzWAfeJxSbcpsLs1dsIDqp+0/l2vOWvh9lrXfaRMR8t1TNZPwDS7QanE8dnta+l5kh8f4bN/rVTiK3TGBAAMNndTbct1cp+RozUbyrVc0kqZxku2fYQjjKgf/qjGTziyzw4uq46peY6kU3P0nXxDW5fLfWuZdpBrRI5q+YLKYodqTtXyAYa8i+Q6LWftNX9dsmVyjZY0QfIxA/7YMjv4Xdd0FCoA9C77U5LfKCmW5UB5llKJ7I7qZy/aQd3tD2b1jILNf4fVcq2UvF2y98h82xxsk7erqfqYLGtIAECf+AmgaKKYuSp3+ZJkuZlz3BWo97Tvvr2/Kedo8Dd7TmUV8QEP/pKUSsyW7Lc5SlAm+QS57yNpl5wN/tJrshHTBjz4S1Jj4gyZ/Tpn7XVt29te3y0ng7+sW7v6n4tqv2hK3CrZ97Ivj5+vuvRJWb3nkimvKRgxXbIVOQr14zb81LSv5DvlaJssrvUDAgBypH6fLo3c+rMy3V+kIeV5BcE0zZ2yMmehZ+8JX5PspiJdI8sUlE9X49QXchfyKr4hsxuKc/3qKp1S3Vl036spcaUC+9+s35fRT1XXunNW72mY+leZ9eP6g0FZP10qj/2ejhIEgFJ18eFrZJXTVMgnAPbd+SzRKJ+shqqXc/q5Myd167D48TK7ush626UKRkzu10V/mw15U3pUGT9BZlcWWXufVuWE04p2v2hM/LekX2V5CD5GYXhe1stKxR9TWXC4zF4urlUUnKs5VX+hkwQBoJQ1Tm7X+FGfldlPiuQb/VGVo6boguoVefn0GZZRKvFNmc5Wtrdj5edMx10qDybn7Mj/XSHAQqUS31ZgZxZJe+epomxyTn7Wyafxo74lUzq7DKDD+7WsuVXPaoRPlumhImj5egXB19QYP18AAWAYqJ/So1TiFJmOl+zNAo0MnQqCH6ip+jjVT1mb98Wlqs9TLJgm6bUCneUIFQT/o8nxqTn5zX/LR7UXSrFPSPZKgdrbrsBmKpU4QRdNW72Z10WdrXJd3veJstjxMi2J3kZ/r9z7d7HzxdX/1F7bHSFZAZ8BYH9WWeyjaoz/agDrOWKws+IOgCAADDup6hsUjNhbsusH+ahwoaT91Ri/bFCX2xBfpFFb7y2zK7N+TOzABsMlsrKPqTF+zka3T+ZbU9U9sop9ZMFPB7e99pgsOEiNiasi1CbqhWf5v0BtTtU6lcU+KdMLkb9TNhM3vdPMSd1qStRJsY/L7KlBXD89MvuJxld8bLOP2Y72WRF/xgqfFAgAKDKNR/9LTYkZitlUye7Lc8fzhGLBcUolpqkp8VxB2nvhEauUSnxbMTtEsuY8t/d5mb6uysTH1Dh9SUHam5rSplT8u4rFDla+r/0we1iBPqXG+CQ1xiMOaOUtknVs4YM7NSKWHpR6zalarvKyeMSr9W/OWVDba8IBMp2S12sDTF0yu0plwZ5KJU7Z7COno2uRrHuL68+CBXS2wwvzAAxFtS1HKPTvSv4pSaNz0unIWhToSjUkmouuvcn5H5Fnvi/Tcb23Vg24vaFkd8qDq3XY9BsG9Yg/ilnpD6tHP5D8OLkqc/CJGZnuVix2oeZW9a+TT6br5D53M684Q03VFw3yfnCwwnDRJvcBsye014SD3jVh0kBduaRcz648SaF/TdJhvbegDtgqma6RjbxEjUf/K/f7UPocuddvZqc4TU2JSwQCAIaI+kVj1NZxjMynyO1IuX8wizX/D0l3y4K7JN2ixvgbRd/eS5tH6oVYQp45WrIjJe2XRef7mszukfwuKbi5X1MYF6K9LwZxuR8t6UjJ99swv0OUFbxU8gUyWyBV3KnUlLaBD7jpbynU3HfMObBegc1WY+KKgtSopvVjUvhLyfd+x+B/o0b5t/N24epbTr1jV4Xdn5H7kXIdIfmELEL3A73rKFigQ6sezWsQdTfVpmsknb/RzIpm62Q6TQ3xnw7opxIQAFAEgeDNzg9Imij3bSRtJffRsqBDoa+VgjYFtlRe/nxOBoSCnwlZPEp6c/fe9mqCFI6RBaPlYZekdZK1KfAXZaOez9ncBcXZ3jXy2HKZVqhMy1WeWZa3ge/M5glqDw6W+Z6SP69Y7KFBuWBys9v9UyPU9tJkme2rUG8q0KPRf97IsbMWbq+OzAcUZnaTNFZuYyQPFNhKhVoh0wqV+3L1VL6ixsntBfl+7V0HSzZR8udVoQfzHpIAAAAAAAAAAAAAAAAAAAAAAAAAAAAAAAAAAAAAAAAAAAAAAAAAAAAAAAAAAAAAAAAAAAAAAAAAAAAAAAAAAAAAAAAAAAAAAAAAAAAAAAAAAAAAAAAAAAAAAAAAAAAAAAAAAAAAAAAAAAAAAAAAAAAAAAAAAAAAAAAAAAAAAAAAAAAAAAAAAAAAAAAAAAAAAAAAAAAAAAAAAAAAAAAAAAAAAAAAAAAAAAAAAAAAAAAAAAAAAAAAAAAAAAAAAAAAAAAAAAAAAAAAAAAAAAAAAAAAAAAAAAAAAAAAAAAAAAAAAAAAAAAAAAAAAAAAAAAAAAAAAAAAAAAAAAAAAAAAAAAAAAAAAAAAAAAAAAAAAAAAAAAAAAAAAAAAAAAAAAAAAAAAAAAAAAAAAAAAAAAAAAAAAAAAAAAAAAAAAAAAAAAAAAAAAAAAAAAAAAAAAAAAAAAAAACAYev/A96UDhazjJNiAAAAAElFTkSuQmCC;" vertex="1" parent="1">
          <mxGeometry x="440" y="-114.47" width="153.6" height="150" as="geometry" />
        </mxCell>
        <mxCell id="SxAMXVoo2cSi_DEeGkWg-38" value="eureka-server" style="shape=module;align=left;spacingLeft=20;align=center;verticalAlign=top;whiteSpace=wrap;html=1;" vertex="1" parent="1">
          <mxGeometry x="-200" y="100" width="140" height="50" as="geometry" />
        </mxCell>
        <mxCell id="SxAMXVoo2cSi_DEeGkWg-43" value="&lt;div&gt;ms-bootcoin&lt;/div&gt;" style="shape=module;align=left;spacingLeft=20;align=center;verticalAlign=top;whiteSpace=wrap;html=1;" vertex="1" parent="1">
          <mxGeometry x="230" y="506" width="140" height="44" as="geometry" />
        </mxCell>
        <mxCell id="SxAMXVoo2cSi_DEeGkWg-46" value="" style="endArrow=classic;html=1;rounded=0;entryX=0;entryY=1;entryDx=10;entryDy=0;entryPerimeter=0;" edge="1" parent="1" target="SxAMXVoo2cSi_DEeGkWg-3">
          <mxGeometry width="50" height="50" relative="1" as="geometry">
            <mxPoint x="440" y="380" as="sourcePoint" />
            <mxPoint x="490" y="310" as="targetPoint" />
          </mxGeometry>
        </mxCell>
        <mxCell id="SxAMXVoo2cSi_DEeGkWg-48" style="edgeStyle=orthogonalEdgeStyle;rounded=0;orthogonalLoop=1;jettySize=auto;html=1;entryX=0.576;entryY=0.085;entryDx=0;entryDy=0;entryPerimeter=0;" edge="1" parent="1" source="SxAMXVoo2cSi_DEeGkWg-43" target="SxAMXVoo2cSi_DEeGkWg-36">
          <mxGeometry relative="1" as="geometry" />
        </mxCell>
      </root>
    </mxGraphModel>
  </diagram>
</mxfile>
